<?xml version="1.0" standalone="no"?>
<!DOCTYPE svg PUBLIC "-//W3C//DTD SVG 1.1//EN" "http://www.w3.org/Graphics/SVG/1.1/DTD/svg11.dtd" >
<svg xmlns="http://www.w3.org/2000/svg" width="100%" height="100%">
<metadata>
Created by FontXChange 20110222 at Mon Dec 12 17:32:31 2011
 By James Beall
Copyright (c) 2011 by GM. All rights reserved.
</metadata>
<defs>
<font id="Louis-Regular" horiz-adv-x="536" >
  <font-face 
    font-family="Louis"
    font-weight="400"
    font-stretch="normal"
    units-per-em="1000"
    panose-1="2 0 0 0 0 0 0 0 0 0"
    ascent="750"
    descent="-250"
    x-height="560"
    cap-height="750"
    bbox="-100 -276 1115 1021"
    underline-thickness="50"
    underline-position="-50"
    stemh="103"
    stemv="106"
    unicode-range="U+0020-FB02"
  />
<missing-glyph horiz-adv-x="580" 
d="M540 750v-750h-500v750h500zM261 374l-171 281v-562zM319 374l171 -281v562zM120 700l170 -279l170 279h-340zM290 326l-169 -276h337z" />
    <glyph glyph-name="fi" unicode="fi" horiz-adv-x="572" 
d="M399 0v468h-190v-468h-100v468h-89v92h89v33c0 142 76 203 214 203c22 0 55 -3 63 -4v-97c-13 2 -44 4 -63 4c-81 0 -114 -25 -114 -109v-30h290v-560h-100z" />
    <glyph glyph-name="fl" unicode="fl" horiz-adv-x="604" 
d="M431 0v696c-45 4 -80 5 -108 5c-81 0 -114 -24 -114 -108v-33h132v-96h-132v-464h-100v464h-89v96h89v33c0 142 79 203 217 203c48 0 141 -5 205 -11v-785h-100z" />
    <glyph glyph-name=".notdef" horiz-adv-x="580" 
d="M540 750v-750h-500v750h500zM261 374l-171 281v-562zM319 374l171 -281v562zM120 700l170 -279l170 279h-340zM290 326l-169 -276h337z" />
    <glyph glyph-name="space" unicode=" " horiz-adv-x="220" 
 />
    <glyph glyph-name="exclam" unicode="!" horiz-adv-x="254" 
d="M171 231h-88l-14 519h116zM188 0h-122v127h122v-127z" />
    <glyph glyph-name="quotedbl" unicode="&#x22;" horiz-adv-x="362" 
d="M50 750h105l-21 -262h-84v262zM222 750h105l-21 -262h-84v262z" />
    <glyph glyph-name="numbersign" unicode="#" horiz-adv-x="550" 
d="M143 441h-109v68h116l20 191h75l-20 -191h133l20 191h75l-20 -191h100v-68h-107l-19 -182h109v-68h-116l-20 -191h-75l20 191h-133l-20 -191h-75l20 191h-100v68h107zM332 259l19 182h-133l-19 -182h133z" />
    <glyph glyph-name="dollar" unicode="$" horiz-adv-x="550" 
d="M301 810v-90c116 -7 200 -74 196 -199h-100c0 53 -31 102 -96 111v-204l14 -4c102 -33 187 -89 187 -206c0 -110 -86 -181 -201 -190v-98h-50v99c-133 10 -207 98 -210 204h100c2 -56 47 -106 110 -116v227l-23 8c-89 32 -168 67 -168 193c0 104 80 166 191 175v90h50z
M403 222c0 60 -50 86 -102 105v-209c60 8 102 44 102 104zM158 543c0 -56 46 -83 93 -99v188c-73 -8 -93 -51 -93 -89z" />
    <glyph glyph-name="percent" unicode="%" horiz-adv-x="550" 
d="M127 0h-64l361 750h64zM73 612v-20c0 -55 25 -84 64 -84c40 0 65 29 65 84v20c0 55 -25 84 -65 84c-39 0 -64 -29 -64 -84zM4 592v20c0 91 57 148 133 148c77 0 134 -57 134 -148v-20c0 -91 -57 -149 -134 -149c-76 0 -133 58 -133 149zM348 159v-20c0 -55 25 -84 64 -84
c40 0 65 29 65 84v20c0 55 -25 84 -65 84c-39 0 -64 -29 -64 -84zM279 139v20c0 91 57 148 133 148c77 0 134 -57 134 -148v-20c0 -91 -57 -149 -134 -149c-76 0 -133 58 -133 149z" />
    <glyph glyph-name="ampersand" unicode="&#x26;" horiz-adv-x="644" 
d="M318 383l133 -154c17 45 25 92 30 136h99c-7 -64 -26 -139 -60 -217l120 -138v-10h-127l-57 68c-47 -44 -105 -78 -181 -78c-134 0 -235 81 -235 214c0 99 66 161 133 202c-39 50 -77 98 -77 174c0 122 90 180 185 180c113 0 191 -63 191 -169c0 -73 -52 -147 -154 -208z
M274 84c53 0 92 24 123 55l-169 198c-42 -27 -84 -72 -84 -133c0 -78 54 -120 130 -120zM196 580c0 -38 27 -82 66 -128c75 39 110 88 110 135c0 42 -29 80 -86 80c-63 0 -90 -39 -90 -87z" />
    <glyph glyph-name="quotesingle" unicode="'" horiz-adv-x="190" 
d="M50 750h100l-21 -262h-79v262z" />
    <glyph glyph-name="parenleft" unicode="(" horiz-adv-x="346" 
d="M63 334c0 168 46 342 182 517h91c-118 -171 -167 -343 -167 -517s49 -345 167 -516h-91c-136 175 -182 348 -182 516z" />
    <glyph glyph-name="parenright" unicode=")" horiz-adv-x="346" 
d="M283 335c0 -168 -46 -342 -182 -517h-91c118 171 167 343 167 517s-49 345 -167 516h91c136 -175 182 -348 182 -516z" />
    <glyph glyph-name="asterisk" unicode="*" horiz-adv-x="442" 
d="M180 750h82l-11 -151l140 57l25 -78l-146 -36l97 -115l-67 -48l-79 127l-79 -127l-67 48l97 115l-146 36l25 78l140 -57z" />
    <glyph glyph-name="plus" unicode="+" horiz-adv-x="586" 
d="M338 344h218v-88h-218v-236h-90v236h-218v88h218v236h90v-236z" />
    <glyph glyph-name="comma" unicode="," horiz-adv-x="228" 
d="M50 0v131h133v-109c0 -83 -33 -170 -143 -185v50c60 19 75 62 75 101c0 9 -5 12 -11 12h-54z" />
    <glyph glyph-name="hyphen" unicode="-" horiz-adv-x="446" 
d="M406 346h-366v88h366v-88z" />
    <glyph glyph-name="period" unicode="." horiz-adv-x="228" 
d="M177 0h-126v131h126v-131z" />
    <glyph glyph-name="slash" unicode="/" horiz-adv-x="424" 
d="M115 -77h-97l292 881h96z" />
    <glyph glyph-name="zero" unicode="0" horiz-adv-x="600" 
d="M429 236v278c0 28 -4 53 -11 70c-20 47 -64 73 -118 73s-98 -26 -118 -73c-7 -17 -11 -42 -11 -70v-278c0 -28 4 -53 11 -70c20 -47 64 -73 118 -73s98 26 118 73c7 17 11 42 11 70zM65 229v292c0 40 4 66 13 91c33 93 122 148 222 148s189 -55 222 -148
c9 -25 13 -51 13 -91v-292c0 -40 -4 -66 -13 -91c-33 -93 -122 -148 -222 -148s-189 55 -222 148c-9 25 -13 51 -13 91z" />
    <glyph glyph-name="one" unicode="1" horiz-adv-x="380" 
d="M24 496h-2v121l173 133h99v-750h-105v623z" />
    <glyph glyph-name="two" unicode="2" horiz-adv-x="553" 
d="M54 0v40c0 162 86 240 173 310c75 60 165 125 165 216c0 60 -44 94 -112 94c-49 0 -87 -22 -105 -56c-7 -14 -11 -34 -11 -58v-17h-105v17c0 33 5 61 14 83c31 79 113 131 207 131c121 0 221 -74 221 -194c0 -125 -100 -201 -185 -271c-59 -48 -144 -112 -149 -194h336
v-101h-449z" />
    <glyph glyph-name="three" unicode="3" horiz-adv-x="568" 
d="M187 349v93h67c100 0 142 56 142 123c0 66 -51 98 -115 98c-82 0 -121 -49 -121 -108h-105c0 113 91 205 226 205c123 0 220 -72 220 -196c0 -63 -32 -125 -100 -165c81 -39 119 -113 119 -185c0 -128 -106 -224 -242 -224c-150 0 -242 88 -242 213h105
c1 -71 49 -113 137 -113c78 0 136 50 136 134c0 70 -48 125 -160 125h-67z" />
    <glyph glyph-name="four" unicode="4" horiz-adv-x="587" 
d="M314 760h144v-473h107v-94h-107v-193h-105v193h-319v95zM142 287h211v364h-2z" />
    <glyph glyph-name="five" unicode="5" horiz-adv-x="579" 
d="M301 411c-55 0 -102 -27 -123 -60l-103 1v398h408v-103h-303v-187c37 33 88 50 137 50c104 0 176 -52 199 -147c5 -22 8 -46 8 -82v-51c0 -39 -5 -67 -13 -91c-32 -93 -119 -149 -220 -149c-127 0 -227 90 -227 229h106c0 -83 48 -126 121 -126c53 0 97 25 116 72
c7 17 11 40 11 71v38c0 27 -2 49 -7 64c-15 49 -54 73 -110 73z" />
    <glyph glyph-name="six" unicode="6" horiz-adv-x="589" 
d="M297 760c123 0 216 -70 226 -190h-108c-10 59 -53 89 -121 89c-79 0 -123 -56 -123 -145v-98h1c39 52 104 72 158 72c92 0 167 -45 193 -136c6 -22 10 -47 10 -84v-39c0 -36 -3 -60 -10 -82c-29 -98 -117 -157 -223 -157c-100 0 -189 55 -222 148c-9 25 -13 59 -13 99
v284c0 40 4 66 13 91c33 93 122 148 219 148zM300 92c56 0 100 28 118 78c6 16 9 37 9 65v22c0 28 -3 48 -8 64c-16 47 -54 69 -109 69c-74 0 -139 -53 -139 -138v-17c0 -28 4 -53 11 -70c20 -47 64 -73 118 -73z" />
    <glyph glyph-name="seven" unicode="7" horiz-adv-x="513" 
d="M246 0h-114c18 196 125 437 237 649h-341v101h453v-95c-122 -228 -217 -445 -235 -655z" />
    <glyph glyph-name="eight" unicode="8" horiz-adv-x="584" 
d="M292 760c130 0 226 -72 226 -196c0 -63 -34 -125 -105 -165c84 -39 124 -113 124 -185c0 -128 -101 -224 -245 -224s-245 96 -245 224c0 72 40 146 124 185c-71 40 -105 102 -105 165c0 124 96 196 226 196zM431 220c0 64 -45 126 -139 126s-139 -62 -139 -126
c0 -84 53 -132 139 -132s139 48 139 132zM171 562c0 -62 44 -115 121 -115s121 53 121 115c0 65 -50 105 -121 105s-121 -40 -121 -105z" />
    <glyph glyph-name="nine" unicode="9" horiz-adv-x="589" 
d="M292 -10c-123 0 -216 70 -226 190h108c10 -59 53 -89 121 -89c79 0 123 56 123 145v98h-1c-39 -52 -104 -72 -158 -72c-92 0 -167 45 -193 136c-6 22 -10 47 -10 84v39c0 36 3 60 10 82c29 98 117 157 223 157c100 0 189 -55 222 -148c9 -25 13 -59 13 -99v-284
c0 -40 -4 -66 -13 -91c-33 -93 -122 -148 -219 -148zM289 658c-56 0 -100 -28 -118 -78c-6 -16 -9 -37 -9 -65v-22c0 -28 3 -48 8 -64c16 -47 54 -69 109 -69c74 0 139 53 139 138v17c0 28 -4 53 -11 70c-20 47 -64 73 -118 73z" />
    <glyph glyph-name="colon" unicode=":" horiz-adv-x="245" 
d="M185 0h-126v131h126v-131zM185 415h-126v131h126v-131z" />
    <glyph glyph-name="semicolon" unicode=";" horiz-adv-x="245" 
d="M60 0v131h133v-109c0 -83 -33 -170 -143 -185v50c60 19 75 62 75 101c0 9 -5 12 -11 12h-54zM187 415h-126v131h126v-131z" />
    <glyph glyph-name="less" unicode="&#x3c;" horiz-adv-x="550" 
d="M498 43l-446 206v102l446 206v-96l-362 -161l362 -161v-96z" />
    <glyph glyph-name="equal" unicode="=" horiz-adv-x="550" 
d="M503 361h-456v88h456v-88zM503 151h-456v88h456v-88z" />
    <glyph glyph-name="greater" unicode="&#x3e;" horiz-adv-x="550" 
d="M52 557l446 -206v-102l-446 -206v96l362 161l-362 161v96z" />
    <glyph glyph-name="question" unicode="?" horiz-adv-x="495" 
d="M275 231h-94c-20 224 174 222 174 347c0 58 -47 86 -111 86c-70 0 -113 -47 -113 -108v-18h-99v18c0 119 91 204 212 204c119 0 212 -64 212 -182c0 -165 -201 -162 -181 -347zM292 0h-122v127h122v-127z" />
    <glyph glyph-name="at" unicode="@" horiz-adv-x="927" 
d="M375 347l-15 -108c-11 -73 9 -118 70 -118c60 0 114 63 122 121l14 101c9 63 -14 126 -82 126c-65 0 -99 -51 -109 -122zM417 34c-105 0 -165 77 -148 202l16 111c19 136 94 209 198 209c51 0 93 -24 117 -65l17 52h67l-51 -360c-7 -51 -7 -88 34 -93
c79 -9 130 161 134 297c7 224 -128 303 -297 303h-23c-168 0 -307 -99 -333 -333l-14 -132c-23 -214 102 -315 270 -315h20c85 0 175 24 223 53l22 -54c-60 -33 -160 -59 -250 -59h-20c-202 0 -363 119 -335 375l14 132c30 275 201 393 403 393h23c203 0 364 -97 357 -363
c-5 -182 -72 -365 -202 -357c-52 3 -89 35 -102 81c-40 -53 -92 -77 -140 -77z" />
    <glyph glyph-name="A" unicode="A" horiz-adv-x="596" 
d="M386 329l-87 316h-4l-85 -316h176zM414 228h-232l-61 -228h-109l210 750h152l210 -750h-109z" />
    <glyph glyph-name="B" unicode="B" horiz-adv-x="607" 
d="M76 0v750h215c47 0 82 -4 109 -12c84 -26 136 -88 136 -183c0 -69 -35 -126 -92 -161c78 -32 116 -105 116 -176c0 -96 -53 -173 -140 -204c-26 -9 -55 -14 -106 -14h-238zM307 335h-125v-233h134c33 0 59 5 76 14c39 20 61 58 61 102c0 48 -26 87 -71 106
c-17 7 -42 11 -75 11zM298 648h-116v-211h115c33 0 51 4 67 11c39 17 67 54 67 104c0 45 -25 74 -66 88c-17 6 -37 8 -67 8z" />
    <glyph glyph-name="C" unicode="C" horiz-adv-x="596" 
d="M431 162c9 21 14 49 14 82h107c-1 -47 -7 -82 -18 -111c-37 -93 -128 -143 -222 -143h-8c-93 0 -183 51 -221 143c-12 30 -18 66 -18 114v256c0 48 6 84 18 114c38 92 128 143 221 143h8c94 0 185 -51 222 -143c11 -28 17 -62 18 -105h-107c-1 30 -5 56 -14 76
c-23 50 -72 70 -119 70h-8c-47 0 -96 -20 -119 -70c-10 -22 -14 -51 -14 -85v-256c0 -34 4 -63 14 -85c23 -50 72 -69 119 -69h8c47 0 96 19 119 69z" />
    <glyph glyph-name="D" unicode="D" horiz-adv-x="618" 
d="M182 103h122c67 0 106 20 129 70c10 22 14 50 14 84v236c0 34 -4 62 -14 84c-23 50 -62 70 -129 70h-122v-544zM304 0h-228v750h228c113 0 193 -50 231 -142c12 -30 18 -67 18 -115v-236c0 -48 -6 -85 -18 -115c-38 -92 -118 -142 -231 -142z" />
    <glyph glyph-name="E" unicode="E" horiz-adv-x="555" 
d="M76 0v750h439v-103h-333v-211h275v-103h-275v-230h333v-103h-439z" />
    <glyph glyph-name="F" unicode="F" horiz-adv-x="550" 
d="M76 0v750h439v-103h-333v-211h275v-103h-275v-333h-106z" />
    <glyph glyph-name="G" unicode="G" horiz-adv-x="619" 
d="M304 92h8c68 0 135 38 135 161v26h-139v100h243v-379h-51l-25 75c-40 -55 -102 -85 -169 -85h-7c-93 0 -179 50 -216 143c-12 30 -18 66 -18 114v256c0 48 6 84 18 114c38 92 128 143 221 143h8c94 0 188 -50 222 -143c10 -27 16 -58 18 -96h-108c-2 25 -6 47 -14 66
c-22 50 -71 71 -118 71h-8c-47 0 -96 -20 -119 -70c-10 -22 -14 -51 -14 -85v-256c0 -34 5 -63 15 -85c23 -50 71 -70 118 -70z" />
    <glyph glyph-name="H" unicode="H" horiz-adv-x="649" 
d="M76 0v750h106v-308h285v308h106v-750h-106v339h-285v-339h-106z" />
    <glyph glyph-name="I" unicode="I" horiz-adv-x="258" 
d="M76 0v750h106v-750h-106z" />
    <glyph glyph-name="J" unicode="J" horiz-adv-x="545" 
d="M151 271v-49c0 -31 7 -58 18 -77c19 -33 52 -53 90 -53s71 20 90 53c11 19 18 47 18 78v527h106v-522c0 -47 -8 -84 -21 -115c-33 -75 -102 -123 -193 -123s-160 48 -193 123c-13 31 -21 67 -21 114v44h106z" />
    <glyph glyph-name="K" unicode="K" horiz-adv-x="627" 
d="M620 0h-124l-208 382l-106 -132v-250h-106v750h106v-350l1 -1s19 24 35 44l252 307h130l-237 -283z" />
    <glyph glyph-name="L" unicode="L" horiz-adv-x="547" 
d="M76 0v750h106v-647h335v-103h-441z" />
    <glyph glyph-name="M" unicode="M" horiz-adv-x="780" 
d="M602 566l-171 -420h-82l-171 420h-1s1 -33 1 -58v-508h-102v750h127l187 -460l187 460h127v-750h-102v508c0 25 1 58 1 58h-1z" />
    <glyph glyph-name="N" unicode="N" horiz-adv-x="648" 
d="M178 569h-1s1 -33 1 -58v-511h-102v750h126l268 -569h1s-1 33 -1 58v511h102v-750h-127z" />
    <glyph glyph-name="O" unicode="O" horiz-adv-x="616" 
d="M445 247v256c0 34 -4 64 -14 86c-23 50 -72 69 -119 69h-8c-47 0 -96 -19 -119 -69c-10 -22 -14 -52 -14 -86v-256c0 -34 4 -64 14 -86c23 -50 72 -69 119 -69h8c47 0 96 19 119 69c10 22 14 52 14 86zM65 247v256c0 48 6 84 18 114c38 92 128 143 221 143h8
c93 0 183 -51 221 -143c12 -30 18 -66 18 -114v-256c0 -48 -6 -84 -18 -114c-38 -92 -128 -143 -221 -143h-8c-93 0 -183 51 -221 143c-12 30 -18 66 -18 114z" />
    <glyph glyph-name="P" unicode="P" horiz-adv-x="603" 
d="M182 394h120c46 0 68 6 87 17c37 21 60 61 60 108c0 49 -23 90 -60 111c-19 11 -41 17 -87 17h-120v-253zM304 291h-122v-291h-106v750h228c51 0 83 -5 109 -15c87 -32 142 -112 142 -216c0 -102 -55 -181 -142 -213c-26 -10 -56 -15 -109 -15z" />
    <glyph glyph-name="Q" unicode="Q" horiz-adv-x="616" 
d="M65 247v256c0 48 6 84 18 114c38 92 128 143 221 143h8c93 0 183 -51 221 -143c12 -30 18 -66 18 -114v-256c0 -48 -6 -84 -18 -114c-17 -40 -44 -73 -76 -96c40 -15 91 -22 163 -25v-95c-126 4 -203 24 -271 75c-10 -1 -24 -2 -37 -2h-8c-93 0 -183 51 -221 143
c-12 30 -18 66 -18 114zM445 247v256c0 34 -4 64 -14 86c-23 50 -72 69 -119 69h-8c-47 0 -96 -19 -119 -69c-10 -22 -14 -52 -14 -86v-256c0 -34 4 -64 14 -86c23 -50 72 -69 119 -69h8c47 0 96 19 119 69c10 22 14 52 14 86z" />
    <glyph glyph-name="R" unicode="R" horiz-adv-x="606" 
d="M581 2v-2h-116c-19 20 -27 57 -30 90l-12 137c-6 71 -48 95 -124 95h-117v-322h-106v750h212c34 0 64 -3 88 -8c98 -22 161 -86 161 -191c0 -74 -40 -136 -114 -170v-1c65 -23 99 -65 105 -142l11 -140c3 -38 14 -75 42 -96zM284 648h-102v-224h107c92 0 142 50 142 122
c0 53 -30 84 -80 96c-17 4 -41 6 -67 6z" />
    <glyph glyph-name="S" unicode="S" horiz-adv-x="584" 
d="M527 537h-107c0 66 -38 126 -128 126c-98 0 -123 -53 -123 -101c0 -63 48 -93 98 -110l68 -23c108 -36 199 -98 199 -228s-103 -211 -239 -211c-158 0 -249 102 -252 227h108c3 -69 60 -130 140 -130c79 0 137 42 137 118c0 71 -60 100 -119 121l-67 24
c-94 35 -178 74 -178 214c0 125 100 196 231 196c137 0 237 -76 232 -223z" />
    <glyph glyph-name="T" unicode="T" horiz-adv-x="560" 
d="M22 750h516v-103h-205v-647h-106v647h-205v103z" />
    <glyph glyph-name="U" unicode="U" horiz-adv-x="630" 
d="M452 247v503h106v-503c0 -48 -6 -84 -18 -114c-38 -92 -128 -143 -221 -143h-8c-93 0 -183 51 -221 143c-12 30 -18 66 -18 114v503h106v-503c0 -34 4 -64 14 -86c23 -50 72 -69 119 -69h8c47 0 96 19 119 69c10 22 14 52 14 86z" />
    <glyph glyph-name="V" unicode="V" horiz-adv-x="592" 
d="M123 750l171 -631h2l173 631h111l-214 -750h-140l-214 750h111z" />
    <glyph glyph-name="W" unicode="W" horiz-adv-x="880" 
d="M378 750h123l128 -616h2l110 616h113l-152 -750h-139l-123 569h-2l-121 -569h-140l-151 750h112l110 -616h2z" />
    <glyph glyph-name="X" unicode="X" horiz-adv-x="584" 
d="M130 0h-121l223 390l-200 360h122l138 -261l138 261h122l-200 -360l223 -390h-121l-162 290z" />
    <glyph glyph-name="Y" unicode="Y" horiz-adv-x="582" 
d="M292 439l167 311h120l-235 -426v-324h-106v324l-235 426h120l167 -311h2z" />
    <glyph glyph-name="Z" unicode="Z" horiz-adv-x="586" 
d="M59 647v103h474v-93l-359 -554h365v-103h-494v94l356 553h-342z" />
    <glyph glyph-name="bracketleft" unicode="[" horiz-adv-x="374" 
d="M85 -190v1049h274v-73h-174v-903h174v-73h-274z" />
    <glyph glyph-name="backslash" unicode="\" horiz-adv-x="424" 
d="M406 -77h-97l-291 881h96z" />
    <glyph glyph-name="bracketright" unicode="]" horiz-adv-x="374" 
d="M289 859v-1049h-274v73h174v903h-174v73h274z" />
    <glyph glyph-name="asciicircum" unicode="^" horiz-adv-x="476" 
d="M30 400l164 360h88l164 -360h-95l-113 262l-113 -262h-95z" />
    <glyph glyph-name="underscore" unicode="_" horiz-adv-x="446" 
d="M446 -137h-446v74h446v-74z" />
    <glyph glyph-name="grave" unicode="`" horiz-adv-x="566" 
d="M345 657h-71l-173 180h126z" />
    <glyph glyph-name="a" unicode="a" horiz-adv-x="540" 
d="M176 416h-104c19 93 88 154 200 154c136 0 198 -71 198 -200v-370h-71l-12 72h-1c-34 -50 -84 -82 -150 -82c-112 0 -186 69 -186 186c0 104 73 176 199 176h121v27c0 65 -32 100 -99 100c-55 0 -82 -25 -95 -63zM150 177c0 -58 32 -96 100 -96s120 71 120 123v61h-120
c-59 0 -100 -33 -100 -88z" />
    <glyph glyph-name="b" unicode="b" horiz-adv-x="564" 
d="M173 325v-87c0 -25 3 -46 8 -62c16 -50 55 -90 114 -90c55 0 90 30 105 76c6 17 9 37 9 69v102c0 32 -4 55 -10 73c-15 44 -48 68 -99 68c-50 0 -93 -36 -114 -80c-8 -17 -13 -36 -13 -69zM172 498h1c31 43 76 72 142 72c93 0 160 -53 184 -143c7 -24 10 -61 10 -91v-104
c0 -34 -3 -67 -9 -91c-25 -100 -98 -151 -190 -151c-61 0 -118 29 -151 76h-1l-10 -66h-75v785h100v-229c0 -25 -1 -58 -1 -58z" />
    <glyph glyph-name="c" unicode="c" horiz-adv-x="523" 
d="M369 150c3 7 6 16 8 26h102c-3 -20 -7 -38 -12 -53c-29 -85 -103 -133 -199 -133c-95 0 -169 50 -198 135c-9 27 -15 62 -15 104v102c0 42 6 77 15 104c29 85 103 135 198 135c96 0 170 -48 199 -133c6 -18 10 -39 13 -63h-102c-2 14 -5 26 -9 36c-17 43 -53 64 -101 64
s-84 -23 -101 -66c-8 -19 -12 -45 -12 -79v-98c0 -34 4 -60 12 -79c17 -43 53 -66 101 -66s84 21 101 64z" />
    <glyph glyph-name="d" unicode="d" horiz-adv-x="564" 
d="M391 235v87c0 25 -3 46 -8 62c-16 50 -55 90 -114 90c-55 0 -90 -30 -105 -76c-6 -17 -9 -37 -9 -69v-102c0 -32 4 -55 10 -73c15 -44 48 -68 99 -68c50 0 93 36 114 80c8 17 13 36 13 69zM254 570c54 0 105 -23 137 -58h1s-1 33 -1 58v215h100v-785h-75l-13 73h-1
c-33 -51 -83 -83 -153 -83c-93 0 -160 53 -184 143c-7 24 -10 61 -10 91v104c0 34 3 67 9 91c25 100 98 151 190 151z" />
    <glyph glyph-name="e" unicode="e" 
d="M269 570c95 0 169 -50 198 -135c9 -27 15 -62 15 -104v-74h-327v-34c0 -86 43 -142 113 -142c53 0 93 31 109 85h103c-23 -115 -105 -176 -212 -176c-95 0 -169 50 -198 135c-9 27 -15 62 -15 104v102c0 42 6 77 15 104c29 85 104 135 199 135zM167 413
c-7 -17 -11 -38 -12 -66h228c-1 28 -5 49 -12 66c-17 43 -54 66 -102 66s-85 -23 -102 -66z" />
    <glyph glyph-name="f" unicode="f" horiz-adv-x="361" 
d="M209 406v-406h-100v464h-89v96h89v33c0 142 79 203 197 203c20 0 42 -2 50 -3v-96c-13 2 -30 3 -43 3c-71 0 -104 -24 -104 -108v-32h132v-96h-133s1 -33 1 -58z" />
    <glyph glyph-name="g" unicode="g" horiz-adv-x="564" 
d="M391 245v77c0 25 -3 46 -8 62c-16 50 -55 90 -114 90c-55 0 -90 -30 -105 -76c-6 -17 -9 -37 -9 -69v-92c0 -32 4 -55 10 -73c15 -44 48 -68 99 -68c50 0 93 36 114 80c8 17 13 36 13 69zM278 -144c48 0 84 24 101 67c8 19 12 45 12 79v12c0 25 1 58 1 58h-1
c-31 -43 -76 -72 -142 -72c-93 0 -160 53 -184 143c-7 24 -10 61 -10 91v94c0 34 3 67 9 91c25 100 98 151 190 151c61 0 118 -29 151 -76h1l10 66h75v-559c0 -42 -6 -77 -15 -104c-29 -85 -104 -135 -199 -135c-108 0 -190 57 -213 170h105c17 -54 55 -76 109 -76z" />
    <glyph glyph-name="h" unicode="h" horiz-adv-x="579" 
d="M509 0h-100v333c0 32 -4 55 -10 73c-15 44 -48 68 -99 68c-50 0 -93 -36 -114 -80c-8 -17 -13 -36 -13 -69v-325h-100v785h100v-229c0 -25 -1 -58 -1 -58h1c31 43 80 72 146 72c93 0 156 -53 180 -143c7 -24 10 -61 10 -91v-336z" />
    <glyph glyph-name="i" unicode="i" horiz-adv-x="246" 
d="M73 0v560h100v-560h-100zM70 647v113h106v-113h-106z" />
    <glyph glyph-name="j" unicode="j" horiz-adv-x="255" 
d="M82 -33v593h100v-594c0 -142 -79 -203 -197 -203c-17 0 -35 1 -45 2v96c12 -1 27 -2 38 -2c71 0 104 24 104 108zM79 647v113h106v-113h-106z" />
    <glyph glyph-name="k" unicode="k" horiz-adv-x="526" 
d="M173 217v-217h-100v785h100v-441l203 216h130l-199 -202l211 -358h-120l-162 283z" />
    <glyph glyph-name="l" unicode="l" horiz-adv-x="246" 
d="M73 0v785h100v-785h-100z" />
    <glyph glyph-name="m" unicode="m" horiz-adv-x="851" 
d="M477 339v-339h-99v344c0 82 -26 130 -93 130c-60 0 -112 -62 -112 -135v-339h-100v560h73l12 -59h1c30 44 74 69 134 69c71 0 118 -35 151 -90c31 51 82 90 152 90c96 0 155 -53 176 -139c6 -25 9 -58 9 -93v-338h-100v335c0 29 -2 55 -7 73c-12 42 -38 66 -85 66
c-60 0 -112 -62 -112 -135z" />
    <glyph glyph-name="n" unicode="n" horiz-adv-x="579" 
d="M319 570c93 0 156 -53 180 -143c7 -24 10 -61 10 -91v-336h-100v333c0 32 -4 55 -10 73c-15 44 -48 68 -99 68c-50 0 -93 -36 -114 -80c-8 -17 -13 -36 -13 -69v-325h-100v560h75l13 -73h1c33 51 83 83 157 83z" />
    <glyph glyph-name="o" unicode="o" 
d="M481 331v-102c0 -42 -6 -77 -15 -104c-29 -85 -103 -135 -198 -135s-169 50 -198 135c-9 27 -15 62 -15 104v102c0 42 6 77 15 104c29 85 103 135 198 135s169 -50 198 -135c9 -27 15 -62 15 -104zM381 231v98c0 34 -4 60 -12 79c-17 43 -53 66 -101 66s-84 -23 -101 -66
c-8 -19 -12 -45 -12 -79v-98c0 -34 4 -60 12 -79c17 -43 53 -66 101 -66s84 23 101 66c8 19 12 45 12 79z" />
    <glyph glyph-name="p" unicode="p" horiz-adv-x="564" 
d="M173 325v-87c0 -25 3 -46 8 -62c16 -50 55 -90 114 -90c55 0 90 30 105 76c6 17 9 37 9 69v102c0 32 -4 55 -10 73c-15 44 -48 68 -99 68c-50 0 -93 -36 -114 -80c-8 -17 -13 -36 -13 -69zM310 -10c-54 0 -105 23 -137 58h-1s1 -33 1 -58v-234h-100v804h75l13 -73h1
c33 51 83 83 153 83c93 0 160 -53 184 -143c7 -24 10 -61 10 -91v-104c0 -34 -3 -67 -9 -91c-25 -100 -98 -151 -190 -151z" />
    <glyph glyph-name="q" unicode="q" horiz-adv-x="564" 
d="M391 235v87c0 25 -3 46 -8 62c-16 50 -55 90 -114 90c-55 0 -90 -30 -105 -76c-6 -17 -9 -37 -9 -69v-102c0 -32 4 -55 10 -73c15 -44 48 -68 99 -68c50 0 93 36 114 80c8 17 13 36 13 69zM392 62h-1c-31 -43 -76 -72 -142 -72c-93 0 -160 53 -184 143
c-7 24 -10 61 -10 91v104c0 34 3 67 9 91c25 100 98 151 190 151c61 0 118 -29 151 -76h1l10 66h75v-804h-100v248c0 25 1 58 1 58z" />
    <glyph glyph-name="r" unicode="r" horiz-adv-x="417" 
d="M396 559l-3 -102c-26 10 -53 16 -83 16c-77 0 -137 -63 -137 -153v-320h-100v560h74l14 -81h1c36 61 84 91 156 91c26 0 56 -5 78 -11z" />
    <glyph glyph-name="s" unicode="s" horiz-adv-x="489" 
d="M225 247c-155 38 -167 118 -167 165c0 96 77 158 185 158c104 0 182 -50 196 -157h-102c-13 45 -44 69 -94 69c-51 0 -87 -28 -87 -68s25 -59 105 -78c102 -24 186 -64 186 -176c0 -106 -84 -170 -193 -170c-118 0 -199 62 -216 176h102c15 -56 52 -86 112 -86
c57 0 94 30 95 76c1 50 -33 69 -122 91z" />
    <glyph glyph-name="t" unicode="t" horiz-adv-x="377" 
d="M342 95l-1 -95c-14 -2 -25 -3 -38 -3c-107 0 -168 40 -187 132c-5 22 -7 51 -7 84v251h-89v96h89v140h100v-140h132v-96h-132v-252c0 -30 2 -51 6 -66c11 -40 37 -53 88 -53c12 0 21 0 39 2z" />
    <glyph glyph-name="u" unicode="u" horiz-adv-x="577" 
d="M259 -10c-93 0 -155 53 -179 143c-7 24 -10 61 -10 91v336h100v-333c0 -32 4 -55 10 -73c15 -44 47 -68 98 -68c50 0 92 36 113 80c8 17 13 36 13 69v325h100v-560h-75l-13 73h-1c-33 -51 -82 -83 -156 -83z" />
    <glyph glyph-name="v" unicode="v" horiz-adv-x="500" 
d="M491 560l-187 -560h-108l-187 560h106l134 -439h2l134 439h106z" />
    <glyph glyph-name="w" unicode="w" horiz-adv-x="756" 
d="M632 560h107l-148 -560h-106l-106 395h-2l-106 -395h-107l-147 560h106l98 -413h2l109 413h91l109 -412h2z" />
    <glyph glyph-name="x" unicode="x" horiz-adv-x="518" 
d="M28 560h115l116 -182l115 182h117l-178 -266l193 -294h-114l-133 209l-133 -209h-114l193 294z" />
    <glyph glyph-name="y" unicode="y" horiz-adv-x="508" 
d="M77 -120c54 0 79 33 97 81l30 80l-193 519h107l138 -394h2l135 394h106l-234 -637c-35 -95 -92 -139 -176 -139c-30 0 -57 4 -80 11v95c22 -5 42 -10 68 -10z" />
    <glyph glyph-name="z" unicode="z" horiz-adv-x="498" 
d="M463 0h-428v85l285 379h-275v96h400v-86l-284 -378h302v-96z" />
    <glyph glyph-name="braceleft" unicode="{" horiz-adv-x="424" 
d="M152 513l-19 135c-22 159 70 211 213 211h66v-73h-56c-68 0 -140 -24 -122 -138l18 -115c14 -92 -2 -169 -94 -200c92 -30 108 -108 94 -199l-18 -113c-18 -115 54 -138 122 -138h56v-73h-66c-143 0 -236 52 -213 211l19 133c16 114 -25 138 -93 138h-27v83h27
c68 0 109 24 93 138z" />
    <glyph glyph-name="bar" unicode="|" horiz-adv-x="314" 
d="M110 -190v1049h94v-1049h-94z" />
    <glyph glyph-name="braceright" unicode="}" horiz-adv-x="424" 
d="M291 648l-19 -135c-15 -114 25 -138 93 -138h27v-83h-27c-68 0 -109 -24 -93 -138l19 -133c23 -159 -70 -211 -213 -211h-66v73h56c68 0 140 23 122 138l-18 113c-14 91 2 169 94 199c-92 31 -108 108 -94 200l18 115c18 114 -54 138 -122 138h-56v73h66
c143 0 235 -52 213 -211z" />
    <glyph glyph-name="asciitilde" unicode="~" horiz-adv-x="543" 
d="M273 453c50 -36 72 -51 104 -50c26 1 43 19 48 73h76c-7 -97 -49 -153 -123 -159c-34 -2 -69 12 -108 39c-50 36 -72 51 -104 50c-26 -2 -42 -19 -48 -74h-76c7 98 49 154 123 160c34 2 69 -12 108 -39z" />
    <glyph glyph-name="uni00A0" unicode="&#xa0;" horiz-adv-x="220" 
 />
    <glyph glyph-name="exclamdown" unicode="&#xa1;" horiz-adv-x="254" 
d="M83 329h88l14 -519h-116zM66 560h122v-127h-122v127z" />
    <glyph glyph-name="cent" unicode="&#xa2;" horiz-adv-x="526" 
d="M245 -70v101c-84 7 -148 56 -175 134c-10 27 -15 60 -15 102v106c0 42 5 75 15 102c27 78 91 126 175 134v92h50v-92c101 -10 174 -73 187 -185h-100c-10 51 -41 81 -87 89v-386c44 7 75 33 87 79h99c-17 -106 -88 -166 -186 -175v-101h-50zM165 192
c14 -37 42 -60 80 -66v387c-38 -6 -66 -29 -80 -65c-8 -19 -12 -44 -12 -78v-100c0 -34 4 -59 12 -78z" />
    <glyph glyph-name="sterling" unicode="&#xa3;" horiz-adv-x="550" 
d="M502 555h-100c-8 73 -47 112 -105 112c-65 0 -107 -46 -107 -131v-127h192v-68h-192v-131c0 -75 -20 -101 -45 -115v-2h200c50 0 85 8 89 88h93c-4 -149 -69 -181 -180 -181h-321v93c47 0 64 30 64 110v138h-81v68h81v127c0 141 90 224 207 224c113 0 199 -73 205 -205z
" />
    <glyph glyph-name="yen" unicode="&#xa5;" horiz-adv-x="550" 
d="M524 184h-199v-184h-100v184h-199v68h199v97h-199v68h174l-198 333h113l160 -284l160 284h113l-198 -333h174v-68h-199v-97h199v-68z" />
    <glyph glyph-name="brokenbar" unicode="&#xa6;" horiz-adv-x="314" 
d="M110 -190v449h94v-449h-94zM110 410v449h94v-449h-94z" />
    <glyph glyph-name="section" unicode="&#xa7;" horiz-adv-x="525" 
d="M292 402l-54 17c-48 -5 -90 -43 -91 -85c-1 -41 26 -73 92 -93l64 -19c48 6 79 44 80 86c1 41 -28 74 -91 94zM50 321c0 60 39 113 108 136c-80 44 -88 100 -88 135c0 96 77 158 185 158c104 0 181 -52 194 -153h-98c-13 45 -43 69 -99 69c-55 0 -88 -32 -88 -72
c0 -44 32 -72 110 -95l30 -9c104 -31 171 -82 171 -172c0 -57 -35 -115 -91 -137c51 -31 75 -77 75 -130c0 -106 -84 -170 -193 -170c-118 0 -198 61 -214 169h98c15 -56 52 -86 114 -86c59 0 96 37 97 83c1 52 -37 81 -114 102l-26 7c-148 40 -171 118 -171 165z" />
    <glyph glyph-name="dieresis" unicode="&#xa8;" horiz-adv-x="500" 
d="M203 674h-105v111h105v-111zM402 674h-105v111h105v-111z" />
    <glyph glyph-name="copyright" unicode="&#xa9;" horiz-adv-x="858" 
d="M508 254c6 14 9 33 9 55h78c-1 -34 -5 -59 -12 -77c-23 -63 -85 -97 -148 -97h-7c-63 0 -123 35 -148 96c-8 20 -12 44 -12 76v138c0 32 4 55 12 75c25 62 85 97 148 97h7c63 0 125 -35 148 -97c7 -18 11 -41 12 -73h-78c-1 21 -4 39 -9 51c-13 30 -44 44 -73 44h-7
c-29 0 -59 -14 -73 -44c-7 -15 -9 -32 -9 -53v-138c0 -21 2 -38 9 -53c14 -30 44 -44 73 -44h7c29 0 60 14 73 44zM60 375c0 213 146 385 369 385s369 -172 369 -385s-146 -385 -369 -385s-369 172 -369 385zM111 375c0 -185 123 -336 318 -336s318 151 318 336
s-123 336 -318 336s-318 -151 -318 -336z" />
    <glyph glyph-name="ordfeminine" unicode="&#xaa;" horiz-adv-x="344" 
d="M117 668h-63c11 55 54 92 121 92c82 0 121 -43 121 -120v-222h-45l-7 41c-21 -29 -48 -47 -88 -47c-73 0 -116 41 -116 112c0 62 44 105 117 105h77v16c0 39 -19 61 -59 61c-33 0 -50 -16 -58 -38zM102 524c0 -35 19 -57 60 -57s72 42 72 73v37h-73
c-32 0 -59 -20 -59 -53z" />
    <glyph glyph-name="guillemotleft" unicode="&#xab;" horiz-adv-x="530" 
d="M28 326l232 249v-111l-129 -138l129 -138v-111zM248 326l232 249v-111l-129 -138l129 -138v-111z" />
    <glyph glyph-name="logicalnot" unicode="&#xac;" horiz-adv-x="580" 
d="M540 750v-750h-500v750h500zM261 374l-171 281v-562zM319 374l171 -281v562zM120 700l170 -279l170 279h-340zM290 326l-169 -276h337z" />
    <glyph glyph-name="registered" unicode="&#xae;" horiz-adv-x="490" 
d="M48 583c0 111 81 202 197 202s197 -91 197 -202s-81 -202 -197 -202s-197 91 -197 202zM78 583c0 -95 67 -174 167 -174s167 79 167 174s-67 174 -167 174s-167 -79 -167 -174zM341 469h-44l-48 96h-38v-96h-39v233h79c46 0 82 -22 82 -66c0 -33 -17 -56 -46 -65z
M251 667h-41v-67h45c20 0 37 12 37 36c0 22 -17 31 -41 31z" />
    <glyph glyph-name="macron" unicode="&#xaf;" horiz-adv-x="500" 
d="M405 740v-65h-310v65h310z" />
    <glyph glyph-name="degree" unicode="&#xb0;" horiz-adv-x="307" 
d="M40 647c0 63 50 114 113 114s114 -51 114 -114s-51 -113 -114 -113s-113 50 -113 113zM87 647c0 -38 29 -68 66 -68s67 30 67 68s-30 69 -67 69s-66 -31 -66 -69z" />
    <glyph glyph-name="plusminus" unicode="&#xb1;" horiz-adv-x="550" 
d="M538 0h-526v88h526v-88zM320 474h218v-88h-218v-226h-90v226h-218v88h218v226h90v-226z" />
    <glyph glyph-name="twosuperior" unicode="&#xb2;" horiz-adv-x="580" 
d="M540 750v-750h-500v750h500zM261 374l-171 281v-562zM319 374l171 -281v562zM120 700l170 -279l170 279h-340zM290 326l-169 -276h337z" />
    <glyph glyph-name="threesuperior" unicode="&#xb3;" horiz-adv-x="580" 
d="M540 750v-750h-500v750h500zM261 374l-171 281v-562zM319 374l171 -281v562zM120 700l170 -279l170 279h-340zM290 326l-169 -276h337z" />
    <glyph glyph-name="acute" unicode="&#xb4;" horiz-adv-x="500" 
d="M226 657h-71l118 180h126z" />
    <glyph glyph-name="mu" unicode="&#xb5;" horiz-adv-x="582" 
d="M434 0l-16 72c-35 -51 -82 -82 -144 -82c-35 0 -72 11 -101 38h-3s3 -43 3 -72v-200h-100v804h100v-340c0 -81 37 -133 108 -133c70 0 128 70 128 134v339h100v-560h-75z" />
    <glyph glyph-name="mu" unicode="&#x3bc;" horiz-adv-x="582" 
d="M434 0l-16 72c-35 -51 -82 -82 -144 -82c-35 0 -72 11 -101 38h-3s3 -43 3 -72v-200h-100v804h100v-340c0 -81 37 -133 108 -133c70 0 128 70 128 134v339h100v-560h-75z" />
    <glyph glyph-name="paragraph" unicode="&#xb6;" horiz-adv-x="602" 
d="M261 366h-14c-106 0 -192 86 -192 191c0 107 86 193 192 193h273v-925h-74v862h-109v-862h-76v541z" />
    <glyph glyph-name="periodcentered" unicode="&#xb7;" horiz-adv-x="228" 
d="M177 330h-126v131h126v-131z" />
    <glyph glyph-name="cedilla" unicode="&#xb8;" horiz-adv-x="500" 
d="M286 19l-19 -68c58 -14 108 -42 108 -96c0 -56 -44 -93 -102 -93c-63 0 -107 37 -115 87h53c8 -26 29 -41 61 -41c30 0 50 20 50 45c0 26 -17 43 -65 56l-25 7c-17 4 -23 13 -17 31l28 79z" />
    <glyph glyph-name="onesuperior" unicode="&#xb9;" horiz-adv-x="580" 
d="M540 750v-750h-500v750h500zM261 374l-171 281v-562zM319 374l171 -281v562zM120 700l170 -279l170 279h-340zM290 326l-169 -276h337z" />
    <glyph glyph-name="ordmasculine" unicode="&#xba;" horiz-adv-x="345" 
d="M104 621v-70c0 -51 26 -81 68 -81s69 30 69 81v70c0 51 -27 81 -69 81s-68 -30 -68 -81zM42 549v74c0 84 56 137 130 137c75 0 131 -53 131 -137v-74c0 -84 -56 -137 -131 -137c-74 0 -130 53 -130 137z" />
    <glyph glyph-name="guillemotright" unicode="&#xbb;" horiz-adv-x="530" 
d="M282 326l-232 -249v111l129 138l-129 138v111zM502 326l-232 -249v111l129 138l-129 138v111z" />
    <glyph glyph-name="onequarter" unicode="&#xbc;" horiz-adv-x="580" 
d="M540 750v-750h-500v750h500zM261 374l-171 281v-562zM319 374l171 -281v562zM120 700l170 -279l170 279h-340zM290 326l-169 -276h337z" />
    <glyph glyph-name="onehalf" unicode="&#xbd;" horiz-adv-x="580" 
d="M540 750v-750h-500v750h500zM261 374l-171 281v-562zM319 374l171 -281v562zM120 700l170 -279l170 279h-340zM290 326l-169 -276h337z" />
    <glyph glyph-name="threequarters" unicode="&#xbe;" horiz-adv-x="580" 
d="M540 750v-750h-500v750h500zM261 374l-171 281v-562zM319 374l171 -281v562zM120 700l170 -279l170 279h-340zM290 326l-169 -276h337z" />
    <glyph glyph-name="questiondown" unicode="&#xbf;" horiz-adv-x="498" 
d="M219 329h94c20 -224 -174 -222 -174 -347c0 -58 47 -86 111 -86c70 0 113 47 113 108v18h99v-18c0 -119 -91 -204 -212 -204c-119 0 -212 64 -212 182c0 165 201 162 181 347zM202 560h122v-127h-122v127z" />
    <glyph glyph-name="Agrave" unicode="&#xc0;" horiz-adv-x="596" 
d="M386 329l-87 316h-4l-85 -316h176zM414 228h-232l-61 -228h-109l210 750h152l210 -750h-109zM378 807h-71l-173 180h126z" />
    <glyph glyph-name="Aacute" unicode="&#xc1;" horiz-adv-x="592" 
d="M386 329l-87 316h-4l-85 -316h176zM414 228h-232l-61 -228h-109l210 750h152l210 -750h-109zM275 807h-71l118 180h126z" />
    <glyph glyph-name="Acircumflex" unicode="&#xc2;" horiz-adv-x="592" 
d="M386 329l-87 316h-4l-85 -316h176zM414 228h-232l-61 -228h-109l210 750h152l210 -750h-109zM338 999l155 -191h-83l-114 132l-114 -132h-83l155 191h84z" />
    <glyph glyph-name="Atilde" unicode="&#xc3;" horiz-adv-x="596" 
d="M386 329l-87 316h-4l-85 -316h176zM414 228h-232l-61 -228h-109l210 750h152l210 -750h-109zM299 924c44 -31 61 -43 90 -43c22 0 44 17 48 63h61c-6 -85 -46 -137 -113 -137c-27 0 -58 11 -88 33c-44 31 -61 43 -90 43c-22 0 -43 -17 -48 -63h-61c6 85 46 137 112 137
c28 0 58 -11 89 -33z" />
    <glyph glyph-name="Adieresis" unicode="&#xc4;" horiz-adv-x="596" 
d="M386 329l-87 316h-4l-85 -316h176zM414 228h-232l-61 -228h-109l210 750h152l210 -750h-109zM250 824h-105v111h105v-111zM449 824h-105v111h105v-111z" />
    <glyph glyph-name="Aring" unicode="&#xc5;" horiz-adv-x="596" 
d="M386 329l-87 316h-4l-85 -316h176zM414 228h-232l-61 -228h-109l210 750h152l210 -750h-109zM184 907c0 63 50 114 113 114s114 -51 114 -114s-51 -113 -114 -113s-113 50 -113 113zM231 907c0 -38 29 -68 66 -68s67 30 67 68s-30 69 -67 69s-66 -31 -66 -69z" />
    <glyph glyph-name="AE" unicode="&#xc6;" horiz-adv-x="879" 
d="M112 0h-120l331 750h516v-103h-298v-211h242v-103h-242v-230h298v-103h-404v230h-224zM390 647l-135 -314h180v314h-45z" />
    <glyph glyph-name="Ccedilla" unicode="&#xc7;" horiz-adv-x="596" 
d="M431 162c9 21 14 49 14 82h107c-1 -47 -7 -82 -18 -111c-37 -93 -128 -143 -222 -143h-4l-11 -39c58 -14 108 -42 108 -96c0 -56 -44 -93 -102 -93c-63 0 -107 37 -115 87h53c8 -26 29 -41 61 -41c30 0 50 20 50 45c0 26 -17 43 -65 56l-25 7c-17 4 -23 13 -17 31l16 47
c-77 12 -146 61 -178 139c-12 30 -18 66 -18 114v256c0 48 6 84 18 114c38 92 128 143 221 143h8c94 0 185 -51 222 -143c11 -28 17 -62 18 -105h-107c-1 30 -5 56 -14 76c-23 50 -72 70 -119 70h-8c-47 0 -96 -20 -119 -70c-10 -22 -14 -51 -14 -85v-256
c0 -34 4 -63 14 -85c23 -50 72 -69 119 -69h8c47 0 96 19 119 69z" />
    <glyph glyph-name="Egrave" unicode="&#xc8;" horiz-adv-x="555" 
d="M76 0v750h439v-103h-333v-211h275v-103h-275v-230h333v-103h-439zM387 807h-71l-173 180h126z" />
    <glyph glyph-name="Eacute" unicode="&#xc9;" horiz-adv-x="555" 
d="M76 0v750h439v-103h-333v-211h275v-103h-275v-230h333v-103h-439zM272 807h-71l118 180h126z" />
    <glyph glyph-name="Ecircumflex" unicode="&#xca;" horiz-adv-x="555" 
d="M76 0v750h439v-103h-333v-211h275v-103h-275v-230h333v-103h-439zM333 999l155 -191h-83l-114 132l-114 -132h-83l155 191h84z" />
    <glyph glyph-name="Edieresis" unicode="&#xcb;" horiz-adv-x="555" 
d="M76 0v750h439v-103h-333v-211h275v-103h-275v-230h333v-103h-439zM249 824h-105v111h105v-111zM448 824h-105v111h105v-111z" />
    <glyph glyph-name="Igrave" unicode="&#xcc;" horiz-adv-x="258" 
d="M76 0v750h106v-750h-106zM181 807h-71l-173 180h126z" />
    <glyph glyph-name="Iacute" unicode="&#xcd;" horiz-adv-x="258" 
d="M76 0v750h106v-750h-106zM148 807h-71l118 180h126z" />
    <glyph glyph-name="Icircumflex" unicode="&#xce;" horiz-adv-x="258" 
d="M76 0v750h106v-750h-106zM171 999l155 -191h-83l-114 132l-114 -132h-83l155 191h84z" />
    <glyph glyph-name="Idieresis" unicode="&#xcf;" horiz-adv-x="258" 
d="M76 0v750h106v-750h-106zM82 824h-105v111h105v-111zM281 824h-105v111h105v-111z" />
    <glyph glyph-name="Eth" unicode="&#xd0;" horiz-adv-x="665" 
d="M352 647h-123v-214h148v-76h-148v-254h123c67 0 106 20 129 70c10 22 14 50 14 84v236c0 34 -4 62 -14 84c-23 50 -62 70 -129 70zM352 0h-229v357h-108v76h108v317h229c113 0 193 -50 231 -142c12 -30 18 -67 18 -115v-236c0 -48 -6 -85 -18 -115
c-38 -92 -118 -142 -231 -142z" />
    <glyph glyph-name="Ntilde" unicode="&#xd1;" horiz-adv-x="648" 
d="M178 569h-1s1 -33 1 -58v-511h-102v750h126l268 -569h1s-1 33 -1 58v511h102v-750h-127zM325 924c44 -31 61 -43 90 -43c22 0 44 17 48 63h61c-6 -85 -46 -137 -113 -137c-27 0 -58 11 -88 33c-44 31 -61 43 -90 43c-22 0 -43 -17 -48 -63h-61c6 85 46 137 112 137
c28 0 58 -11 89 -33z" />
    <glyph glyph-name="Ograve" unicode="&#xd2;" horiz-adv-x="616" 
d="M445 247v256c0 34 -4 64 -14 86c-23 50 -72 69 -119 69h-8c-47 0 -96 -19 -119 -69c-10 -22 -14 -52 -14 -86v-256c0 -34 4 -64 14 -86c23 -50 72 -69 119 -69h8c47 0 96 19 119 69c10 22 14 52 14 86zM65 247v256c0 48 6 84 18 114c38 92 128 143 221 143h8
c93 0 183 -51 221 -143c12 -30 18 -66 18 -114v-256c0 -48 -6 -84 -18 -114c-38 -92 -128 -143 -221 -143h-8c-93 0 -183 51 -221 143c-12 30 -18 66 -18 114zM410 807h-71l-173 180h126z" />
    <glyph glyph-name="Oacute" unicode="&#xd3;" horiz-adv-x="616" 
d="M445 247v256c0 34 -4 64 -14 86c-23 50 -72 69 -119 69h-8c-47 0 -96 -19 -119 -69c-10 -22 -14 -52 -14 -86v-256c0 -34 4 -64 14 -86c23 -50 72 -69 119 -69h8c47 0 96 19 119 69c10 22 14 52 14 86zM65 247v256c0 48 6 84 18 114c38 92 128 143 221 143h8
c93 0 183 -51 221 -143c12 -30 18 -66 18 -114v-256c0 -48 -6 -84 -18 -114c-38 -92 -128 -143 -221 -143h-8c-93 0 -183 51 -221 143c-12 30 -18 66 -18 114zM277 807h-71l118 180h126z" />
    <glyph glyph-name="Ocircumflex" unicode="&#xd4;" horiz-adv-x="616" 
d="M445 247v256c0 34 -4 64 -14 86c-23 50 -72 69 -119 69h-8c-47 0 -96 -19 -119 -69c-10 -22 -14 -52 -14 -86v-256c0 -34 4 -64 14 -86c23 -50 72 -69 119 -69h8c47 0 96 19 119 69c10 22 14 52 14 86zM65 247v256c0 48 6 84 18 114c38 92 128 143 221 143h8
c93 0 183 -51 221 -143c12 -30 18 -66 18 -114v-256c0 -48 -6 -84 -18 -114c-38 -92 -128 -143 -221 -143h-8c-93 0 -183 51 -221 143c-12 30 -18 66 -18 114zM350 989l155 -191h-83l-114 132l-114 -132h-83l155 191h84z" />
    <glyph glyph-name="Otilde" unicode="&#xd5;" horiz-adv-x="616" 
d="M445 247v256c0 34 -4 64 -14 86c-23 50 -72 69 -119 69h-8c-47 0 -96 -19 -119 -69c-10 -22 -14 -52 -14 -86v-256c0 -34 4 -64 14 -86c23 -50 72 -69 119 -69h8c47 0 96 19 119 69c10 22 14 52 14 86zM65 247v256c0 48 6 84 18 114c38 92 128 143 221 143h8
c93 0 183 -51 221 -143c12 -30 18 -66 18 -114v-256c0 -48 -6 -84 -18 -114c-38 -92 -128 -143 -221 -143h-8c-93 0 -183 51 -221 143c-12 30 -18 66 -18 114zM309 924c44 -31 61 -43 90 -43c22 0 44 17 48 63h61c-6 -85 -46 -137 -113 -137c-27 0 -58 11 -88 33
c-44 31 -61 43 -90 43c-22 0 -43 -17 -48 -63h-61c6 85 46 137 112 137c28 0 58 -11 89 -33z" />
    <glyph glyph-name="Odieresis" unicode="&#xd6;" horiz-adv-x="616" 
d="M445 247v256c0 34 -4 64 -14 86c-23 50 -72 69 -119 69h-8c-47 0 -96 -19 -119 -69c-10 -22 -14 -52 -14 -86v-256c0 -34 4 -64 14 -86c23 -50 72 -69 119 -69h8c47 0 96 19 119 69c10 22 14 52 14 86zM65 247v256c0 48 6 84 18 114c38 92 128 143 221 143h8
c93 0 183 -51 221 -143c12 -30 18 -66 18 -114v-256c0 -48 -6 -84 -18 -114c-38 -92 -128 -143 -221 -143h-8c-93 0 -183 51 -221 143c-12 30 -18 66 -18 114zM261 824h-105v111h105v-111zM460 824h-105v111h105v-111z" />
    <glyph glyph-name="multiply" unicode="&#xd7;" horiz-adv-x="558" 
d="M279 238l-181 -181l-62 62l181 181l-181 181l62 62l181 -181l181 181l62 -62l-181 -181l181 -181l-62 -62z" />
    <glyph glyph-name="Oslash" unicode="&#xd8;" horiz-adv-x="616" 
d="M79 -35l47 101c-18 19 -33 42 -43 68c-12 30 -18 65 -18 113v256c0 48 6 83 18 113c38 92 128 144 221 144h8c43 0 85 -11 122 -32l27 57h76l-47 -102c17 -19 32 -41 43 -67c12 -30 18 -65 18 -113v-256c0 -48 -6 -83 -18 -113c-38 -92 -128 -144 -221 -144h-8
c-43 0 -86 11 -123 32l-26 -57h-76zM445 247v256c0 26 -2 49 -8 68l-213 -456c24 -16 52 -23 80 -23h8c47 0 96 20 119 70c10 22 14 51 14 85zM171 503v-256c0 -26 2 -49 7 -68l213 456c-24 16 -52 23 -79 23h-8c-47 0 -96 -20 -119 -70c-10 -22 -14 -51 -14 -85z" />
    <glyph glyph-name="Ugrave" unicode="&#xd9;" horiz-adv-x="630" 
d="M452 247v503h106v-503c0 -48 -6 -84 -18 -114c-38 -92 -128 -143 -221 -143h-8c-93 0 -183 51 -221 143c-12 30 -18 66 -18 114v503h106v-503c0 -34 4 -64 14 -86c23 -50 72 -69 119 -69h8c47 0 96 19 119 69c10 22 14 52 14 86zM397 807h-71l-173 180h126z" />
    <glyph glyph-name="Uacute" unicode="&#xda;" horiz-adv-x="630" 
d="M452 247v503h106v-503c0 -48 -6 -84 -18 -114c-38 -92 -128 -143 -221 -143h-8c-93 0 -183 51 -221 143c-12 30 -18 66 -18 114v503h106v-503c0 -34 4 -64 14 -86c23 -50 72 -69 119 -69h8c47 0 96 19 119 69c10 22 14 52 14 86zM304 807h-71l118 180h126z" />
    <glyph glyph-name="Ucircumflex" unicode="&#xdb;" horiz-adv-x="630" 
d="M452 247v503h106v-503c0 -48 -6 -84 -18 -114c-38 -92 -128 -143 -221 -143h-8c-93 0 -183 51 -221 143c-12 30 -18 66 -18 114v503h106v-503c0 -34 4 -64 14 -86c23 -50 72 -69 119 -69h8c47 0 96 19 119 69c10 22 14 52 14 86zM357 999l155 -191h-83l-114 132
l-114 -132h-83l155 191h84z" />
    <glyph glyph-name="Udieresis" unicode="&#xdc;" horiz-adv-x="630" 
d="M452 247v503h106v-503c0 -48 -6 -84 -18 -114c-38 -92 -128 -143 -221 -143h-8c-93 0 -183 51 -221 143c-12 30 -18 66 -18 114v503h106v-503c0 -34 4 -64 14 -86c23 -50 72 -69 119 -69h8c47 0 96 19 119 69c10 22 14 52 14 86zM268 824h-105v111h105v-111zM467 824
h-105v111h105v-111z" />
    <glyph glyph-name="Yacute" unicode="&#xdd;" horiz-adv-x="582" 
d="M292 439l167 311h120l-235 -426v-324h-106v324l-235 426h120l167 -311h2zM300 807h-71l118 180h126z" />
    <glyph glyph-name="Thorn" unicode="&#xde;" horiz-adv-x="603" 
d="M182 610h122c51 0 83 -5 109 -15c87 -32 142 -112 142 -216c0 -102 -55 -181 -142 -213c-26 -10 -56 -15 -109 -15h-122v-151h-106v750h106v-140zM182 254h120c46 0 68 6 87 17c37 21 60 61 60 108c0 49 -23 90 -60 111c-19 11 -41 17 -87 17h-120v-253z" />
    <glyph glyph-name="germandbls" unicode="&#xdf;" horiz-adv-x="601" 
d="M338 -10c-46 0 -81 6 -112 15v94c33 -13 63 -19 102 -19c68 0 121 45 121 129c0 94 -75 142 -161 142h-20v82h28c61 0 123 47 123 127c0 64 -48 105 -118 105c-49 0 -93 -23 -114 -66c-9 -18 -14 -44 -14 -74v-525h-100v520c0 35 4 67 12 91c31 95 116 149 216 149
c124 0 218 -77 218 -195c0 -77 -37 -131 -100 -166c64 -20 130 -89 130 -190c0 -148 -99 -219 -211 -219z" />
    <glyph glyph-name="agrave" unicode="&#xe0;" horiz-adv-x="540" 
d="M176 416h-104c19 93 88 154 200 154c136 0 198 -71 198 -200v-370h-71l-12 72h-1c-34 -50 -84 -82 -150 -82c-112 0 -186 69 -186 186c0 104 73 176 199 176h121v27c0 65 -32 100 -99 100c-55 0 -82 -25 -95 -63zM150 177c0 -58 32 -96 100 -96s120 71 120 123v61h-120
c-59 0 -100 -33 -100 -88zM357 627h-71l-173 180h126z" />
    <glyph glyph-name="aacute" unicode="&#xe1;" horiz-adv-x="540" 
d="M176 416h-104c19 93 88 154 200 154c136 0 198 -71 198 -200v-370h-71l-12 72h-1c-34 -50 -84 -82 -150 -82c-112 0 -186 69 -186 186c0 104 73 176 199 176h121v27c0 65 -32 100 -99 100c-55 0 -82 -25 -95 -63zM150 177c0 -58 32 -96 100 -96s120 71 120 123v61h-120
c-59 0 -100 -33 -100 -88zM247 627h-71l118 180h126z" />
    <glyph glyph-name="acircumflex" unicode="&#xe2;" horiz-adv-x="540" 
d="M176 416h-104c19 93 88 154 200 154c136 0 198 -71 198 -200v-370h-71l-12 72h-1c-34 -50 -84 -82 -150 -82c-112 0 -186 69 -186 186c0 104 73 176 199 176h121v27c0 65 -32 100 -99 100c-55 0 -82 -25 -95 -63zM150 177c0 -58 32 -96 100 -96s120 71 120 123v61h-120
c-59 0 -100 -33 -100 -88zM309 809l155 -191h-83l-114 132l-114 -132h-83l155 191h84z" />
    <glyph glyph-name="atilde" unicode="&#xe3;" horiz-adv-x="540" 
d="M176 416h-104c19 93 88 154 200 154c136 0 198 -71 198 -200v-370h-71l-12 72h-1c-34 -50 -84 -82 -150 -82c-112 0 -186 69 -186 186c0 104 73 176 199 176h121v27c0 65 -32 100 -99 100c-55 0 -82 -25 -95 -63zM150 177c0 -58 32 -96 100 -96s120 71 120 123v61h-120
c-59 0 -100 -33 -100 -88zM268 744c44 -31 61 -43 90 -43c22 0 44 17 48 63h61c-6 -85 -46 -137 -113 -137c-27 0 -58 11 -88 33c-44 31 -61 43 -90 43c-22 0 -43 -17 -48 -63h-61c6 85 46 137 112 137c28 0 58 -11 89 -33z" />
    <glyph glyph-name="adieresis" unicode="&#xe4;" horiz-adv-x="540" 
d="M176 416h-104c19 93 88 154 200 154c136 0 198 -71 198 -200v-370h-71l-12 72h-1c-34 -50 -84 -82 -150 -82c-112 0 -186 69 -186 186c0 104 73 176 199 176h121v27c0 65 -32 100 -99 100c-55 0 -82 -25 -95 -63zM150 177c0 -58 32 -96 100 -96s120 71 120 123v61h-120
c-59 0 -100 -33 -100 -88zM220 644h-105v111h105v-111zM419 644h-105v111h105v-111z" />
    <glyph glyph-name="aring" unicode="&#xe5;" horiz-adv-x="540" 
d="M176 416h-104c19 93 88 154 200 154c136 0 198 -71 198 -200v-370h-71l-12 72h-1c-34 -50 -84 -82 -150 -82c-112 0 -186 69 -186 186c0 104 73 176 199 176h121v27c0 65 -32 100 -99 100c-55 0 -82 -25 -95 -63zM150 177c0 -58 32 -96 100 -96s120 71 120 123v61h-120
c-59 0 -100 -33 -100 -88zM159 727c0 63 50 114 113 114s114 -51 114 -114s-51 -113 -114 -113s-113 50 -113 113zM206 727c0 -38 29 -68 66 -68s67 30 67 68s-30 69 -67 69s-66 -31 -66 -69z" />
    <glyph glyph-name="ae" unicode="&#xe6;" horiz-adv-x="852" 
d="M692 169h104c-23 -117 -105 -179 -213 -179c-82 0 -141 38 -174 105c-40 -73 -94 -105 -169 -105c-118 0 -190 69 -190 186c0 104 73 170 195 170h125v33c0 65 -31 100 -98 100c-55 0 -82 -25 -95 -63h-107c19 93 90 154 202 154c74 0 130 -26 158 -73
c34 47 92 73 154 73c135 0 215 -86 215 -258v-50h-329v-46c0 -82 44 -135 113 -135c53 0 93 32 109 88zM150 177c0 -58 32 -96 100 -96s120 71 120 123v58h-122c-53 0 -98 -30 -98 -85zM470 346h229c-4 91 -48 133 -115 133s-110 -42 -114 -133z" />
    <glyph glyph-name="ccedilla" unicode="&#xe7;" horiz-adv-x="526" 
d="M369 150c3 7 6 16 8 26h102c-3 -20 -7 -38 -12 -53c-29 -85 -103 -132 -198 -133l-11 -39c58 -14 108 -42 108 -96c0 -56 -44 -93 -102 -93c-63 0 -107 37 -115 87h53c8 -26 29 -41 61 -41c30 0 50 20 50 45c0 26 -17 43 -65 56l-25 7c-17 4 -23 13 -17 31l16 47
c-73 13 -128 60 -152 131c-9 27 -15 62 -15 104v102c0 42 6 77 15 104c29 85 103 135 198 135c96 0 170 -48 199 -133c6 -18 10 -39 13 -63h-102c-2 14 -5 26 -9 36c-17 43 -53 64 -101 64s-84 -23 -101 -66c-8 -19 -12 -45 -12 -79v-98c0 -34 4 -60 12 -79
c17 -43 53 -66 101 -66s84 21 101 64z" />
    <glyph glyph-name="egrave" unicode="&#xe8;" horiz-adv-x="534" 
d="M269 570c95 0 169 -50 198 -135c9 -27 15 -62 15 -104v-74h-327v-34c0 -86 43 -142 113 -142c53 0 93 31 109 85h103c-23 -115 -105 -176 -212 -176c-95 0 -169 50 -198 135c-9 27 -15 62 -15 104v102c0 42 6 77 15 104c29 85 104 135 199 135zM167 413
c-7 -17 -11 -38 -12 -66h228c-1 28 -5 49 -12 66c-17 43 -54 66 -102 66s-85 -23 -102 -66zM359 627h-71l-173 180h126z" />
    <glyph glyph-name="eacute" unicode="&#xe9;" horiz-adv-x="534" 
d="M269 570c95 0 169 -50 198 -135c9 -27 15 -62 15 -104v-74h-327v-34c0 -86 43 -142 113 -142c53 0 93 31 109 85h103c-23 -115 -105 -176 -212 -176c-95 0 -169 50 -198 135c-9 27 -15 62 -15 104v102c0 42 6 77 15 104c29 85 104 135 199 135zM167 413
c-7 -17 -11 -38 -12 -66h228c-1 28 -5 49 -12 66c-17 43 -54 66 -102 66s-85 -23 -102 -66zM236 627h-71l118 180h126z" />
    <glyph glyph-name="ecircumflex" unicode="&#xea;" horiz-adv-x="534" 
d="M269 570c95 0 169 -50 198 -135c9 -27 15 -62 15 -104v-74h-327v-34c0 -86 43 -142 113 -142c53 0 93 31 109 85h103c-23 -115 -105 -176 -212 -176c-95 0 -169 50 -198 135c-9 27 -15 62 -15 104v102c0 42 6 77 15 104c29 85 104 135 199 135zM167 413
c-7 -17 -11 -38 -12 -66h228c-1 28 -5 49 -12 66c-17 43 -54 66 -102 66s-85 -23 -102 -66zM309 809l155 -191h-83l-114 132l-114 -132h-83l155 191h84z" />
    <glyph glyph-name="edieresis" unicode="&#xeb;" horiz-adv-x="534" 
d="M269 570c95 0 169 -50 198 -135c9 -27 15 -62 15 -104v-74h-327v-34c0 -86 43 -142 113 -142c53 0 93 31 109 85h103c-23 -115 -105 -176 -212 -176c-95 0 -169 50 -198 135c-9 27 -15 62 -15 104v102c0 42 6 77 15 104c29 85 104 135 199 135zM167 413
c-7 -17 -11 -38 -12 -66h228c-1 28 -5 49 -12 66c-17 43 -54 66 -102 66s-85 -23 -102 -66zM220 644h-105v111h105v-111zM419 644h-105v111h105v-111z" />
    <glyph glyph-name="igrave" unicode="&#xec;" horiz-adv-x="246" 
d="M73 0v560h100v-560h-100zM172 627h-71l-173 180h126z" />
    <glyph glyph-name="iacute" unicode="&#xed;" horiz-adv-x="246" 
d="M73 0v560h100v-560h-100zM145 627h-71l118 180h126z" />
    <glyph glyph-name="icircumflex" unicode="&#xee;" horiz-adv-x="246" 
d="M163 819l141 -191h-82l-99 129l-99 -129h-82l141 191h80zM73 0v560h100v-560h-100z" />
    <glyph glyph-name="idieresis" unicode="&#xef;" horiz-adv-x="246" 
d="M73 0v560h100v-560h-100zM76 644h-105v111h105v-111zM275 644h-105v111h105v-111z" />
    <glyph glyph-name="eth" unicode="&#xf0;" 
d="M481 292v-63c0 -42 -6 -77 -15 -104c-29 -85 -103 -135 -198 -135s-169 50 -198 135c-9 27 -15 62 -15 104v49c0 45 5 81 15 110c30 86 100 132 180 132c25 0 73 -11 93 -30c-3 21 -26 68 -60 122l-122 -46l-23 63l107 40c-19 27 -40 54 -61 78l85 38
c23 -26 45 -53 66 -82l113 43l23 -63l-98 -37c29 -49 54 -101 73 -155c23 -66 35 -131 35 -199zM381 231v57c0 70 -39 135 -117 135c-48 0 -80 -23 -96 -60c-9 -21 -13 -49 -13 -85v-47c0 -34 4 -60 12 -79c17 -43 53 -66 101 -66s84 23 101 66c8 19 12 45 12 79z" />
    <glyph glyph-name="ntilde" unicode="&#xf1;" horiz-adv-x="579" 
d="M319 570c93 0 156 -53 180 -143c7 -24 10 -61 10 -91v-336h-100v333c0 32 -4 55 -10 73c-15 44 -48 68 -99 68c-50 0 -93 -36 -114 -80c-8 -17 -13 -36 -13 -69v-325h-100v560h75l13 -73h1c33 51 83 83 157 83zM287 744c44 -31 61 -43 90 -43c22 0 44 17 48 63h61
c-6 -85 -46 -137 -113 -137c-27 0 -58 11 -88 33c-44 31 -61 43 -90 43c-22 0 -43 -17 -48 -63h-61c6 85 46 137 112 137c28 0 58 -11 89 -33z" />
    <glyph glyph-name="ograve" unicode="&#xf2;" 
d="M481 331v-102c0 -42 -6 -77 -15 -104c-29 -85 -103 -135 -198 -135s-169 50 -198 135c-9 27 -15 62 -15 104v102c0 42 6 77 15 104c29 85 103 135 198 135s169 -50 198 -135c9 -27 15 -62 15 -104zM381 231v98c0 34 -4 60 -12 79c-17 43 -53 66 -101 66s-84 -23 -101 -66
c-8 -19 -12 -45 -12 -79v-98c0 -34 4 -60 12 -79c17 -43 53 -66 101 -66s84 23 101 66c8 19 12 45 12 79zM360 627h-71l-173 180h126z" />
    <glyph glyph-name="oacute" unicode="&#xf3;" 
d="M481 331v-102c0 -42 -6 -77 -15 -104c-29 -85 -103 -135 -198 -135s-169 50 -198 135c-9 27 -15 62 -15 104v102c0 42 6 77 15 104c29 85 103 135 198 135s169 -50 198 -135c9 -27 15 -62 15 -104zM381 231v98c0 34 -4 60 -12 79c-17 43 -53 66 -101 66s-84 -23 -101 -66
c-8 -19 -12 -45 -12 -79v-98c0 -34 4 -60 12 -79c17 -43 53 -66 101 -66s84 23 101 66c8 19 12 45 12 79zM248 627h-71l118 180h126z" />
    <glyph glyph-name="ocircumflex" unicode="&#xf4;" 
d="M481 331v-102c0 -42 -6 -77 -15 -104c-29 -85 -103 -135 -198 -135s-169 50 -198 135c-9 27 -15 62 -15 104v102c0 42 6 77 15 104c29 85 103 135 198 135s169 -50 198 -135c9 -27 15 -62 15 -104zM381 231v98c0 34 -4 60 -12 79c-17 43 -53 66 -101 66s-84 -23 -101 -66
c-8 -19 -12 -45 -12 -79v-98c0 -34 4 -60 12 -79c17 -43 53 -66 101 -66s84 23 101 66c8 19 12 45 12 79zM310 809l155 -191h-83l-114 132l-114 -132h-83l155 191h84z" />
    <glyph glyph-name="otilde" unicode="&#xf5;" 
d="M481 331v-102c0 -42 -6 -77 -15 -104c-29 -85 -103 -135 -198 -135s-169 50 -198 135c-9 27 -15 62 -15 104v102c0 42 6 77 15 104c29 85 103 135 198 135s169 -50 198 -135c9 -27 15 -62 15 -104zM381 231v98c0 34 -4 60 -12 79c-17 43 -53 66 -101 66s-84 -23 -101 -66
c-8 -19 -12 -45 -12 -79v-98c0 -34 4 -60 12 -79c17 -43 53 -66 101 -66s84 23 101 66c8 19 12 45 12 79zM272 744c44 -31 61 -43 90 -43c22 0 44 17 48 63h61c-6 -85 -46 -137 -113 -137c-27 0 -58 11 -88 33c-44 31 -61 43 -90 43c-22 0 -43 -17 -48 -63h-61
c6 85 46 137 112 137c28 0 58 -11 89 -33z" />
    <glyph glyph-name="odieresis" unicode="&#xf6;" 
d="M481 331v-102c0 -42 -6 -77 -15 -104c-29 -85 -103 -135 -198 -135s-169 50 -198 135c-9 27 -15 62 -15 104v102c0 42 6 77 15 104c29 85 103 135 198 135s169 -50 198 -135c9 -27 15 -62 15 -104zM381 231v98c0 34 -4 60 -12 79c-17 43 -53 66 -101 66s-84 -23 -101 -66
c-8 -19 -12 -45 -12 -79v-98c0 -34 4 -60 12 -79c17 -43 53 -66 101 -66s84 23 101 66c8 19 12 45 12 79zM221 644h-105v111h105v-111zM420 644h-105v111h105v-111z" />
    <glyph glyph-name="divide" unicode="&#xf7;" horiz-adv-x="586" 
d="M348 437h-115v123h115v-123zM348 40h-115v123h115v-123zM556 256h-526v88h526v-88z" />
    <glyph glyph-name="oslash" unicode="&#xf8;" 
d="M453 595l-38 -80c22 -21 39 -48 51 -80c10 -27 15 -60 15 -102v-106c0 -42 -5 -75 -15 -102c-30 -85 -103 -135 -198 -135c-34 0 -65 7 -93 18l-20 -43h-70l37 79c-23 21 -41 48 -52 81c-10 27 -15 60 -15 102v106c0 42 5 75 15 102c30 85 103 135 198 135
c34 0 66 -7 94 -19l21 44h70zM170 145l150 317c-15 7 -33 11 -52 11c-48 0 -84 -23 -101 -66c-8 -19 -12 -43 -12 -77v-100c0 -34 4 -58 15 -85zM381 230v100c0 34 -4 58 -14 83l-150 -316c15 -7 32 -10 51 -10c48 0 84 23 101 66c8 19 12 43 12 77z" />
    <glyph glyph-name="ugrave" unicode="&#xf9;" horiz-adv-x="577" 
d="M259 -10c-93 0 -155 53 -179 143c-7 24 -10 61 -10 91v336h100v-333c0 -32 4 -55 10 -73c15 -44 47 -68 98 -68c50 0 92 36 113 80c8 17 13 36 13 69v325h100v-560h-75l-13 73h-1c-33 -51 -82 -83 -156 -83zM370 627h-71l-173 180h126z" />
    <glyph glyph-name="uacute" unicode="&#xfa;" horiz-adv-x="577" 
d="M259 -10c-93 0 -155 53 -179 143c-7 24 -10 61 -10 91v336h100v-333c0 -32 4 -55 10 -73c15 -44 47 -68 98 -68c50 0 92 36 113 80c8 17 13 36 13 69v325h100v-560h-75l-13 73h-1c-33 -51 -82 -83 -156 -83zM277 627h-71l118 180h126z" />
    <glyph glyph-name="ucircumflex" unicode="&#xfb;" horiz-adv-x="577" 
d="M259 -10c-93 0 -155 53 -179 143c-7 24 -10 61 -10 91v336h100v-333c0 -32 4 -55 10 -73c15 -44 47 -68 98 -68c50 0 92 36 113 80c8 17 13 36 13 69v325h100v-560h-75l-13 73h-1c-33 -51 -82 -83 -156 -83zM330 819l155 -191h-83l-114 132l-114 -132h-83l155 191h84z
" />
    <glyph glyph-name="udieresis" unicode="&#xfc;" horiz-adv-x="577" 
d="M259 -10c-93 0 -155 53 -179 143c-7 24 -10 61 -10 91v336h100v-333c0 -32 4 -55 10 -73c15 -44 47 -68 98 -68c50 0 92 36 113 80c8 17 13 36 13 69v325h100v-560h-75l-13 73h-1c-33 -51 -82 -83 -156 -83zM241 644h-105v111h105v-111zM440 644h-105v111h105v-111z" />
    <glyph glyph-name="yacute" unicode="&#xfd;" horiz-adv-x="508" 
d="M77 -120c54 0 79 33 97 81l30 80l-193 519h107l138 -394h2l135 394h106l-234 -637c-35 -95 -92 -139 -176 -139c-30 0 -57 4 -80 11v95c22 -5 42 -10 68 -10zM263 627h-71l118 180h126z" />
    <glyph glyph-name="thorn" unicode="&#xfe;" horiz-adv-x="566" 
d="M175 325v-87c0 -25 3 -46 8 -62c16 -50 55 -90 114 -90c55 0 90 30 105 76c6 17 9 37 9 69v102c0 32 -4 55 -10 73c-15 44 -48 68 -99 68c-50 0 -93 -36 -114 -80c-8 -17 -13 -36 -13 -69zM75 785h100v-229c0 -25 -1 -58 -1 -58h1c31 43 76 72 142 72
c93 0 160 -53 184 -143c7 -24 10 -61 10 -91v-104c0 -34 -3 -67 -9 -91c-25 -100 -98 -151 -190 -151c-54 0 -105 23 -137 58h-1s1 -33 1 -58v-234h-100v1029z" />
    <glyph glyph-name="ydieresis" unicode="&#xff;" horiz-adv-x="508" 
d="M77 -120c54 0 79 33 97 81l30 80l-193 519h107l138 -394h2l135 394h106l-234 -637c-35 -95 -92 -139 -176 -139c-30 0 -57 4 -80 11v95c22 -5 42 -10 68 -10zM207 644h-105v111h105v-111zM406 644h-105v111h105v-111z" />
    <glyph glyph-name="Amacron" unicode="&#x100;" horiz-adv-x="596" 
d="M453 890v-65h-310v65h310zM386 329l-87 316h-4l-85 -316h176zM414 228h-232l-61 -228h-109l210 750h152l210 -750h-109z" />
    <glyph glyph-name="amacron" unicode="&#x101;" horiz-adv-x="540" 
d="M176 416h-104c19 93 88 154 200 154c136 0 198 -71 198 -200v-370h-71l-12 72h-1c-34 -50 -84 -82 -150 -82c-112 0 -186 69 -186 186c0 104 73 176 199 176h121v27c0 65 -32 100 -99 100c-55 0 -82 -25 -95 -63zM150 177c0 -58 32 -96 100 -96s120 71 120 123v61h-120
c-59 0 -100 -33 -100 -88zM429 710v-65h-310v65h310z" />
    <glyph glyph-name="Abreve" unicode="&#x102;" horiz-adv-x="596" 
d="M386 329l-87 316h-4l-85 -316h176zM414 228h-232l-61 -228h-109l210 750h152l210 -750h-109zM298 803c-99 0 -164 66 -170 167h64c8 -61 50 -99 106 -99s98 38 106 99h64c-6 -101 -71 -167 -170 -167z" />
    <glyph glyph-name="abreve" unicode="&#x103;" horiz-adv-x="540" 
d="M176 416h-104c19 93 88 154 200 154c136 0 198 -71 198 -200v-370h-71l-12 72h-1c-34 -50 -84 -82 -150 -82c-112 0 -186 69 -186 186c0 104 73 176 199 176h121v27c0 65 -32 100 -99 100c-55 0 -82 -25 -95 -63zM150 177c0 -58 32 -96 100 -96s120 71 120 123v61h-120
c-59 0 -100 -33 -100 -88zM270 623c-99 0 -164 66 -170 167h64c8 -61 50 -99 106 -99s98 38 106 99h64c-6 -101 -71 -167 -170 -167z" />
    <glyph glyph-name="Aogonek" unicode="&#x104;" horiz-adv-x="596" 
d="M414 228h-232l-61 -228h-109l210 750h152l210 -750c-43 -12 -77 -31 -95 -45c-31 -25 -48 -52 -48 -82c0 -33 23 -54 60 -54c22 0 45 6 68 18l19 -40c-27 -14 -58 -24 -92 -24c-69 0 -120 32 -122 93c-2 52 34 96 101 133zM386 329l-87 316h-4l-85 -316h176z" />
    <glyph glyph-name="aogonek" unicode="&#x105;" horiz-adv-x="540" 
d="M289 -134c-2 53 36 98 109 137l-11 69h-1c-34 -50 -84 -82 -150 -82c-112 0 -186 69 -186 186c0 104 73 176 199 176h121v27c0 65 -32 100 -99 100c-55 0 -82 -25 -95 -63h-104c19 93 88 154 200 154c136 0 198 -71 198 -200v-370c-73 -45 -114 -80 -114 -127
c0 -33 23 -54 60 -54c22 0 45 6 68 18l19 -40c-27 -14 -58 -24 -92 -24c-69 0 -120 32 -122 93zM150 177c0 -58 32 -96 100 -96s120 71 120 123v61h-120c-59 0 -100 -33 -100 -88z" />
    <glyph glyph-name="Cacute" unicode="&#x106;" horiz-adv-x="596" 
d="M431 162c9 21 14 49 14 82h107c-1 -47 -7 -82 -18 -111c-37 -93 -128 -143 -222 -143h-8c-93 0 -183 51 -221 143c-12 30 -18 66 -18 114v256c0 48 6 84 18 114c38 92 128 143 221 143h8c94 0 185 -51 222 -143c11 -28 17 -62 18 -105h-107c-1 30 -5 56 -14 76
c-23 50 -72 70 -119 70h-8c-47 0 -96 -20 -119 -70c-10 -22 -14 -51 -14 -85v-256c0 -34 4 -63 14 -85c23 -50 72 -69 119 -69h8c47 0 96 19 119 69zM277 807h-71l118 180h126z" />
    <glyph glyph-name="cacute" unicode="&#x107;" horiz-adv-x="523" 
d="M369 150c3 7 6 16 8 26h102c-3 -20 -7 -38 -12 -53c-29 -85 -103 -133 -199 -133c-95 0 -169 50 -198 135c-9 27 -15 62 -15 104v102c0 42 6 77 15 104c29 85 103 135 198 135c96 0 170 -48 199 -133c6 -18 10 -39 13 -63h-102c-2 14 -5 26 -9 36c-17 43 -53 64 -101 64
s-84 -23 -101 -66c-8 -19 -12 -45 -12 -79v-98c0 -34 4 -60 12 -79c17 -43 53 -66 101 -66s84 21 101 64zM235 627h-71l118 180h126z" />
    <glyph glyph-name="Ccircumflex" unicode="&#x108;" horiz-adv-x="596" 
d="M431 162c9 21 14 49 14 82h107c-1 -47 -7 -82 -18 -111c-37 -93 -128 -143 -222 -143h-8c-93 0 -183 51 -221 143c-12 30 -18 66 -18 114v256c0 48 6 84 18 114c38 92 128 143 221 143h8c94 0 185 -51 222 -143c11 -28 17 -62 18 -105h-107c-1 30 -5 56 -14 76
c-23 50 -72 70 -119 70h-8c-47 0 -96 -20 -119 -70c-10 -22 -14 -51 -14 -85v-256c0 -34 4 -63 14 -85c23 -50 72 -69 119 -69h8c47 0 96 19 119 69zM350 999l155 -191h-83l-114 132l-114 -132h-83l155 191h84z" />
    <glyph glyph-name="ccircumflex" unicode="&#x109;" horiz-adv-x="523" 
d="M369 150c3 7 6 16 8 26h102c-3 -20 -7 -38 -12 -53c-29 -85 -103 -133 -199 -133c-95 0 -169 50 -198 135c-9 27 -15 62 -15 104v102c0 42 6 77 15 104c29 85 103 135 198 135c96 0 170 -48 199 -133c6 -18 10 -39 13 -63h-102c-2 14 -5 26 -9 36c-17 43 -53 64 -101 64
s-84 -23 -101 -66c-8 -19 -12 -45 -12 -79v-98c0 -34 4 -60 12 -79c17 -43 53 -66 101 -66s84 21 101 64zM313 819l155 -191h-83l-114 132l-114 -132h-83l155 191h84z" />
    <glyph glyph-name="Cdotaccent" unicode="&#x10a;" horiz-adv-x="596" 
d="M431 162c9 21 14 49 14 82h107c-1 -47 -7 -82 -18 -111c-37 -93 -128 -143 -222 -143h-8c-93 0 -183 51 -221 143c-12 30 -18 66 -18 114v256c0 48 6 84 18 114c38 92 128 143 221 143h8c94 0 185 -51 222 -143c11 -28 17 -62 18 -105h-107c-1 30 -5 56 -14 76
c-23 50 -72 70 -119 70h-8c-47 0 -96 -20 -119 -70c-10 -22 -14 -51 -14 -85v-256c0 -34 4 -63 14 -85c23 -50 72 -69 119 -69h8c47 0 96 19 119 69zM363 823h-111v114h111v-114z" />
    <glyph glyph-name="cdotaccent" unicode="&#x10b;" horiz-adv-x="523" 
d="M369 150c3 7 6 16 8 26h102c-3 -20 -7 -38 -12 -53c-29 -85 -103 -133 -199 -133c-95 0 -169 50 -198 135c-9 27 -15 62 -15 104v102c0 42 6 77 15 104c29 85 103 135 198 135c96 0 170 -48 199 -133c6 -18 10 -39 13 -63h-102c-2 14 -5 26 -9 36c-17 43 -53 64 -101 64
s-84 -23 -101 -66c-8 -19 -12 -45 -12 -79v-98c0 -34 4 -60 12 -79c17 -43 53 -66 101 -66s84 21 101 64zM317 643h-111v114h111v-114z" />
    <glyph glyph-name="Ccaron" unicode="&#x10c;" horiz-adv-x="596" 
d="M431 162c9 21 14 49 14 82h107c-1 -47 -7 -82 -18 -111c-37 -93 -128 -143 -222 -143h-8c-93 0 -183 51 -221 143c-12 30 -18 66 -18 114v256c0 48 6 84 18 114c38 92 128 143 221 143h8c94 0 185 -51 222 -143c11 -28 17 -62 18 -105h-107c-1 30 -5 56 -14 76
c-23 50 -72 70 -119 70h-8c-47 0 -96 -20 -119 -70c-10 -22 -14 -51 -14 -85v-256c0 -34 4 -63 14 -85c23 -50 72 -69 119 -69h8c47 0 96 19 119 69zM505 999l-155 -191h-84l-155 191h83l114 -132l114 132h83z" />
    <glyph glyph-name="ccaron" unicode="&#x10d;" horiz-adv-x="523" 
d="M369 150c3 7 6 16 8 26h102c-3 -20 -7 -38 -12 -53c-29 -85 -103 -133 -199 -133c-95 0 -169 50 -198 135c-9 27 -15 62 -15 104v102c0 42 6 77 15 104c29 85 103 135 198 135c96 0 170 -48 199 -133c6 -18 10 -39 13 -63h-102c-2 14 -5 26 -9 36c-17 43 -53 64 -101 64
s-84 -23 -101 -66c-8 -19 -12 -45 -12 -79v-98c0 -34 4 -60 12 -79c17 -43 53 -66 101 -66s84 21 101 64zM458 819l-155 -191h-84l-155 191h83l114 -132l114 132h83z" />
    <glyph glyph-name="Dcaron" unicode="&#x10e;" horiz-adv-x="618" 
d="M182 103h122c67 0 106 20 129 70c10 22 14 50 14 84v236c0 34 -4 62 -14 84c-23 50 -62 70 -129 70h-122v-544zM304 0h-228v750h228c113 0 193 -50 231 -142c12 -30 18 -67 18 -115v-236c0 -48 -6 -85 -18 -115c-38 -92 -118 -142 -231 -142zM485 999l-155 -191h-84
l-155 191h83l114 -132l114 132h83z" />
    <glyph glyph-name="dcaron" unicode="&#x10f;" horiz-adv-x="644" 
d="M391 235v87c0 25 -3 46 -8 62c-16 50 -55 90 -114 90c-55 0 -90 -30 -105 -76c-6 -17 -9 -37 -9 -69v-102c0 -32 4 -55 10 -73c15 -44 48 -68 99 -68c50 0 93 36 114 80c8 17 13 36 13 69zM254 570c54 0 105 -23 137 -58h1s-1 33 -1 58v215h100v-785h-75l-13 73h-1
c-33 -51 -83 -83 -153 -83c-93 0 -160 53 -184 143c-7 24 -10 61 -10 91v104c0 34 3 67 9 91c25 100 98 151 190 151zM561 680v105h107v-78c0 -13 -1 -29 -3 -42c-8 -51 -42 -96 -112 -106v40c48 16 60 49 60 71c0 7 -4 10 -9 10h-43z" />
    <glyph glyph-name="Dcroat" unicode="&#x110;" horiz-adv-x="665" 
d="M352 647h-123v-214h148v-76h-148v-254h123c67 0 106 20 129 70c10 22 14 50 14 84v236c0 34 -4 62 -14 84c-23 50 -62 70 -129 70zM352 0h-229v357h-108v76h108v317h229c113 0 193 -50 231 -142c12 -30 18 -67 18 -115v-236c0 -48 -6 -85 -18 -115
c-38 -92 -118 -142 -231 -142z" />
    <glyph glyph-name="dcroat" unicode="&#x111;" horiz-adv-x="575" 
d="M254 570c54 0 105 -23 137 -58h1s-1 33 -1 58v73h-172v70h172v72h100v-72h94v-70h-94v-643h-75l-13 73h-1c-33 -51 -83 -83 -153 -83c-93 0 -160 53 -184 143c-7 24 -10 61 -10 91v104c0 34 3 67 9 91c25 100 98 151 190 151zM391 235v87c0 25 -3 46 -8 62
c-16 50 -55 90 -114 90c-55 0 -90 -30 -105 -76c-6 -17 -9 -37 -9 -69v-102c0 -32 4 -55 10 -73c15 -44 48 -68 99 -68c50 0 93 36 114 80c8 17 13 36 13 69z" />
    <glyph glyph-name="Emacron" unicode="&#x112;" horiz-adv-x="555" 
d="M76 0v750h439v-103h-333v-211h275v-103h-275v-230h333v-103h-439zM450 890v-65h-310v65h310z" />
    <glyph glyph-name="emacron" unicode="&#x113;" 
d="M269 570c95 0 169 -50 198 -135c9 -27 15 -62 15 -104v-74h-327v-34c0 -86 43 -142 113 -142c53 0 93 31 109 85h103c-23 -115 -105 -176 -212 -176c-95 0 -169 50 -198 135c-9 27 -15 62 -15 104v102c0 42 6 77 15 104c29 85 104 135 199 135zM167 413
c-7 -17 -11 -38 -12 -66h228c-1 28 -5 49 -12 66c-17 43 -54 66 -102 66s-85 -23 -102 -66zM425 710v-65h-310v65h310z" />
    <glyph glyph-name="Ebreve" unicode="&#x114;" horiz-adv-x="555" 
d="M76 0v750h439v-103h-333v-211h275v-103h-275v-230h333v-103h-439zM289 803c-99 0 -164 66 -170 167h64c8 -61 50 -99 106 -99s98 38 106 99h64c-6 -101 -71 -167 -170 -167z" />
    <glyph glyph-name="ebreve" unicode="&#x115;" 
d="M269 570c95 0 169 -50 198 -135c9 -27 15 -62 15 -104v-74h-327v-34c0 -86 43 -142 113 -142c53 0 93 31 109 85h103c-23 -115 -105 -176 -212 -176c-95 0 -169 50 -198 135c-9 27 -15 62 -15 104v102c0 42 6 77 15 104c29 85 104 135 199 135zM167 413
c-7 -17 -11 -38 -12 -66h228c-1 28 -5 49 -12 66c-17 43 -54 66 -102 66s-85 -23 -102 -66zM268 623c-99 0 -164 66 -170 167h64c8 -61 50 -99 106 -99s98 38 106 99h64c-6 -101 -71 -167 -170 -167z" />
    <glyph glyph-name="Edotaccent" unicode="&#x116;" horiz-adv-x="555" 
d="M76 0v750h439v-103h-333v-211h275v-103h-275v-230h333v-103h-439zM355 823h-111v114h111v-114z" />
    <glyph glyph-name="edotaccent" unicode="&#x117;" 
d="M269 570c95 0 169 -50 198 -135c9 -27 15 -62 15 -104v-74h-327v-34c0 -86 43 -142 113 -142c53 0 93 31 109 85h103c-23 -115 -105 -176 -212 -176c-95 0 -169 50 -198 135c-9 27 -15 62 -15 104v102c0 42 6 77 15 104c29 85 104 135 199 135zM167 413
c-7 -17 -11 -38 -12 -66h228c-1 28 -5 49 -12 66c-17 43 -54 66 -102 66s-85 -23 -102 -66zM323 643h-111v114h111v-114z" />
    <glyph glyph-name="Eogonek" unicode="&#x118;" horiz-adv-x="555" 
d="M76 0v750h439v-103h-333v-211h275v-103h-275v-230h333v-103c-20 0 -38 -6 -58 -20c-53 -37 -83 -67 -83 -107c0 -33 23 -54 60 -54c22 0 45 6 68 18l19 -40c-27 -14 -58 -24 -92 -24c-69 0 -120 32 -122 93c-2 53 35 97 104 134h-335z" />
    <glyph glyph-name="eogonek" unicode="&#x119;" 
d="M269 570c95 0 169 -50 198 -135c9 -27 15 -62 15 -104v-74h-327v-34c0 -86 43 -142 113 -142c53 0 93 31 109 85h103c-14 -67 -46 -114 -93 -144c-104 -66 -145 -102 -145 -149c0 -33 23 -54 60 -54c22 0 45 6 68 18l19 -40c-27 -14 -58 -24 -92 -24
c-69 0 -120 32 -122 93c-2 48 29 89 87 124c-92 2 -164 52 -192 135c-9 27 -15 62 -15 104v102c0 42 6 77 15 104c29 85 104 135 199 135zM167 413c-7 -17 -11 -38 -12 -66h228c-1 28 -5 49 -12 66c-17 43 -54 66 -102 66s-85 -23 -102 -66z" />
    <glyph glyph-name="Ecaron" unicode="&#x11a;" horiz-adv-x="555" 
d="M76 0v750h439v-103h-333v-211h275v-103h-275v-230h333v-103h-439zM494 999l-155 -191h-84l-155 191h83l114 -132l114 132h83z" />
    <glyph glyph-name="ecaron" unicode="&#x11b;" 
d="M269 570c95 0 169 -50 198 -135c9 -27 15 -62 15 -104v-74h-327v-34c0 -86 43 -142 113 -142c53 0 93 31 109 85h103c-23 -115 -105 -176 -212 -176c-95 0 -169 50 -198 135c-9 27 -15 62 -15 104v102c0 42 6 77 15 104c29 85 104 135 199 135zM167 413
c-7 -17 -11 -38 -12 -66h228c-1 28 -5 49 -12 66c-17 43 -54 66 -102 66s-85 -23 -102 -66zM467 819l-155 -191h-84l-155 191h83l114 -132l114 132h83z" />
    <glyph glyph-name="Gcircumflex" unicode="&#x11c;" horiz-adv-x="619" 
d="M304 92h8c68 0 135 38 135 161v26h-139v100h243v-379h-51l-25 75c-40 -55 -102 -85 -169 -85h-7c-93 0 -179 50 -216 143c-12 30 -18 66 -18 114v256c0 48 6 84 18 114c38 92 128 143 221 143h8c94 0 188 -50 222 -143c10 -27 16 -58 18 -96h-108c-2 25 -6 47 -14 66
c-22 50 -71 71 -118 71h-8c-47 0 -96 -20 -119 -70c-10 -22 -14 -51 -14 -85v-256c0 -34 5 -63 15 -85c23 -50 71 -70 118 -70zM350 999l155 -191h-83l-114 132l-114 -132h-83l155 191h84z" />
    <glyph glyph-name="gcircumflex" unicode="&#x11d;" horiz-adv-x="564" 
d="M391 245v77c0 25 -3 46 -8 62c-16 50 -55 90 -114 90c-55 0 -90 -30 -105 -76c-6 -17 -9 -37 -9 -69v-92c0 -32 4 -55 10 -73c15 -44 48 -68 99 -68c50 0 93 36 114 80c8 17 13 36 13 69zM278 -144c48 0 84 24 101 67c8 19 12 45 12 79v12c0 25 1 58 1 58h-1
c-31 -43 -76 -72 -142 -72c-93 0 -160 53 -184 143c-7 24 -10 61 -10 91v94c0 34 3 67 9 91c25 100 98 151 190 151c61 0 118 -29 151 -76h1l10 66h75v-559c0 -42 -6 -77 -15 -104c-29 -85 -104 -135 -199 -135c-108 0 -190 57 -213 170h105c17 -54 55 -76 109 -76zM324 819
l155 -191h-83l-114 132l-114 -132h-83l155 191h84z" />
    <glyph glyph-name="Gbreve" unicode="&#x11e;" horiz-adv-x="619" 
d="M304 92h8c68 0 135 38 135 161v26h-139v100h243v-379h-51l-25 75c-40 -55 -102 -85 -169 -85h-7c-93 0 -179 50 -216 143c-12 30 -18 66 -18 114v256c0 48 6 84 18 114c38 92 128 143 221 143h8c94 0 188 -50 222 -143c10 -27 16 -58 18 -96h-108c-2 25 -6 47 -14 66
c-22 50 -71 71 -118 71h-8c-47 0 -96 -20 -119 -70c-10 -22 -14 -51 -14 -85v-256c0 -34 5 -63 15 -85c23 -50 71 -70 118 -70zM307 803c-99 0 -164 66 -170 167h64c8 -61 50 -99 106 -99s98 38 106 99h64c-6 -101 -71 -167 -170 -167z" />
    <glyph glyph-name="gbreve" unicode="&#x11f;" horiz-adv-x="564" 
d="M391 245v77c0 25 -3 46 -8 62c-16 50 -55 90 -114 90c-55 0 -90 -30 -105 -76c-6 -17 -9 -37 -9 -69v-92c0 -32 4 -55 10 -73c15 -44 48 -68 99 -68c50 0 93 36 114 80c8 17 13 36 13 69zM278 -144c48 0 84 24 101 67c8 19 12 45 12 79v12c0 25 1 58 1 58h-1
c-31 -43 -76 -72 -142 -72c-93 0 -160 53 -184 143c-7 24 -10 61 -10 91v94c0 34 3 67 9 91c25 100 98 151 190 151c61 0 118 -29 151 -76h1l10 66h75v-559c0 -42 -6 -77 -15 -104c-29 -85 -104 -135 -199 -135c-108 0 -190 57 -213 170h105c17 -54 55 -76 109 -76zM279 623
c-99 0 -164 66 -170 167h64c8 -61 50 -99 106 -99s98 38 106 99h64c-6 -101 -71 -167 -170 -167z" />
    <glyph glyph-name="Gdotaccent" unicode="&#x120;" horiz-adv-x="619" 
d="M304 92h8c68 0 135 38 135 161v26h-139v100h243v-379h-51l-25 75c-40 -55 -102 -85 -169 -85h-7c-93 0 -179 50 -216 143c-12 30 -18 66 -18 114v256c0 48 6 84 18 114c38 92 128 143 221 143h8c94 0 188 -50 222 -143c10 -27 16 -58 18 -96h-108c-2 25 -6 47 -14 66
c-22 50 -71 71 -118 71h-8c-47 0 -96 -20 -119 -70c-10 -22 -14 -51 -14 -85v-256c0 -34 5 -63 15 -85c23 -50 71 -70 118 -70zM365 823h-111v114h111v-114z" />
    <glyph glyph-name="gdotaccent" unicode="&#x121;" horiz-adv-x="564" 
d="M391 245v77c0 25 -3 46 -8 62c-16 50 -55 90 -114 90c-55 0 -90 -30 -105 -76c-6 -17 -9 -37 -9 -69v-92c0 -32 4 -55 10 -73c15 -44 48 -68 99 -68c50 0 93 36 114 80c8 17 13 36 13 69zM278 -144c48 0 84 24 101 67c8 19 12 45 12 79v12c0 25 1 58 1 58h-1
c-31 -43 -76 -72 -142 -72c-93 0 -160 53 -184 143c-7 24 -10 61 -10 91v94c0 34 3 67 9 91c25 100 98 151 190 151c61 0 118 -29 151 -76h1l10 66h75v-559c0 -42 -6 -77 -15 -104c-29 -85 -104 -135 -199 -135c-108 0 -190 57 -213 170h105c17 -54 55 -76 109 -76zM332 643
h-111v114h111v-114z" />
    <glyph glyph-name="Gcommaaccent" unicode="&#x122;" horiz-adv-x="619" 
d="M304 92h8c68 0 135 38 135 161v26h-139v100h243v-379h-51l-25 75c-40 -55 -102 -85 -169 -85h-7c-93 0 -179 50 -216 143c-12 30 -18 66 -18 114v256c0 48 6 84 18 114c38 92 128 143 221 143h8c94 0 188 -50 222 -143c10 -27 16 -58 18 -96h-108c-2 25 -6 47 -14 66
c-22 50 -71 71 -118 71h-8c-47 0 -96 -20 -119 -70c-10 -22 -14 -51 -14 -85v-256c0 -34 5 -63 15 -85c23 -50 71 -70 118 -70zM259 -155v105h107v-78c0 -13 -1 -29 -3 -42c-8 -51 -42 -96 -112 -106v40c48 16 60 49 60 71c0 7 -4 10 -9 10h-43z" />
    <glyph glyph-name="gcommaaccent" unicode="&#x123;" horiz-adv-x="564" 
d="M327 746v-105h-107v78c0 13 1 29 3 42c8 51 42 96 112 106v-40c-48 -16 -60 -49 -60 -71c0 -7 4 -10 9 -10h43zM391 245v77c0 25 -3 46 -8 62c-16 50 -55 90 -114 90c-55 0 -90 -30 -105 -76c-6 -17 -9 -37 -9 -69v-92c0 -32 4 -55 10 -73c15 -44 48 -68 99 -68
c50 0 93 36 114 80c8 17 13 36 13 69zM278 -144c48 0 84 24 101 67c8 19 12 45 12 79v12c0 25 1 58 1 58h-1c-31 -43 -76 -72 -142 -72c-93 0 -160 53 -184 143c-7 24 -10 61 -10 91v94c0 34 3 67 9 91c25 100 98 151 190 151c61 0 118 -29 151 -76h1l10 66h75v-559
c0 -42 -6 -77 -15 -104c-29 -85 -104 -135 -199 -135c-108 0 -190 57 -213 170h105c17 -54 55 -76 109 -76z" />
    <glyph glyph-name="Hcircumflex" unicode="&#x124;" horiz-adv-x="649" 
d="M76 0v750h106v-308h285v308h106v-750h-106v339h-285v-339h-106zM366 1009l155 -191h-83l-114 132l-114 -132h-83l155 191h84z" />
    <glyph glyph-name="hcircumflex" unicode="&#x125;" horiz-adv-x="579" 
d="M509 0h-100v333c0 32 -4 55 -10 73c-15 44 -48 68 -99 68c-50 0 -93 -36 -114 -80c-8 -17 -13 -36 -13 -69v-325h-100v785h100v-229c0 -25 -1 -58 -1 -58h1c31 43 80 72 146 72c93 0 156 -53 180 -143c7 -24 10 -61 10 -91v-336zM331 1019l155 -191h-83l-114 132
l-114 -132h-83l155 191h84z" />
    <glyph glyph-name="Hbar" unicode="&#x126;" horiz-adv-x="665" 
d="M84 0v560h-94v70h94v120h106v-120h285v120h106v-120h94v-70h-94v-560h-106v339h-285v-339h-106zM190 442h285v118h-285v-118z" />
    <glyph glyph-name="hbar" unicode="&#x127;" horiz-adv-x="590" 
d="M520 0h-100v333c0 32 -4 55 -10 73c-15 44 -48 68 -99 68c-50 0 -93 -36 -114 -80c-8 -17 -13 -36 -13 -69v-325h-100v643h-94v70h94v72h100v-72h172v-70h-172v-87c0 -25 -1 -58 -1 -58h1c31 43 80 72 146 72c93 0 156 -53 180 -143c7 -24 10 -61 10 -91v-336z" />
    <glyph glyph-name="Itilde" unicode="&#x128;" horiz-adv-x="258" 
d="M76 0v750h106v-750h-106zM133 924c44 -31 61 -43 90 -43c22 0 44 17 48 63h61c-6 -85 -46 -137 -113 -137c-27 0 -58 11 -88 33c-44 31 -61 43 -90 43c-22 0 -43 -17 -48 -63h-61c6 85 46 137 112 137c28 0 58 -11 89 -33z" />
    <glyph glyph-name="itilde" unicode="&#x129;" horiz-adv-x="246" 
d="M73 0v560h100v-560h-100zM126 744c44 -31 61 -43 90 -43c22 0 44 17 48 63h61c-6 -85 -46 -137 -113 -137c-27 0 -58 11 -88 33c-44 31 -61 43 -90 43c-22 0 -43 -17 -48 -63h-61c6 85 46 137 112 137c28 0 58 -11 89 -33z" />
    <glyph glyph-name="uni012A" unicode="&#x12a;" horiz-adv-x="258" 
d="M76 0v750h106v-750h-106zM284 890v-65h-310v65h310z" />
    <glyph glyph-name="imacron" unicode="&#x12b;" horiz-adv-x="246" 
d="M73 0v560h100v-560h-100zM278 710v-65h-310v65h310z" />
    <glyph glyph-name="Ibreve" unicode="&#x12c;" horiz-adv-x="258" 
d="M76 0v750h106v-750h-106zM129 803c-99 0 -164 66 -170 167h64c8 -61 50 -99 106 -99s98 38 106 99h64c-6 -101 -71 -167 -170 -167z" />
    <glyph glyph-name="uni012D" unicode="&#x12d;" horiz-adv-x="246" 
d="M73 0v560h100v-560h-100zM123 623c-99 0 -164 66 -170 167h64c8 -61 50 -99 106 -99s98 38 106 99h64c-6 -101 -71 -167 -170 -167z" />
    <glyph glyph-name="Iogonek" unicode="&#x12e;" horiz-adv-x="258" 
d="M2 -134c-2 45 24 81 74 114v770h106v-750c-71 -46 -113 -80 -113 -127c0 -33 23 -54 60 -54c22 0 45 6 68 18l19 -40c-27 -14 -58 -24 -92 -24c-69 0 -120 32 -122 93z" />
    <glyph glyph-name="iogonek" unicode="&#x12f;" horiz-adv-x="246" 
d="M-7 -134c-1 46 27 83 80 116v578h100v-560c-71 -46 -113 -80 -113 -127c0 -33 23 -54 60 -54c22 0 45 6 68 18l19 -40c-27 -14 -58 -24 -92 -24c-69 0 -120 32 -122 93zM70 647v113h106v-113h-106z" />
    <glyph glyph-name="Idotaccent" unicode="&#x130;" horiz-adv-x="258" 
d="M76 0v750h106v-750h-106zM185 823h-111v114h111v-114z" />
    <glyph glyph-name="dotlessi" unicode="&#x131;" horiz-adv-x="246" 
d="M73 0v560h100v-560h-100z" />
    <glyph glyph-name="IJ" unicode="&#x132;" horiz-adv-x="793" 
d="M76 0v750h106v-750h-106zM399 271v-49c0 -31 7 -58 18 -77c19 -33 52 -53 90 -53s71 20 90 53c11 19 18 47 18 78v527h106v-522c0 -47 -8 -84 -21 -115c-33 -75 -102 -123 -193 -123s-160 48 -193 123c-13 31 -21 67 -21 114v44h106z" />
    <glyph glyph-name="ij" unicode="&#x133;" horiz-adv-x="501" 
d="M73 0v560h100v-560h-100zM70 647v113h106v-113h-106zM328 -33v593h100v-594c0 -142 -79 -203 -197 -203c-17 0 -35 1 -45 2v96c12 -1 27 -2 38 -2c71 0 104 24 104 108zM325 647v113h106v-113h-106z" />
    <glyph glyph-name="Jcircumflex" unicode="&#x134;" horiz-adv-x="545" 
d="M151 271v-49c0 -31 7 -58 18 -77c19 -33 52 -53 90 -53s71 20 90 53c11 19 18 47 18 78v527h106v-522c0 -47 -8 -84 -21 -115c-33 -75 -102 -123 -193 -123s-160 48 -193 123c-13 31 -21 67 -21 114v44h106zM462 999l155 -191h-83l-114 132l-114 -132h-83l155 191h84z
" />
    <glyph glyph-name="jcircumflex" unicode="&#x135;" horiz-adv-x="255" 
d="M82 -33v593h100v-594c0 -142 -79 -203 -197 -203c-17 0 -35 1 -45 2v96c12 -1 27 -2 38 -2c71 0 104 24 104 108zM170 819l155 -191h-83l-114 132l-114 -132h-83l155 191h84z" />
    <glyph glyph-name="Kcommaaccent" unicode="&#x136;" horiz-adv-x="627" 
d="M620 0h-124l-208 382l-106 -132v-250h-106v750h106v-350l1 -1s19 24 35 44l252 307h130l-237 -283zM266 -155v105h107v-78c0 -13 -1 -29 -3 -42c-8 -51 -42 -96 -112 -106v40c48 16 60 49 60 71c0 7 -4 10 -9 10h-43z" />
    <glyph glyph-name="kcommaaccent" unicode="&#x137;" horiz-adv-x="526" 
d="M173 217v-217h-100v785h100v-441l203 216h130l-199 -202l211 -358h-120l-162 283zM225 -155v105h107v-78c0 -13 -1 -29 -3 -42c-8 -51 -42 -96 -112 -106v40c48 16 60 49 60 71c0 7 -4 10 -9 10h-43z" />
    <glyph glyph-name="kgreenlandic" unicode="&#x138;" horiz-adv-x="526" 
d="M173 217v-217h-100v560h100v-216l203 216h130l-199 -202l211 -358h-120l-162 283z" />
    <glyph glyph-name="Lacute" unicode="&#x139;" horiz-adv-x="547" 
d="M76 0v750h106v-647h335v-103h-441zM151 807h-71l118 180h126z" />
    <glyph glyph-name="lacute" unicode="&#x13a;" horiz-adv-x="246" 
d="M73 0v785h100v-785h-100zM148 837h-71l118 180h126z" />
    <glyph glyph-name="Lcommaaccent" unicode="&#x13b;" horiz-adv-x="547" 
d="M76 0v750h106v-647h335v-103h-441zM256 -155v105h107v-78c0 -13 -1 -29 -3 -42c-8 -51 -42 -96 -112 -106v40c48 16 60 49 60 71c0 7 -4 10 -9 10h-43z" />
    <glyph glyph-name="lcommaaccent" unicode="&#x13c;" horiz-adv-x="246" 
d="M73 0v785h100v-785h-100zM70 -155v105h107v-78c0 -13 -1 -29 -3 -42c-8 -51 -42 -96 -112 -106v40c48 16 60 49 60 71c0 7 -4 10 -9 10h-43z" />
    <glyph glyph-name="Lcaron" unicode="&#x13d;" horiz-adv-x="547" 
d="M76 0v750h106v-647h335v-103h-441zM353 680v105h107v-78c0 -13 -1 -29 -3 -42c-8 -51 -42 -96 -112 -106v40c48 16 60 49 60 71c0 7 -4 10 -9 10h-43z" />
    <glyph glyph-name="lcaron" unicode="&#x13e;" horiz-adv-x="326" 
d="M73 0v785h100v-785h-100zM243 680v105h107v-78c0 -13 -1 -29 -3 -42c-8 -51 -42 -96 -112 -106v40c48 16 60 49 60 71c0 7 -4 10 -9 10h-43z" />
    <glyph glyph-name="Ldot" unicode="&#x13f;" horiz-adv-x="547" 
d="M76 0v750h106v-647h335v-103h-441zM465 348h-111v114h111v-114z" />
    <glyph glyph-name="ldot" unicode="&#x140;" horiz-adv-x="375" 
d="M73 0v785h100v-785h-100zM365 348h-111v114h111v-114z" />
    <glyph glyph-name="Lslash" unicode="&#x141;" horiz-adv-x="595" 
d="M406 543v-88l-176 -102v-250h335v-103h-441v292l-109 -63v88l109 63v370h106v-309z" />
    <glyph glyph-name="lslash" unicode="&#x142;" horiz-adv-x="354" 
d="M127 0v341l-112 -79v86l112 79v358h100v-288l112 79v-86l-112 -79v-411h-100z" />
    <glyph glyph-name="Nacute" unicode="&#x143;" horiz-adv-x="648" 
d="M178 569h-1s1 -33 1 -58v-511h-102v750h126l268 -569h1s-1 33 -1 58v511h102v-750h-127zM316 807h-71l118 180h126z" />
    <glyph glyph-name="nacute" unicode="&#x144;" horiz-adv-x="579" 
d="M319 570c93 0 156 -53 180 -143c7 -24 10 -61 10 -91v-336h-100v333c0 32 -4 55 -10 73c-15 44 -48 68 -99 68c-50 0 -93 -36 -114 -80c-8 -17 -13 -36 -13 -69v-325h-100v560h75l13 -73h1c33 51 83 83 157 83zM258 627h-71l118 180h126z" />
    <glyph glyph-name="Ncommaaccent" unicode="&#x145;" horiz-adv-x="648" 
d="M178 569h-1s1 -33 1 -58v-511h-102v750h126l268 -569h1s-1 33 -1 58v511h102v-750h-127zM262 -155v105h107v-78c0 -13 -1 -29 -3 -42c-8 -51 -42 -96 -112 -106v40c48 16 60 49 60 71c0 7 -4 10 -9 10h-43z" />
    <glyph glyph-name="ncommaaccent" unicode="&#x146;" horiz-adv-x="579" 
d="M319 570c93 0 156 -53 180 -143c7 -24 10 -61 10 -91v-336h-100v333c0 32 -4 55 -10 73c-15 44 -48 68 -99 68c-50 0 -93 -36 -114 -80c-8 -17 -13 -36 -13 -69v-325h-100v560h75l13 -73h1c33 51 83 83 157 83zM239 -155v105h107v-78c0 -13 -1 -29 -3 -42
c-8 -51 -42 -96 -112 -106v40c48 16 60 49 60 71c0 7 -4 10 -9 10h-43z" />
    <glyph glyph-name="Ncaron" unicode="&#x147;" horiz-adv-x="648" 
d="M178 569h-1s1 -33 1 -58v-511h-102v750h126l268 -569h1s-1 33 -1 58v511h102v-750h-127zM521 999l-155 -191h-84l-155 191h83l114 -132l114 132h83z" />
    <glyph glyph-name="ncaron" unicode="&#x148;" horiz-adv-x="579" 
d="M319 570c93 0 156 -53 180 -143c7 -24 10 -61 10 -91v-336h-100v333c0 32 -4 55 -10 73c-15 44 -48 68 -99 68c-50 0 -93 -36 -114 -80c-8 -17 -13 -36 -13 -69v-325h-100v560h75l13 -73h1c33 51 83 83 157 83zM486 819l-155 -191h-84l-155 191h83l114 -132l114 132h83z
" />
    <glyph glyph-name="napostrophe" unicode="&#x149;" horiz-adv-x="671" 
d="M411 570c93 0 156 -53 180 -143c7 -24 10 -61 10 -91v-336h-100v333c0 32 -4 55 -10 73c-15 44 -48 68 -99 68c-50 0 -93 -36 -114 -80c-8 -17 -13 -36 -13 -69v-325h-100v560h75l13 -73h1c33 51 83 83 157 83zM18 680v105h107v-78c0 -13 -1 -29 -3 -42
c-8 -51 -42 -96 -112 -106v40c48 16 60 49 60 71c0 7 -4 10 -9 10h-43z" />
    <glyph glyph-name="Eng" unicode="&#x14a;" horiz-adv-x="648" 
d="M178 569h-1s1 -33 1 -58v-511h-102v750h126l268 -569h1s-1 33 -1 58v511h102v-784c0 -142 -79 -203 -197 -203c-17 0 -35 1 -45 2v96c12 -1 27 -2 38 -2c71 0 106 24 106 108v33h-29z" />
    <glyph glyph-name="eng" unicode="&#x14b;" horiz-adv-x="579" 
d="M409 -33v366c0 32 -4 55 -10 73c-15 44 -48 68 -99 68c-50 0 -93 -36 -114 -80c-8 -17 -13 -36 -13 -69v-325h-100v560h75l13 -73h1c33 51 83 83 157 83c93 0 156 -53 180 -143c7 -24 10 -61 10 -91v-370c0 -142 -79 -203 -197 -203c-17 0 -35 1 -45 2v96
c12 -1 27 -2 38 -2c71 0 104 24 104 108z" />
    <glyph glyph-name="Omacron" unicode="&#x14c;" horiz-adv-x="616" 
d="M445 247v256c0 34 -4 64 -14 86c-23 50 -72 69 -119 69h-8c-47 0 -96 -19 -119 -69c-10 -22 -14 -52 -14 -86v-256c0 -34 4 -64 14 -86c23 -50 72 -69 119 -69h8c47 0 96 19 119 69c10 22 14 52 14 86zM65 247v256c0 48 6 84 18 114c38 92 128 143 221 143h8
c93 0 183 -51 221 -143c12 -30 18 -66 18 -114v-256c0 -48 -6 -84 -18 -114c-38 -92 -128 -143 -221 -143h-8c-93 0 -183 51 -221 143c-12 30 -18 66 -18 114zM463 890v-65h-310v65h310z" />
    <glyph glyph-name="omacron" unicode="&#x14d;" 
d="M481 331v-102c0 -42 -6 -77 -15 -104c-29 -85 -103 -135 -198 -135s-169 50 -198 135c-9 27 -15 62 -15 104v102c0 42 6 77 15 104c29 85 103 135 198 135s169 -50 198 -135c9 -27 15 -62 15 -104zM381 231v98c0 34 -4 60 -12 79c-17 43 -53 66 -101 66s-84 -23 -101 -66
c-8 -19 -12 -45 -12 -79v-98c0 -34 4 -60 12 -79c17 -43 53 -66 101 -66s84 23 101 66c8 19 12 45 12 79zM423 710v-65h-310v65h310z" />
    <glyph glyph-name="Obreve" unicode="&#x14e;" horiz-adv-x="616" 
d="M445 247v256c0 34 -4 64 -14 86c-23 50 -72 69 -119 69h-8c-47 0 -96 -19 -119 -69c-10 -22 -14 -52 -14 -86v-256c0 -34 4 -64 14 -86c23 -50 72 -69 119 -69h8c47 0 96 19 119 69c10 22 14 52 14 86zM65 247v256c0 48 6 84 18 114c38 92 128 143 221 143h8
c93 0 183 -51 221 -143c12 -30 18 -66 18 -114v-256c0 -48 -6 -84 -18 -114c-38 -92 -128 -143 -221 -143h-8c-93 0 -183 51 -221 143c-12 30 -18 66 -18 114zM308 803c-99 0 -164 66 -170 167h64c8 -61 50 -99 106 -99s98 38 106 99h64c-6 -101 -71 -167 -170 -167z" />
    <glyph glyph-name="obreve" unicode="&#x14f;" 
d="M481 331v-102c0 -42 -6 -77 -15 -104c-29 -85 -103 -135 -198 -135s-169 50 -198 135c-9 27 -15 62 -15 104v102c0 42 6 77 15 104c29 85 103 135 198 135s169 -50 198 -135c9 -27 15 -62 15 -104zM381 231v98c0 34 -4 60 -12 79c-17 43 -53 66 -101 66s-84 -23 -101 -66
c-8 -19 -12 -45 -12 -79v-98c0 -34 4 -60 12 -79c17 -43 53 -66 101 -66s84 23 101 66c8 19 12 45 12 79zM268 623c-99 0 -164 66 -170 167h64c8 -61 50 -99 106 -99s98 38 106 99h64c-6 -101 -71 -167 -170 -167z" />
    <glyph glyph-name="Ohungarumlaut" unicode="&#x150;" horiz-adv-x="616" 
d="M445 247v256c0 34 -4 64 -14 86c-23 50 -72 69 -119 69h-8c-47 0 -96 -19 -119 -69c-10 -22 -14 -52 -14 -86v-256c0 -34 4 -64 14 -86c23 -50 72 -69 119 -69h8c47 0 96 19 119 69c10 22 14 52 14 86zM65 247v256c0 48 6 84 18 114c38 92 128 143 221 143h8
c93 0 183 -51 221 -143c12 -30 18 -66 18 -114v-256c0 -48 -6 -84 -18 -114c-38 -92 -128 -143 -221 -143h-8c-93 0 -183 51 -221 143c-12 30 -18 66 -18 114zM215 807h-69l113 180h117zM409 807h-69l113 180h117z" />
    <glyph glyph-name="ohungarumlaut" unicode="&#x151;" 
d="M481 331v-102c0 -42 -6 -77 -15 -104c-29 -85 -103 -135 -198 -135s-169 50 -198 135c-9 27 -15 62 -15 104v102c0 42 6 77 15 104c29 85 103 135 198 135s169 -50 198 -135c9 -27 15 -62 15 -104zM381 231v98c0 34 -4 60 -12 79c-17 43 -53 66 -101 66s-84 -23 -101 -66
c-8 -19 -12 -45 -12 -79v-98c0 -34 4 -60 12 -79c17 -43 53 -66 101 -66s84 23 101 66c8 19 12 45 12 79zM185 627h-69l113 180h117zM379 627h-69l113 180h117z" />
    <glyph glyph-name="OE" unicode="&#x152;" horiz-adv-x="851" 
d="M811 0h-507c-103 0 -183 52 -221 144c-12 30 -18 65 -18 113v236c0 48 6 83 18 113c38 92 118 144 221 144h507v-103h-298v-211h242v-103h-242v-230h298v-103zM304 103h103v544h-103c-57 0 -96 -19 -119 -69c-10 -22 -14 -51 -14 -85v-236c0 -34 4 -63 14 -85
c23 -50 62 -69 119 -69z" />
    <glyph glyph-name="oe" unicode="&#x153;" horiz-adv-x="865" 
d="M55 219v122c0 141 89 229 213 229c71 0 129 -30 164 -89c35 60 96 89 164 89c135 0 215 -86 215 -258v-56h-329v-37c1 -84 44 -138 113 -138c53 0 93 32 109 88h104c-23 -117 -105 -179 -213 -179c-71 0 -128 29 -163 89c-35 -60 -93 -89 -164 -89
c-124 0 -213 88 -213 229zM155 338v-116c0 -86 43 -135 113 -135c68 0 114 46 114 128v126c0 84 -45 132 -114 132c-70 0 -113 -49 -113 -135zM482 347h229c-4 91 -48 132 -115 132s-110 -41 -114 -132z" />
    <glyph glyph-name="Racute" unicode="&#x154;" horiz-adv-x="606" 
d="M581 2v-2h-116c-19 20 -27 57 -30 90l-12 137c-6 71 -48 95 -124 95h-117v-322h-106v750h212c34 0 64 -3 88 -8c98 -22 161 -86 161 -191c0 -74 -40 -136 -114 -170v-1c65 -23 99 -65 105 -142l11 -140c3 -38 14 -75 42 -96zM284 648h-102v-224h107c92 0 142 50 142 122
c0 53 -30 84 -80 96c-17 4 -41 6 -67 6zM252 807h-71l118 180h126z" />
    <glyph glyph-name="racute" unicode="&#x155;" horiz-adv-x="417" 
d="M396 559l-3 -102c-26 10 -53 16 -83 16c-77 0 -137 -63 -137 -153v-320h-100v560h74l14 -81h1c36 61 84 91 156 91c26 0 56 -5 78 -11zM200 627h-71l118 180h126z" />
    <glyph glyph-name="Rcommaaccent" unicode="&#x156;" horiz-adv-x="606" 
d="M581 2v-2h-116c-19 20 -27 57 -30 90l-12 137c-6 71 -48 95 -124 95h-117v-322h-106v750h212c34 0 64 -3 88 -8c98 -22 161 -86 161 -191c0 -74 -40 -136 -114 -170v-1c65 -23 99 -65 105 -142l11 -140c3 -38 14 -75 42 -96zM284 648h-102v-224h107c92 0 142 50 142 122
c0 53 -30 84 -80 96c-17 4 -41 6 -67 6zM265 -155v105h107v-78c0 -13 -1 -29 -3 -42c-8 -51 -42 -96 -112 -106v40c48 16 60 49 60 71c0 7 -4 10 -9 10h-43z" />
    <glyph glyph-name="rcommaaccent" unicode="&#x157;" horiz-adv-x="417" 
d="M396 559l-3 -102c-26 10 -53 16 -83 16c-77 0 -137 -63 -137 -153v-320h-100v560h74l14 -81h1c36 61 84 91 156 91c26 0 56 -5 78 -11zM76 -155v105h107v-78c0 -13 -1 -29 -3 -42c-8 -51 -42 -96 -112 -106v40c48 16 60 49 60 71c0 7 -4 10 -9 10h-43z" />
    <glyph glyph-name="Rcaron" unicode="&#x158;" horiz-adv-x="606" 
d="M581 2v-2h-116c-19 20 -27 57 -30 90l-12 137c-6 71 -48 95 -124 95h-117v-322h-106v750h212c34 0 64 -3 88 -8c98 -22 161 -86 161 -191c0 -74 -40 -136 -114 -170v-1c65 -23 99 -65 105 -142l11 -140c3 -38 14 -75 42 -96zM284 648h-102v-224h107c92 0 142 50 142 122
c0 53 -30 84 -80 96c-17 4 -41 6 -67 6zM491 999l-155 -191h-84l-155 191h83l114 -132l114 132h83z" />
    <glyph glyph-name="rcaron" unicode="&#x159;" horiz-adv-x="417" 
d="M396 559l-3 -102c-26 10 -53 16 -83 16c-77 0 -137 -63 -137 -153v-320h-100v560h74l14 -81h1c36 61 84 91 156 91c26 0 56 -5 78 -11zM431 819l-155 -191h-84l-155 191h83l114 -132l114 132h83z" />
    <glyph glyph-name="Sacute" unicode="&#x15a;" horiz-adv-x="584" 
d="M527 537h-107c0 66 -38 126 -128 126c-98 0 -123 -53 -123 -101c0 -63 48 -93 98 -110l68 -23c108 -36 199 -98 199 -228s-103 -211 -239 -211c-158 0 -249 102 -252 227h108c3 -69 60 -130 140 -130c79 0 137 42 137 118c0 71 -60 100 -119 121l-67 24
c-94 35 -178 74 -178 214c0 125 100 196 231 196c137 0 237 -76 232 -223zM271 807h-71l118 180h126z" />
    <glyph glyph-name="sacute" unicode="&#x15b;" horiz-adv-x="489" 
d="M225 247c-155 38 -167 118 -167 165c0 96 77 158 185 158c104 0 182 -50 196 -157h-102c-13 45 -44 69 -94 69c-51 0 -87 -28 -87 -68s25 -59 105 -78c102 -24 186 -64 186 -176c0 -106 -84 -170 -193 -170c-118 0 -199 62 -216 176h102c15 -56 52 -86 112 -86
c57 0 94 30 95 76c1 50 -33 69 -122 91zM234 627h-71l118 180h126z" />
    <glyph glyph-name="Scircumflex" unicode="&#x15c;" horiz-adv-x="584" 
d="M527 537h-107c0 66 -38 126 -128 126c-98 0 -123 -53 -123 -101c0 -63 48 -93 98 -110l68 -23c108 -36 199 -98 199 -228s-103 -211 -239 -211c-158 0 -249 102 -252 227h108c3 -69 60 -130 140 -130c79 0 137 42 137 118c0 71 -60 100 -119 121l-67 24
c-94 35 -178 74 -178 214c0 125 100 196 231 196c137 0 237 -76 232 -223zM336 999l155 -191h-83l-114 132l-114 -132h-83l155 191h84z" />
    <glyph glyph-name="scircumflex" unicode="&#x15d;" horiz-adv-x="489" 
d="M225 247c-155 38 -167 118 -167 165c0 96 77 158 185 158c104 0 182 -50 196 -157h-102c-13 45 -44 69 -94 69c-51 0 -87 -28 -87 -68s25 -59 105 -78c102 -24 186 -64 186 -176c0 -106 -84 -170 -193 -170c-118 0 -199 62 -216 176h102c15 -56 52 -86 112 -86
c57 0 94 30 95 76c1 50 -33 69 -122 91zM287 819l155 -191h-83l-114 132l-114 -132h-83l155 191h84z" />
    <glyph glyph-name="Scedilla" unicode="&#x15e;" horiz-adv-x="584" 
d="M527 537h-107c0 66 -38 126 -128 126c-98 0 -123 -53 -123 -101c0 -63 48 -93 98 -110l68 -23c108 -36 199 -98 199 -228s-103 -211 -239 -211l-11 -39c58 -14 108 -42 108 -96c0 -56 -44 -93 -102 -93c-63 0 -107 37 -115 87h53c8 -26 29 -41 61 -41c30 0 50 20 50 45
c0 26 -17 43 -65 56l-25 7c-17 4 -23 13 -17 31l16 46c-129 18 -203 112 -205 224h108c3 -69 60 -130 140 -130c79 0 137 42 137 118c0 71 -60 100 -119 121l-67 24c-94 35 -178 74 -178 214c0 125 100 196 231 196c137 0 237 -76 232 -223z" />
    <glyph glyph-name="scedilla" unicode="&#x15f;" horiz-adv-x="489" 
d="M225 247c-155 38 -167 118 -167 165c0 96 77 158 185 158c104 0 182 -50 196 -157h-102c-13 45 -44 69 -94 69c-51 0 -87 -28 -87 -68s25 -59 105 -78c102 -24 186 -64 186 -176c0 -106 -84 -169 -192 -170l-11 -39c58 -14 108 -42 108 -96c0 -56 -44 -93 -102 -93
c-63 0 -107 37 -115 87h53c8 -26 29 -41 61 -41c30 0 50 20 50 45c0 26 -17 43 -65 56l-25 7c-17 4 -23 13 -17 31l16 47c-93 14 -156 73 -170 172h102c15 -56 52 -86 112 -86c57 0 94 30 95 76c1 50 -33 69 -122 91z" />
    <glyph glyph-name="Scaron" unicode="&#x160;" horiz-adv-x="584" 
d="M527 537h-107c0 66 -38 126 -128 126c-98 0 -123 -53 -123 -101c0 -63 48 -93 98 -110l68 -23c108 -36 199 -98 199 -228s-103 -211 -239 -211c-158 0 -249 102 -252 227h108c3 -69 60 -130 140 -130c79 0 137 42 137 118c0 71 -60 100 -119 121l-67 24
c-94 35 -178 74 -178 214c0 125 100 196 231 196c137 0 237 -76 232 -223zM492 999l-155 -191h-84l-155 191h83l114 -132l114 132h83z" />
    <glyph glyph-name="scaron" unicode="&#x161;" horiz-adv-x="489" 
d="M225 247c-155 38 -167 118 -167 165c0 96 77 158 185 158c104 0 182 -50 196 -157h-102c-13 45 -44 69 -94 69c-51 0 -87 -28 -87 -68s25 -59 105 -78c102 -24 186 -64 186 -176c0 -106 -84 -170 -193 -170c-118 0 -199 62 -216 176h102c15 -56 52 -86 112 -86
c57 0 94 30 95 76c1 50 -33 69 -122 91zM442 819l-155 -191h-84l-155 191h83l114 -132l114 132h83z" />
    <glyph glyph-name="Tcommaaccent" unicode="&#x162;" horiz-adv-x="561" 
d="M22 750h516v-103h-205v-647h-106v647h-205v103zM229 -155v105h107v-78c0 -13 -1 -29 -3 -42c-8 -51 -42 -96 -112 -106v40c48 16 60 49 60 71c0 7 -4 10 -9 10h-43z" />
    <glyph glyph-name="tcommaaccent" unicode="&#x163;" horiz-adv-x="377" 
d="M342 95l-1 -95c-14 -2 -25 -3 -38 -3c-107 0 -168 40 -187 132c-5 22 -7 51 -7 84v251h-89v96h89v140h100v-140h132v-96h-132v-252c0 -30 2 -51 6 -66c11 -40 37 -53 88 -53c12 0 21 0 39 2zM180 -155v105h107v-78c0 -13 -1 -29 -3 -42c-8 -51 -42 -96 -112 -106v40
c48 16 60 49 60 71c0 7 -4 10 -9 10h-43z" />
    <glyph glyph-name="Tcaron" unicode="&#x164;" horiz-adv-x="561" 
d="M22 750h516v-103h-205v-647h-106v647h-205v103zM477 999l-155 -191h-84l-155 191h83l114 -132l114 132h83z" />
    <glyph glyph-name="tcaron" unicode="&#x165;" horiz-adv-x="475" 
d="M342 95l-1 -95c-14 -2 -25 -3 -38 -3c-107 0 -168 40 -187 132c-5 22 -7 51 -7 84v251h-89v96h89v140h100v-140h132v-96h-132v-252c0 -30 2 -51 6 -66c11 -40 37 -53 88 -53c12 0 21 0 39 2zM398 680v105h107v-78c0 -13 -1 -29 -3 -42c-8 -51 -42 -96 -112 -106v40
c48 16 60 49 60 71c0 7 -4 10 -9 10h-43z" />
    <glyph glyph-name="Tbar" unicode="&#x166;" horiz-adv-x="561" 
d="M22 750h517v-103h-204v-207h171v-70h-171v-370h-106v370h-174v70h174v207h-207v103z" />
    <glyph glyph-name="tbar" unicode="&#x167;" horiz-adv-x="387" 
d="M352 95l-1 -95c-14 -2 -25 -3 -38 -3c-107 0 -168 40 -187 132c-5 22 -7 51 -7 84v69h-89v70h89v112h-89v96h89v140h100v-140h132v-96h-132v-112h132v-70h-132v-70c0 -30 2 -51 6 -66c11 -40 37 -53 88 -53c12 0 21 0 39 2z" />
    <glyph glyph-name="Utilde" unicode="&#x168;" horiz-adv-x="630" 
d="M452 247v503h106v-503c0 -48 -6 -84 -18 -114c-38 -92 -128 -143 -221 -143h-8c-93 0 -183 51 -221 143c-12 30 -18 66 -18 114v503h106v-503c0 -34 4 -64 14 -86c23 -50 72 -69 119 -69h8c47 0 96 19 119 69c10 22 14 52 14 86zM316 924c44 -31 61 -43 90 -43
c22 0 44 17 48 63h61c-6 -85 -46 -137 -113 -137c-27 0 -58 11 -88 33c-44 31 -61 43 -90 43c-22 0 -43 -17 -48 -63h-61c6 85 46 137 112 137c28 0 58 -11 89 -33z" />
    <glyph glyph-name="utilde" unicode="&#x169;" horiz-adv-x="577" 
d="M259 -10c-93 0 -155 53 -179 143c-7 24 -10 61 -10 91v336h100v-333c0 -32 4 -55 10 -73c15 -44 47 -68 98 -68c50 0 92 36 113 80c8 17 13 36 13 69v325h100v-560h-75l-13 73h-1c-33 -51 -82 -83 -156 -83zM289 744c44 -31 61 -43 90 -43c22 0 44 17 48 63h61
c-6 -85 -46 -137 -113 -137c-27 0 -58 11 -88 33c-44 31 -61 43 -90 43c-22 0 -43 -17 -48 -63h-61c6 85 46 137 112 137c28 0 58 -11 89 -33z" />
    <glyph glyph-name="Umacron" unicode="&#x16a;" horiz-adv-x="630" 
d="M452 247v503h106v-503c0 -48 -6 -84 -18 -114c-38 -92 -128 -143 -221 -143h-8c-93 0 -183 51 -221 143c-12 30 -18 66 -18 114v503h106v-503c0 -34 4 -64 14 -86c23 -50 72 -69 119 -69h8c47 0 96 19 119 69c10 22 14 52 14 86zM470 890v-65h-310v65h310z" />
    <glyph glyph-name="umacron" unicode="&#x16b;" horiz-adv-x="577" 
d="M259 -10c-93 0 -155 53 -179 143c-7 24 -10 61 -10 91v336h100v-333c0 -32 4 -55 10 -73c15 -44 47 -68 98 -68c50 0 92 36 113 80c8 17 13 36 13 69v325h100v-560h-75l-13 73h-1c-33 -51 -82 -83 -156 -83zM443 710v-65h-310v65h310z" />
    <glyph glyph-name="Ubreve" unicode="&#x16c;" horiz-adv-x="630" 
d="M452 247v503h106v-503c0 -48 -6 -84 -18 -114c-38 -92 -128 -143 -221 -143h-8c-93 0 -183 51 -221 143c-12 30 -18 66 -18 114v503h106v-503c0 -34 4 -64 14 -86c23 -50 72 -69 119 -69h8c47 0 96 19 119 69c10 22 14 52 14 86zM315 803c-99 0 -164 66 -170 167h64
c8 -61 50 -99 106 -99s98 38 106 99h64c-6 -101 -71 -167 -170 -167z" />
    <glyph glyph-name="ubreve" unicode="&#x16d;" horiz-adv-x="577" 
d="M259 -10c-93 0 -155 53 -179 143c-7 24 -10 61 -10 91v336h100v-333c0 -32 4 -55 10 -73c15 -44 47 -68 98 -68c50 0 92 36 113 80c8 17 13 36 13 69v325h100v-560h-75l-13 73h-1c-33 -51 -82 -83 -156 -83zM288 623c-99 0 -164 66 -170 167h64c8 -61 50 -99 106 -99
s98 38 106 99h64c-6 -101 -71 -167 -170 -167z" />
    <glyph glyph-name="Uring" unicode="&#x16e;" horiz-adv-x="630" 
d="M452 247v503h106v-503c0 -48 -6 -84 -18 -114c-38 -92 -128 -143 -221 -143h-8c-93 0 -183 51 -221 143c-12 30 -18 66 -18 114v503h106v-503c0 -34 4 -64 14 -86c23 -50 72 -69 119 -69h8c47 0 96 19 119 69c10 22 14 52 14 86zM201 907c0 63 50 114 113 114
s114 -51 114 -114s-51 -113 -114 -113s-113 50 -113 113zM248 907c0 -38 29 -68 66 -68s67 30 67 68s-30 69 -67 69s-66 -31 -66 -69z" />
    <glyph glyph-name="uring" unicode="&#x16f;" horiz-adv-x="577" 
d="M259 -10c-93 0 -155 53 -179 143c-7 24 -10 61 -10 91v336h100v-333c0 -32 4 -55 10 -73c15 -44 47 -68 98 -68c50 0 92 36 113 80c8 17 13 36 13 69v325h100v-560h-75l-13 73h-1c-33 -51 -82 -83 -156 -83zM175 727c0 63 50 114 113 114s114 -51 114 -114
s-51 -113 -114 -113s-113 50 -113 113zM222 727c0 -38 29 -68 66 -68s67 30 67 68s-30 69 -67 69s-66 -31 -66 -69z" />
    <glyph glyph-name="Uhungarumlaut" unicode="&#x170;" horiz-adv-x="630" 
d="M452 247v503h106v-503c0 -48 -6 -84 -18 -114c-38 -92 -128 -143 -221 -143h-8c-93 0 -183 51 -221 143c-12 30 -18 66 -18 114v503h106v-503c0 -34 4 -64 14 -86c23 -50 72 -69 119 -69h8c47 0 96 19 119 69c10 22 14 52 14 86zM232 807h-69l113 180h117zM426 807h-69
l113 180h117z" />
    <glyph glyph-name="uhungarumlaut" unicode="&#x171;" horiz-adv-x="577" 
d="M259 -10c-93 0 -155 53 -179 143c-7 24 -10 61 -10 91v336h100v-333c0 -32 4 -55 10 -73c15 -44 47 -68 98 -68c50 0 92 36 113 80c8 17 13 36 13 69v325h100v-560h-75l-13 73h-1c-33 -51 -82 -83 -156 -83zM198 627h-69l113 180h117zM392 627h-69l113 180h117z" />
    <glyph glyph-name="Uogonek" unicode="&#x172;" horiz-adv-x="630" 
d="M452 247v503h106v-503c0 -48 -6 -84 -18 -114c-22 -53 -61 -92 -107 -116c-10 -5 -25 -12 -36 -19c-69 -44 -110 -78 -110 -125c0 -33 23 -54 60 -54c22 0 45 6 68 18l19 -40c-27 -14 -58 -24 -92 -24c-69 0 -120 32 -122 93c-2 48 29 89 87 124c-92 2 -180 52 -217 143
c-12 30 -18 66 -18 114v503h106v-503c0 -34 4 -64 14 -86c23 -50 72 -69 119 -69h8c47 0 96 19 119 69c10 22 14 52 14 86z" />
    <glyph glyph-name="uogonek" unicode="&#x173;" horiz-adv-x="577" 
d="M259 -10c-93 0 -155 53 -179 143c-7 24 -10 61 -10 91v336h100v-333c0 -32 4 -55 10 -73c15 -44 47 -68 98 -68c50 0 92 36 113 80c8 17 13 36 13 69v325h100v-560c-73 -45 -114 -80 -114 -127c0 -33 23 -54 60 -54c22 0 45 6 68 18l19 -40c-27 -14 -58 -24 -92 -24
c-69 0 -120 32 -122 93c-2 53 36 98 106 135l-13 72h-1c-33 -51 -82 -83 -156 -83z" />
    <glyph glyph-name="Wcircumflex" unicode="&#x174;" horiz-adv-x="880" 
d="M378 750h123l128 -616h2l110 616h113l-152 -750h-139l-123 569h-2l-121 -569h-140l-151 750h112l110 -616h2zM482 999l155 -191h-83l-114 132l-114 -132h-83l155 191h84z" />
    <glyph glyph-name="wcircumflex" unicode="&#x175;" horiz-adv-x="756" 
d="M632 560h107l-148 -560h-106l-106 395h-2l-106 -395h-107l-147 560h106l98 -413h2l109 413h91l109 -412h2zM420 819l155 -191h-83l-114 132l-114 -132h-83l155 191h84z" />
    <glyph glyph-name="Ycircumflex" unicode="&#x176;" horiz-adv-x="582" 
d="M292 439l167 311h120l-235 -426v-324h-106v324l-235 426h120l167 -311h2zM333 999l155 -191h-83l-114 132l-114 -132h-83l155 191h84z" />
    <glyph glyph-name="ycircumflex" unicode="&#x177;" horiz-adv-x="508" 
d="M77 -120c54 0 79 33 97 81l30 80l-193 519h107l138 -394h2l135 394h106l-234 -637c-35 -95 -92 -139 -176 -139c-30 0 -57 4 -80 11v95c22 -5 42 -10 68 -10zM296 819l155 -191h-83l-114 132l-114 -132h-83l155 191h84z" />
    <glyph glyph-name="Ydieresis" unicode="&#x178;" horiz-adv-x="582" 
d="M292 439l167 311h120l-235 -426v-324h-106v324l-235 426h120l167 -311h2zM244 824h-105v111h105v-111zM443 824h-105v111h105v-111z" />
    <glyph glyph-name="Zacute" unicode="&#x179;" horiz-adv-x="586" 
d="M59 647v103h474v-93l-359 -554h365v-103h-494v94l356 553h-342zM282 807h-71l118 180h126z" />
    <glyph glyph-name="zacute" unicode="&#x17a;" horiz-adv-x="498" 
d="M463 0h-428v85l285 379h-275v96h400v-86l-284 -378h302v-96zM228 627h-71l118 180h126z" />
    <glyph glyph-name="Zdotaccent" unicode="&#x17b;" horiz-adv-x="586" 
d="M59 647v103h474v-93l-359 -554h365v-103h-494v94l356 553h-342zM348 823h-111v114h111v-114z" />
    <glyph glyph-name="zdotaccent" unicode="&#x17c;" horiz-adv-x="498" 
d="M463 0h-428v85l285 379h-275v96h400v-86l-284 -378h302v-96zM305 643h-111v114h111v-114z" />
    <glyph glyph-name="Zcaron" unicode="&#x17d;" horiz-adv-x="586" 
d="M59 647v103h474v-93l-359 -554h365v-103h-494v94l356 553h-342zM489 999l-155 -191h-84l-155 191h83l114 -132l114 132h83z" />
    <glyph glyph-name="zcaron" unicode="&#x17e;" horiz-adv-x="498" 
d="M463 0h-428v85l285 379h-275v96h400v-86l-284 -378h302v-96zM446 819l-155 -191h-84l-155 191h83l114 -132l114 132h83z" />
    <glyph glyph-name="longs" unicode="&#x17f;" horiz-adv-x="306" 
d="M209 592v-592h-100v464h-89v96h89v33c0 142 79 203 197 203c20 0 42 -2 50 -3v-96c-13 2 -30 3 -43 3c-71 0 -104 -24 -104 -108z" />
    <glyph glyph-name="florin" unicode="&#x192;" horiz-adv-x="580" 
d="M540 750v-750h-500v750h500zM261 374l-171 281v-562zM319 374l171 -281v562zM120 700l170 -279l170 279h-340zM290 326l-169 -276h337z" />
    <glyph glyph-name="dotlessj" unicode="&#x237;" horiz-adv-x="255" 
d="M82 -33v593h100v-594c0 -142 -79 -203 -197 -203c-17 0 -35 1 -45 2v96c12 -1 27 -2 38 -2c71 0 104 24 104 108z" />
    <glyph glyph-name="circumflex" unicode="&#x2c6;" horiz-adv-x="500" 
d="M292 849l155 -191h-83l-114 132l-114 -132h-83l155 191h84z" />
    <glyph glyph-name="caron" unicode="&#x2c7;" horiz-adv-x="500" 
d="M447 849l-155 -191h-84l-155 191h83l114 -132l114 132h83z" />
    <glyph glyph-name="breve" unicode="&#x2d8;" horiz-adv-x="500" 
d="M250 653c-99 0 -164 66 -170 167h64c8 -61 50 -99 106 -99s98 38 106 99h64c-6 -101 -71 -167 -170 -167z" />
    <glyph glyph-name="dotaccent" unicode="&#x2d9;" horiz-adv-x="500" 
d="M305 673h-111v114h111v-114z" />
    <glyph glyph-name="ring" unicode="&#x2da;" horiz-adv-x="500" 
d="M137 757c0 63 50 114 113 114s114 -51 114 -114s-51 -113 -114 -113s-113 50 -113 113zM184 757c0 -38 29 -68 66 -68s67 30 67 68s-30 69 -67 69s-66 -31 -66 -69z" />
    <glyph glyph-name="ogonek" unicode="&#x2db;" horiz-adv-x="500" 
d="M282 18l39 -18c-71 -46 -113 -80 -113 -127c0 -33 23 -54 60 -54c22 0 45 6 68 18l19 -40c-27 -14 -58 -24 -92 -24c-69 0 -120 32 -122 93s49 111 141 152z" />
    <glyph glyph-name="tilde" unicode="&#x2dc;" horiz-adv-x="500" 
d="M251 774c44 -31 61 -43 90 -43c22 0 44 17 48 63h61c-6 -85 -46 -137 -113 -137c-27 0 -58 11 -88 33c-44 31 -61 43 -90 43c-22 0 -43 -17 -48 -63h-61c6 85 46 137 112 137c28 0 58 -11 89 -33z" />
    <glyph glyph-name="hungarumlaut" unicode="&#x2dd;" horiz-adv-x="500" 
d="M154 657h-69l113 180h117zM348 657h-69l113 180h117z" />
    <glyph glyph-name="Delta" unicode="&#x394;" horiz-adv-x="580" 
d="M540 750v-750h-500v750h500zM261 374l-171 281v-562zM319 374l171 -281v562zM120 700l170 -279l170 279h-340zM290 326l-169 -276h337z" />
    <glyph glyph-name="Delta" unicode="&#x2206;" horiz-adv-x="580" 
d="M540 750v-750h-500v750h500zM261 374l-171 281v-562zM319 374l171 -281v562zM120 700l170 -279l170 279h-340zM290 326l-169 -276h337z" />
    <glyph glyph-name="Omega" unicode="&#x3a9;" horiz-adv-x="580" 
d="M540 750v-750h-500v750h500zM261 374l-171 281v-562zM319 374l171 -281v562zM120 700l170 -279l170 279h-340zM290 326l-169 -276h337z" />
    <glyph glyph-name="Omega" unicode="&#x2126;" horiz-adv-x="580" 
d="M540 750v-750h-500v750h500zM261 374l-171 281v-562zM319 374l171 -281v562zM120 700l170 -279l170 279h-340zM290 326l-169 -276h337z" />
    <glyph glyph-name="pi" unicode="&#x3c0;" horiz-adv-x="580" 
d="M540 750v-750h-500v750h500zM261 374l-171 281v-562zM319 374l171 -281v562zM120 700l170 -279l170 279h-340zM290 326l-169 -276h337z" />
    <glyph glyph-name="uni0400" unicode="&#x400;" horiz-adv-x="555" 
d="M76 0v750h439v-103h-333v-211h275v-103h-275v-230h333v-103h-439zM387 807h-71l-173 180h126z" />
    <glyph glyph-name="afii10023" unicode="&#x401;" horiz-adv-x="555" 
d="M76 0v750h439v-103h-333v-211h275v-103h-275v-230h333v-103h-439zM248 824h-105v111h105v-111zM447 824h-105v111h105v-111z" />
    <glyph glyph-name="afii10051" unicode="&#x402;" horiz-adv-x="732" 
d="M431 0h-8v103h8c39 0 68 6 87 17c37 21 60 62 60 106c0 42 -23 82 -60 103c-19 11 -44 17 -87 17h-136v-346h-106v647h-167v103h457v-103h-184v-198h138c45 0 83 -5 109 -15c87 -32 142 -111 142 -208c0 -99 -55 -179 -142 -211c-26 -10 -67 -15 -111 -15z" />
    <glyph glyph-name="afii10052" unicode="&#x403;" horiz-adv-x="537" 
d="M76 0v750h431v-103h-325v-647h-106zM274 807h-71l118 180h126z" />
    <glyph glyph-name="afii10053" unicode="&#x404;" horiz-adv-x="591" 
d="M436 162c5 12 9 26 11 42h108c-3 -28 -8 -51 -16 -71c-35 -94 -128 -143 -222 -143h-13c-93 0 -183 51 -221 143c-12 30 -18 66 -18 114v256c0 48 6 84 18 114c38 92 128 143 221 143h13c94 0 185 -51 222 -143c7 -19 12 -40 15 -65h-108c-2 13 -5 25 -10 36
c-22 51 -72 70 -119 70h-13c-47 0 -96 -20 -119 -70c-10 -22 -14 -51 -14 -85v-67h241v-103h-241v-86c0 -34 4 -63 14 -85c23 -50 72 -69 119 -69h13c47 0 96 19 119 69z" />
    <glyph glyph-name="afii10054" unicode="&#x405;" horiz-adv-x="584" 
d="M527 537h-107c0 66 -38 126 -128 126c-98 0 -123 -53 -123 -101c0 -63 48 -93 98 -110l68 -23c108 -36 199 -98 199 -228s-103 -211 -239 -211c-158 0 -249 102 -252 227h108c3 -69 60 -130 140 -130c79 0 137 42 137 118c0 71 -60 100 -119 121l-67 24
c-94 35 -178 74 -178 214c0 125 100 196 231 196c137 0 237 -76 232 -223z" />
    <glyph glyph-name="afii10055" unicode="&#x406;" horiz-adv-x="258" 
d="M76 0v750h106v-750h-106z" />
    <glyph glyph-name="afii10056" unicode="&#x407;" horiz-adv-x="258" 
d="M76 0v750h106v-750h-106zM82 824h-105v111h105v-111zM281 824h-105v111h105v-111z" />
    <glyph glyph-name="afii10057" unicode="&#x408;" horiz-adv-x="545" 
d="M151 271v-49c0 -31 7 -58 18 -77c19 -33 52 -53 90 -53s71 20 90 53c11 19 18 47 18 78v527h106v-522c0 -47 -8 -84 -21 -115c-33 -75 -102 -123 -193 -123s-160 48 -193 123c-13 31 -21 67 -21 114v44h106z" />
    <glyph glyph-name="afii10058" unicode="&#x409;" horiz-adv-x="951" 
d="M540 459h112c53 0 83 -5 109 -15c87 -32 142 -111 142 -213c0 -104 -55 -184 -142 -216c-26 -10 -58 -15 -109 -15h-218v647h-177l-17 -297c-9 -152 -32 -338 -232 -350v103c103 6 121 131 127 251l20 396h385v-291zM650 356h-110v-253h110c46 0 68 6 87 17
c37 21 60 62 60 111c0 47 -23 87 -60 108c-19 11 -41 17 -87 17z" />
    <glyph glyph-name="afii10059" unicode="&#x40a;" horiz-adv-x="929" 
d="M76 0v750h106v-291h230v291h106v-291h112c53 0 83 -5 109 -15c87 -32 142 -111 142 -213c0 -104 -55 -184 -142 -216c-26 -10 -58 -15 -109 -15h-218v356h-230v-356h-106zM628 356h-110v-253h110c46 0 68 6 87 17c37 21 60 62 60 111c0 47 -23 87 -60 108
c-19 11 -41 17 -87 17z" />
    <glyph glyph-name="afii10060" unicode="&#x40b;" horiz-adv-x="730" 
d="M479 750v-103h-184v-198h127c147 0 223 -74 243 -187c3 -19 5 -50 5 -81v-181h-106v181c0 27 -1 53 -4 67c-11 61 -49 98 -139 98h-126v-346h-106v647h-167v103h457z" />
    <glyph glyph-name="afii10061" unicode="&#x40c;" horiz-adv-x="631" 
d="M76 0v750h106v-308h86c86 0 116 33 132 113l11 54c19 94 53 145 139 145c17 0 35 -1 55 -4v-96c-11 2 -21 3 -31 3c-39 0 -56 -18 -64 -64l-9 -49c-16 -88 -44 -144 -100 -175l219 -369h-124l-197 339h-117v-339h-106zM317 807h-71l118 180h126z" />
    <glyph glyph-name="uni040D" unicode="&#x40d;" horiz-adv-x="648" 
d="M466 575h1s-1 -33 -1 -58v-517h106v750h-126l-264 -575h-1s1 33 1 58v517h-106v-750h127zM416 807h-71l-173 180h126z" />
    <glyph glyph-name="afii10062" unicode="&#x40e;" horiz-adv-x="569" 
d="M129 88c64 0 87 28 110 90l-223 572h112l165 -443h2l153 443h111l-222 -603c-42 -113 -103 -157 -196 -157c-39 0 -66 4 -89 11v97c22 -5 42 -10 77 -10zM293 803c-96 0 -164 66 -170 167h70c7 -62 41 -105 100 -105s93 43 100 105h70c-6 -101 -74 -167 -170 -167z" />
    <glyph glyph-name="afii10145" unicode="&#x40f;" horiz-adv-x="642" 
d="M566 750v-750h-195v-244h-100v244h-195v750h106v-647h278v647h106z" />
    <glyph glyph-name="afii10017" unicode="&#x410;" horiz-adv-x="596" 
d="M386 329l-87 316h-4l-85 -316h176zM414 228h-232l-61 -228h-109l210 750h152l210 -750h-109z" />
    <glyph glyph-name="afii10018" unicode="&#x411;" horiz-adv-x="603" 
d="M182 459h122c53 0 83 -5 109 -15c87 -32 142 -111 142 -213c0 -104 -55 -184 -142 -216c-26 -10 -58 -15 -109 -15h-228v750h423v-103h-317v-188zM302 356h-120v-253h120c46 0 68 6 87 17c37 21 60 62 60 111c0 47 -23 87 -60 108c-19 11 -41 17 -87 17z" />
    <glyph glyph-name="afii10019" unicode="&#x412;" horiz-adv-x="607" 
d="M76 0v750h215c47 0 82 -4 109 -12c84 -26 136 -88 136 -183c0 -69 -35 -126 -92 -161c78 -32 116 -105 116 -176c0 -96 -53 -173 -140 -204c-26 -9 -55 -14 -106 -14h-238zM307 335h-125v-233h134c33 0 59 5 76 14c39 20 61 58 61 102c0 48 -26 87 -71 106
c-17 7 -42 11 -75 11zM298 648h-116v-211h115c33 0 51 4 67 11c39 17 67 54 67 104c0 45 -25 74 -66 88c-17 6 -37 8 -67 8z" />
    <glyph glyph-name="afii10020" unicode="&#x413;" horiz-adv-x="537" 
d="M76 0v750h431v-103h-325v-647h-106z" />
    <glyph glyph-name="afii10021" unicode="&#x414;" horiz-adv-x="744" 
d="M732 103v-347h-100v244h-520v-244h-100v347h27c103 0 127 131 133 251l20 396h423v-647h117zM294 647l-17 -297c-6 -96 -17 -188 -74 -247h306v544h-215z" />
    <glyph glyph-name="afii10022" unicode="&#x415;" horiz-adv-x="555" 
d="M76 0v750h439v-103h-333v-211h275v-103h-275v-230h333v-103h-439z" />
    <glyph glyph-name="afii10024" unicode="&#x416;" horiz-adv-x="964" 
d="M429 750h106v-308h66c86 0 116 33 132 113l11 54c19 94 53 145 139 145c17 0 35 -1 55 -4v-96c-11 2 -21 3 -31 3c-39 0 -56 -18 -64 -64l-9 -49c-16 -88 -44 -144 -100 -175l219 -369h-124l-197 339h-97v-339h-106v339h-97l-197 -339h-124l219 369
c-56 31 -84 87 -100 175l-9 49c-9 46 -26 64 -65 64c-9 0 -19 -1 -30 -3v96c20 3 38 4 54 4c87 0 121 -51 140 -145l11 -54c16 -80 46 -113 132 -113h66v308z" />
    <glyph glyph-name="afii10025" unicode="&#x417;" horiz-adv-x="585" 
d="M406 379v-1c81 -39 119 -107 119 -182c0 -118 -106 -206 -242 -206c-150 0 -242 88 -242 213h105c1 -71 49 -113 137 -113c78 0 136 42 136 116c0 63 -48 126 -160 126h-87v93h87c112 0 155 60 155 122c0 74 -56 113 -131 113c-88 0 -136 -42 -137 -113h-105
c0 125 92 213 242 213c132 0 237 -85 237 -203c0 -75 -33 -139 -114 -178z" />
    <glyph glyph-name="afii10026" unicode="&#x418;" horiz-adv-x="648" 
d="M467 575h-1l-263 -575h-127v750h106v-517c0 -25 -1 -58 -1 -58h1l264 575h126v-750h-106v517c0 25 1 58 1 58z" />
    <glyph glyph-name="afii10027" unicode="&#x419;" horiz-adv-x="648" 
d="M466 575h1s-1 -33 -1 -58v-517h106v750h-126l-264 -575h-1s1 33 1 58v517h-106v-750h127zM323 803c-96 0 -164 66 -170 167h70c7 -62 41 -105 100 -105s93 43 100 105h70c-6 -101 -74 -167 -170 -167z" />
    <glyph glyph-name="afii10028" unicode="&#x41a;" horiz-adv-x="631" 
d="M76 0v750h106v-308h86c86 0 116 33 132 113l11 54c19 94 53 145 139 145c17 0 35 -1 55 -4v-96c-11 2 -21 3 -31 3c-39 0 -56 -18 -64 -64l-9 -49c-16 -88 -44 -144 -100 -175l219 -369h-124l-197 339h-117v-339h-106z" />
    <glyph glyph-name="afii10029" unicode="&#x41b;" horiz-adv-x="662" 
d="M155 750h431v-750h-106v647h-223l-17 -297c-9 -152 -32 -338 -232 -350v103c103 6 121 131 127 251z" />
    <glyph glyph-name="afii10030" unicode="&#x41c;" horiz-adv-x="780" 
d="M602 566l-171 -420h-82l-171 420h-1s1 -33 1 -58v-508h-102v750h127l187 -460l187 460h127v-750h-102v508c0 25 1 58 1 58h-1z" />
    <glyph glyph-name="afii10031" unicode="&#x41d;" horiz-adv-x="649" 
d="M76 0v750h106v-308h285v308h106v-750h-106v339h-285v-339h-106z" />
    <glyph glyph-name="afii10032" unicode="&#x41e;" horiz-adv-x="616" 
d="M445 247v256c0 34 -4 64 -14 86c-23 50 -72 69 -119 69h-8c-47 0 -96 -19 -119 -69c-10 -22 -14 -52 -14 -86v-256c0 -34 4 -64 14 -86c23 -50 72 -69 119 -69h8c47 0 96 19 119 69c10 22 14 52 14 86zM65 247v256c0 48 6 84 18 114c38 92 128 143 221 143h8
c93 0 183 -51 221 -143c12 -30 18 -66 18 -114v-256c0 -48 -6 -84 -18 -114c-38 -92 -128 -143 -221 -143h-8c-93 0 -183 51 -221 143c-12 30 -18 66 -18 114z" />
    <glyph glyph-name="afii10033" unicode="&#x41f;" horiz-adv-x="641" 
d="M76 0v750h489v-750h-106v647h-277v-647h-106z" />
    <glyph glyph-name="afii10034" unicode="&#x420;" horiz-adv-x="603" 
d="M182 394h120c46 0 68 6 87 17c37 21 60 61 60 108c0 49 -23 90 -60 111c-19 11 -41 17 -87 17h-120v-253zM304 291h-122v-291h-106v750h228c51 0 83 -5 109 -15c87 -32 142 -112 142 -216c0 -102 -55 -181 -142 -213c-26 -10 -56 -15 -109 -15z" />
    <glyph glyph-name="afii10035" unicode="&#x421;" horiz-adv-x="596" 
d="M431 162c9 21 14 49 14 82h107c-1 -47 -7 -82 -18 -111c-37 -93 -128 -143 -222 -143h-8c-93 0 -183 51 -221 143c-12 30 -18 66 -18 114v256c0 48 6 84 18 114c38 92 128 143 221 143h8c94 0 185 -51 222 -143c11 -28 17 -62 18 -105h-107c-1 30 -5 56 -14 76
c-23 50 -72 70 -119 70h-8c-47 0 -96 -20 -119 -70c-10 -22 -14 -51 -14 -85v-256c0 -34 4 -63 14 -85c23 -50 72 -69 119 -69h8c47 0 96 19 119 69z" />
    <glyph glyph-name="afii10036" unicode="&#x422;" horiz-adv-x="560" 
d="M22 750h516v-103h-205v-647h-106v647h-205v103z" />
    <glyph glyph-name="afii10037" unicode="&#x423;" horiz-adv-x="569" 
d="M129 88c64 0 87 28 110 90l-223 572h112l165 -443h2l153 443h111l-222 -603c-42 -113 -103 -157 -196 -157c-39 0 -66 4 -89 11v97c22 -5 42 -10 77 -10z" />
    <glyph glyph-name="afii10038" unicode="&#x424;" horiz-adv-x="772" 
d="M333 -40v130h-36c-103 0 -193 51 -231 143c-12 30 -18 66 -18 114v56c0 48 6 84 18 114c38 92 128 143 231 143h36v130h106v-130h36c103 0 193 -51 231 -143c12 -30 18 -66 18 -114v-56c0 -48 -6 -84 -18 -114c-38 -92 -128 -143 -231 -143h-36v-130h-106zM618 347v56
c0 34 -4 64 -14 86c-23 50 -72 69 -129 69h-36v-366h36c57 0 106 19 129 69c10 22 14 52 14 86zM168 261c23 -50 72 -69 129 -69h36v366h-36c-57 0 -106 -19 -129 -69c-10 -22 -14 -52 -14 -86v-56c0 -34 4 -64 14 -86z" />
    <glyph glyph-name="afii10039" unicode="&#x425;" horiz-adv-x="584" 
d="M130 0h-121l226 390l-203 360h122l138 -263l138 263h122l-203 -360l226 -390h-121l-162 292z" />
    <glyph glyph-name="afii10040" unicode="&#x426;" horiz-adv-x="694" 
d="M682 103v-347h-100v244h-506v750h106v-647h277v647h106v-647h117z" />
    <glyph glyph-name="afii10041" unicode="&#x427;" horiz-adv-x="623" 
d="M441 0v291c-44 -7 -92 -11 -151 -11c-129 0 -205 73 -225 186c-3 19 -5 50 -5 81v203h106v-203c0 -27 1 -53 4 -67c11 -61 49 -98 139 -98c54 0 92 3 132 9v359h106v-750h-106z" />
    <glyph glyph-name="afii10042" unicode="&#x428;" horiz-adv-x="864" 
d="M788 750v-750h-712v750h106v-647h197v647h106v-647h197v647h106z" />
    <glyph glyph-name="afii10043" unicode="&#x429;" horiz-adv-x="917" 
d="M805 0h-729v750h106v-647h197v647h106v-647h197v647h106v-647h117v-347h-100v244z" />
    <glyph glyph-name="afii10044" unicode="&#x42a;" horiz-adv-x="766" 
d="M335 459h132c53 0 83 -5 109 -15c87 -32 142 -111 142 -213c0 -104 -55 -184 -142 -216c-26 -10 -58 -15 -109 -15h-238v647h-207v103h313v-291zM465 356h-130v-253h130c46 0 68 6 87 17c37 21 60 62 60 111c0 47 -23 87 -60 108c-19 11 -41 17 -87 17z" />
    <glyph glyph-name="afii10045" unicode="&#x42b;" horiz-adv-x="808" 
d="M182 459h102c53 0 83 -5 109 -15c87 -32 142 -111 142 -213c0 -104 -55 -184 -142 -216c-26 -10 -58 -15 -109 -15h-208v750h106v-291zM282 356h-100v-253h100c46 0 68 6 87 17c37 21 60 62 60 111c0 47 -23 87 -60 108c-19 11 -41 17 -87 17zM626 0v750h106v-750h-106z
" />
    <glyph glyph-name="afii10046" unicode="&#x42c;" horiz-adv-x="613" 
d="M182 459h132c53 0 83 -5 109 -15c87 -32 142 -111 142 -213c0 -104 -55 -184 -142 -216c-26 -10 -58 -15 -109 -15h-238v750h106v-291zM312 356h-130v-253h130c46 0 68 6 87 17c37 21 60 62 60 111c0 47 -23 87 -60 108c-19 11 -41 17 -87 17z" />
    <glyph glyph-name="afii10047" unicode="&#x42d;" horiz-adv-x="591" 
d="M155 162c23 -50 72 -69 119 -69h13c47 0 96 19 119 69c10 22 14 51 14 85v86h-241v103h241v67c0 34 -4 63 -14 85c-23 50 -72 70 -119 70h-13c-47 0 -97 -19 -119 -70c-5 -11 -8 -23 -10 -36h-108c3 25 8 46 15 65c37 92 128 143 222 143h13c93 0 183 -51 221 -143
c12 -30 18 -66 18 -114v-256c0 -48 -6 -84 -18 -114c-38 -92 -128 -143 -221 -143h-13c-94 0 -187 49 -222 143c-8 20 -13 43 -16 71h108c2 -16 6 -30 11 -42z" />
    <glyph glyph-name="afii10048" unicode="&#x42e;" horiz-adv-x="863" 
d="M559 -10c-93 0 -183 51 -221 143c-12 30 -18 66 -18 114v92h-138v-339h-106v750h106v-308h138v61c0 48 6 84 18 114c38 92 128 143 221 143s183 -51 221 -143c12 -30 18 -66 18 -114v-256c0 -48 -6 -84 -18 -114c-38 -92 -128 -143 -221 -143zM559 658
c-47 0 -96 -19 -119 -69c-10 -22 -14 -52 -14 -86v-256c0 -34 4 -64 14 -86c23 -50 72 -69 119 -69s96 19 119 69c10 22 14 52 14 86v256c0 34 -4 64 -14 86c-23 50 -72 69 -119 69z" />
    <glyph glyph-name="afii10049" unicode="&#x42f;" horiz-adv-x="606" 
d="M25 0v2c28 21 39 58 42 96l11 140c6 77 40 119 105 142v1c-74 34 -114 96 -114 170c0 105 63 169 161 191c24 5 54 8 88 8h212v-750h-106v322h-117c-76 0 -118 -24 -124 -95l-12 -137c-3 -33 -11 -70 -30 -90h-116zM424 648h-102c-26 0 -50 -2 -67 -6
c-50 -12 -80 -43 -80 -96c0 -72 50 -122 142 -122h107v224z" />
    <glyph glyph-name="afii10065" unicode="&#x430;" horiz-adv-x="540" 
d="M176 416h-104c19 93 88 154 200 154c136 0 198 -71 198 -200v-370h-71l-12 72h-1c-34 -50 -84 -82 -150 -82c-112 0 -186 69 -186 186c0 104 73 176 199 176h121v27c0 65 -32 100 -99 100c-55 0 -82 -25 -95 -63zM150 177c0 -58 32 -96 100 -96s120 71 120 123v61h-120
c-59 0 -100 -33 -100 -88z" />
    <glyph glyph-name="afii10066" unicode="&#x431;" horiz-adv-x="539" 
d="M484 311v-82c0 -42 -6 -77 -15 -104c-29 -85 -103 -135 -198 -135s-169 50 -198 135c-9 27 -15 62 -15 104v257c0 177 74 267 251 287l144 16v-93l-125 -15c-107 -14 -170 -64 -170 -187v-25c31 37 74 61 133 61c94 0 161 -55 184 -140c6 -21 9 -54 9 -79zM384 231v78
c0 78 -35 125 -103 125c-81 0 -123 -69 -123 -145v-58c0 -34 4 -60 12 -79c17 -43 53 -66 101 -66s84 23 101 66c8 19 12 45 12 79z" />
    <glyph glyph-name="afii10067" unicode="&#x432;" horiz-adv-x="526" 
d="M73 0v560h188c30 0 51 -2 71 -5c71 -12 134 -53 134 -141c0 -51 -24 -93 -73 -120c61 -28 92 -78 92 -128c0 -83 -49 -135 -121 -156c-23 -7 -51 -10 -87 -10h-204zM273 242h-100v-150h107c24 0 40 2 54 7c27 9 49 31 49 68c0 40 -25 62 -58 70c-13 3 -27 5 -52 5z
M266 468h-93v-134h90c25 0 42 3 56 8c26 10 47 31 47 65c0 33 -21 50 -48 57c-13 3 -28 4 -52 4z" />
    <glyph glyph-name="afii10068" unicode="&#x433;" horiz-adv-x="457" 
d="M73 0v560h358v-96h-258v-464h-100z" />
    <glyph glyph-name="afii10069" unicode="&#x434;" horiz-adv-x="617" 
d="M609 96v-296h-96v200h-409v-200h-96v296h28c77 0 93 89 98 170l17 294h362v-464h96zM247 464l-13 -203c-4 -60 -15 -119 -59 -165h238v368h-166z" />
    <glyph glyph-name="afii10070" unicode="&#x435;" 
d="M269 570c95 0 169 -50 198 -135c9 -27 15 -62 15 -104v-74h-327v-34c0 -86 43 -142 113 -142c53 0 93 31 109 85h103c-23 -115 -105 -176 -212 -176c-95 0 -169 50 -198 135c-9 27 -15 62 -15 104v102c0 42 6 77 15 104c29 85 104 135 199 135zM167 413
c-7 -17 -11 -38 -12 -66h228c-1 28 -5 49 -12 66c-17 43 -54 66 -102 66s-85 -23 -102 -66z" />
    <glyph glyph-name="afii10072" unicode="&#x436;" horiz-adv-x="816" 
d="M458 560v-224h44c62 0 83 23 95 76l10 42c17 69 46 111 122 111c16 0 36 -1 55 -5v-86c-14 3 -22 5 -36 5c-26 0 -41 -15 -47 -42l-7 -36c-13 -63 -32 -103 -77 -128l179 -273h-118l-159 246h-61v-246h-100v246h-61l-159 -246h-118l179 273c-45 25 -64 65 -77 128l-7 36
c-6 27 -21 42 -47 42c-14 0 -22 -2 -36 -5v86c19 4 39 5 55 5c76 0 105 -42 122 -111l10 -42c12 -53 33 -76 95 -76h44v224h100z" />
    <glyph glyph-name="afii10073" unicode="&#x437;" horiz-adv-x="489" 
d="M444 420c0 -58 -25 -104 -91 -137c69 -30 95 -80 95 -132c0 -86 -74 -161 -200 -161c-130 0 -211 72 -211 171h99c0 -48 41 -77 112 -77c61 0 100 28 100 74c0 39 -32 81 -115 81h-69v88h69c83 0 111 39 111 78c0 46 -37 71 -96 71c-71 0 -112 -27 -112 -76h-99
c0 100 81 170 211 170c113 0 196 -61 196 -150z" />
    <glyph glyph-name="afii10074" unicode="&#x438;" horiz-adv-x="567" 
d="M395 403h-1l-207 -403h-114v560h100v-345c0 -25 -1 -58 -1 -58h1c65 127 144 277 208 403h113v-560h-100v345c0 25 1 58 1 58z" />
    <glyph glyph-name="afii10075" unicode="&#x439;" horiz-adv-x="567" 
d="M394 403h1s-1 -33 -1 -58v-345h100v560h-113c-64 -126 -143 -276 -208 -403h-1s1 33 1 58v345h-100v-560h114zM283 623c-96 0 -164 66 -170 167h70c7 -62 41 -105 100 -105s93 43 100 105h70c-6 -101 -74 -167 -170 -167z" />
    <glyph glyph-name="afii10076" unicode="&#x43a;" horiz-adv-x="549" 
d="M73 0v560h100v-224h62c62 0 83 23 95 76l10 42c17 69 46 111 122 111c16 0 36 -1 55 -5v-86c-14 3 -22 5 -36 5c-26 0 -41 -15 -47 -42l-7 -36c-13 -63 -32 -103 -77 -128l179 -273h-118l-159 246h-79v-246h-100z" />
    <glyph glyph-name="afii10077" unicode="&#x43b;" horiz-adv-x="566" 
d="M125 560h368v-560h-100v464h-173l-11 -203c-7 -113 -28 -252 -201 -261v95c81 4 96 90 101 171z" />
    <glyph glyph-name="afii10078" unicode="&#x43c;" horiz-adv-x="660" 
d="M367 105h-1h-73l-124 281h-1s1 -33 1 -58v-328h-96v560h113l144 -327l144 327h113v-560h-96v328c0 25 1 58 1 58h-1z" />
    <glyph glyph-name="afii10079" unicode="&#x43d;" horiz-adv-x="568" 
d="M73 0v560h100v-221h222v221h100v-560h-100v243h-222v-243h-100z" />
    <glyph glyph-name="afii10080" unicode="&#x43e;" 
d="M481 331v-102c0 -42 -6 -77 -15 -104c-29 -85 -103 -135 -198 -135s-169 50 -198 135c-9 27 -15 62 -15 104v102c0 42 6 77 15 104c29 85 103 135 198 135s169 -50 198 -135c9 -27 15 -62 15 -104zM381 231v98c0 34 -4 60 -12 79c-17 43 -53 66 -101 66s-84 -23 -101 -66
c-8 -19 -12 -45 -12 -79v-98c0 -34 4 -60 12 -79c17 -43 53 -66 101 -66s84 23 101 66c8 19 12 45 12 79z" />
    <glyph glyph-name="afii10081" unicode="&#x43f;" horiz-adv-x="561" 
d="M73 0v560h415v-560h-100v464h-215v-464h-100z" />
    <glyph glyph-name="afii10082" unicode="&#x440;" horiz-adv-x="564" 
d="M173 325v-87c0 -25 3 -46 8 -62c16 -50 55 -90 114 -90c55 0 90 30 105 76c6 17 9 37 9 69v102c0 32 -4 55 -10 73c-15 44 -48 68 -99 68c-50 0 -93 -36 -114 -80c-8 -17 -13 -36 -13 -69zM310 -10c-54 0 -105 23 -137 58h-1s1 -33 1 -58v-234h-100v804h75l13 -73h1
c33 51 83 83 153 83c93 0 160 -53 184 -143c7 -24 10 -61 10 -91v-104c0 -34 -3 -67 -9 -91c-25 -100 -98 -151 -190 -151z" />
    <glyph glyph-name="afii10083" unicode="&#x441;" horiz-adv-x="523" 
d="M369 150c3 7 6 16 8 26h102c-3 -20 -7 -38 -12 -53c-29 -85 -103 -133 -199 -133c-95 0 -169 50 -198 135c-9 27 -15 62 -15 104v102c0 42 6 77 15 104c29 85 103 135 198 135c96 0 170 -48 199 -133c6 -18 10 -39 13 -63h-102c-2 14 -5 26 -9 36c-17 43 -53 64 -101 64
s-84 -23 -101 -66c-8 -19 -12 -45 -12 -79v-98c0 -34 4 -60 12 -79c17 -43 53 -66 101 -66s84 21 101 64z" />
    <glyph glyph-name="afii10084" unicode="&#x442;" horiz-adv-x="478" 
d="M20 560h438v-95h-169v-465h-100v465h-169v95z" />
    <glyph glyph-name="afii10085" unicode="&#x443;" horiz-adv-x="508" 
d="M77 -120c54 0 79 33 97 81l30 80l-193 519h107l138 -394h2l135 394h106l-234 -637c-35 -95 -92 -139 -176 -139c-30 0 -57 4 -80 11v95c22 -5 42 -10 68 -10z" />
    <glyph glyph-name="afii10086" unicode="&#x444;" horiz-adv-x="674" 
d="M55 229v102c0 42 6 77 15 104c29 85 103 135 208 135h14v215h90v-215h14c105 0 179 -50 208 -135c9 -27 15 -62 15 -104v-102c0 -42 -6 -77 -15 -104c-29 -85 -103 -135 -208 -135h-14v-234h-90v234h-14c-105 0 -179 50 -208 135c-9 27 -15 62 -15 104zM155 329v-98
c0 -34 4 -60 12 -79c17 -43 53 -66 111 -66h14v388h-14c-58 0 -94 -23 -111 -66c-8 -19 -12 -45 -12 -79zM507 152c8 19 12 45 12 79v98c0 34 -4 60 -12 79c-17 43 -53 66 -111 66h-14v-388h14c58 0 94 23 111 66z" />
    <glyph glyph-name="afii10087" unicode="&#x445;" horiz-adv-x="518" 
d="M28 560h115l116 -182l115 182h117l-178 -266l193 -294h-114l-133 209l-133 -209h-114l193 294z" />
    <glyph glyph-name="afii10088" unicode="&#x446;" horiz-adv-x="591" 
d="M487 0h-414v560h100v-464h214v464h100v-464h96v-296h-96v200z" />
    <glyph glyph-name="afii10089" unicode="&#x447;" horiz-adv-x="530" 
d="M357 0v208c-32 -4 -71 -7 -111 -7c-112 0 -180 59 -197 143c-3 13 -5 37 -5 59v157h100v-156c0 -17 1 -32 5 -46c10 -34 41 -62 106 -62c40 0 69 2 102 7v257h100v-560h-100z" />
    <glyph glyph-name="afii10090" unicode="&#x448;" horiz-adv-x="748" 
d="M675 560v-560h-602v560h100v-464h151v464h100v-464h151v464h100z" />
    <glyph glyph-name="afii10091" unicode="&#x449;" horiz-adv-x="781" 
d="M675 0h-602v560h100v-464h151v464h100v-464h151v464h100v-464h96v-296h-96v200z" />
    <glyph glyph-name="afii10092" unicode="&#x44a;" horiz-adv-x="638" 
d="M285 560v-204h97c37 0 68 -5 90 -12c72 -24 118 -86 118 -166s-46 -142 -118 -166c-22 -7 -53 -12 -90 -12h-197v465h-165v95h265zM285 262v-168h96c35 0 51 4 66 12c26 13 43 39 43 72s-17 59 -43 72c-15 8 -31 12 -66 12h-96z" />
    <glyph glyph-name="afii10093" unicode="&#x44b;" horiz-adv-x="710" 
d="M537 0v560h100v-560h-100zM173 560v-204h87c37 0 68 -5 90 -12c72 -24 118 -86 118 -166s-46 -142 -118 -166c-22 -7 -53 -12 -90 -12h-187v560h100zM173 262v-168h86c35 0 51 4 66 12c26 13 43 39 43 72s-17 59 -43 72c-15 8 -31 12 -66 12h-86z" />
    <glyph glyph-name="afii10094" unicode="&#x44c;" 
d="M173 560v-204h107c37 0 68 -5 90 -12c72 -24 118 -86 118 -166s-46 -142 -118 -166c-22 -7 -53 -12 -90 -12h-207v560h100zM173 262v-168h106c35 0 51 4 66 12c26 13 43 39 43 72s-17 59 -43 72c-15 8 -31 12 -66 12h-106z" />
    <glyph glyph-name="afii10095" unicode="&#x44d;" horiz-adv-x="525" 
d="M257 86c48 0 84 23 101 66c8 19 12 45 12 79v2h-187v93h187v3c0 34 -4 60 -12 79c-17 43 -53 66 -101 66c-64 0 -104 -33 -112 -90h-102c16 119 90 186 214 186c95 0 169 -50 198 -135c9 -27 15 -62 15 -104v-102c0 -42 -6 -77 -15 -104c-29 -85 -103 -135 -198 -135
c-118 0 -199 70 -213 176h102c13 -57 56 -80 111 -80z" />
    <glyph glyph-name="afii10096" unicode="&#x44e;" horiz-adv-x="727" 
d="M73 0v560h100v-232h99v3c0 42 5 77 14 104c27 85 97 135 186 135s159 -50 186 -135c9 -27 14 -62 14 -104v-102c0 -42 -5 -77 -14 -104c-27 -85 -97 -135 -186 -135s-159 50 -186 135c-9 27 -14 62 -14 104v3h-99v-232h-100zM572 231v98c0 34 -4 60 -11 79
c-15 43 -46 66 -89 66s-74 -23 -89 -66c-7 -19 -11 -45 -11 -79v-98c0 -34 4 -60 11 -79c15 -43 46 -66 89 -66s74 23 89 66c7 19 11 45 11 79z" />
    <glyph glyph-name="afii10097" unicode="&#x44f;" horiz-adv-x="521" 
d="M18 0v2c20 15 32 45 36 89l7 80c5 56 23 89 77 107c-56 26 -84 79 -84 128c0 82 52 133 131 148c19 4 48 6 75 6h188v-560h-100v232h-106c-56 0 -78 -20 -81 -65l-6 -79c-3 -41 -13 -70 -32 -88h-105zM348 466h-96c-45 0 -95 -15 -95 -68c0 -45 32 -72 94 -72h97v140z
" />
    <glyph glyph-name="uni0450" unicode="&#x450;" 
d="M269 570c95 0 169 -50 198 -135c9 -27 15 -62 15 -104v-74h-327v-34c0 -86 43 -142 113 -142c53 0 93 31 109 85h103c-23 -115 -105 -176 -212 -176c-95 0 -169 50 -198 135c-9 27 -15 62 -15 104v102c0 42 6 77 15 104c29 85 104 135 199 135zM167 413
c-7 -17 -11 -38 -12 -66h228c-1 28 -5 49 -12 66c-17 43 -54 66 -102 66s-85 -23 -102 -66zM360 627h-71l-173 180h126z" />
    <glyph glyph-name="afii10071" unicode="&#x451;" 
d="M269 570c95 0 169 -50 198 -135c9 -27 15 -62 15 -104v-74h-327v-34c0 -86 43 -142 113 -142c53 0 93 31 109 85h103c-23 -115 -105 -176 -212 -176c-95 0 -169 50 -198 135c-9 27 -15 62 -15 104v102c0 42 6 77 15 104c29 85 104 135 199 135zM167 413
c-7 -17 -11 -38 -12 -66h228c-1 28 -5 49 -12 66c-17 43 -54 66 -102 66s-85 -23 -102 -66zM221 644h-105v111h105v-111zM420 644h-105v111h105v-111z" />
    <glyph glyph-name="afii10099" unicode="&#x452;" horiz-adv-x="590" 
d="M520 336v-370c0 -142 -79 -203 -197 -203c-17 0 -35 1 -45 2v96c12 -1 27 -2 38 -2c71 0 104 24 104 108v366c0 32 -4 55 -10 73c-15 44 -48 68 -99 68c-50 0 -93 -36 -114 -80c-8 -17 -13 -36 -13 -69v-325h-100v643h-94v70h94v72h100v-72h172v-70h-172v-87
c0 -25 -1 -58 -1 -58h1c31 43 80 72 146 72c93 0 156 -53 180 -143c7 -24 10 -61 10 -91z" />
    <glyph glyph-name="afii10100" unicode="&#x453;" horiz-adv-x="457" 
d="M73 0v560h358v-96h-258v-464h-100zM225 627h-71l118 180h126z" />
    <glyph glyph-name="afii10101" unicode="&#x454;" horiz-adv-x="525" 
d="M256 86c55 0 98 23 111 80h102c-14 -106 -95 -176 -213 -176c-95 0 -169 50 -198 135c-9 27 -15 62 -15 104v102c0 42 6 77 15 104c29 85 103 135 198 135c124 0 198 -67 214 -186h-102c-8 57 -48 90 -112 90c-48 0 -84 -23 -101 -66c-8 -19 -12 -45 -12 -79v-3h187v-93
h-187v-2c0 -34 4 -60 12 -79c17 -43 53 -66 101 -66z" />
    <glyph glyph-name="afii10102" unicode="&#x455;" horiz-adv-x="489" 
d="M225 247c-155 38 -167 118 -167 165c0 96 77 158 185 158c104 0 182 -50 196 -157h-102c-13 45 -44 69 -94 69c-51 0 -87 -28 -87 -68s25 -59 105 -78c102 -24 186 -64 186 -176c0 -106 -84 -170 -193 -170c-118 0 -199 62 -216 176h102c15 -56 52 -86 112 -86
c57 0 94 30 95 76c1 50 -33 69 -122 91z" />
    <glyph glyph-name="afii10103" unicode="&#x456;" horiz-adv-x="246" 
d="M73 0v560h100v-560h-100zM70 647v113h106v-113h-106z" />
    <glyph glyph-name="afii10104" unicode="&#x457;" horiz-adv-x="246" 
d="M73 0v560h100v-560h-100zM76 644h-105v111h105v-111zM275 644h-105v111h105v-111z" />
    <glyph glyph-name="afii10105" unicode="&#x458;" horiz-adv-x="255" 
d="M82 -33v593h100v-594c0 -142 -79 -203 -197 -203c-17 0 -35 1 -45 2v96c12 -1 27 -2 38 -2c71 0 104 24 104 108zM79 647v113h106v-113h-106z" />
    <glyph glyph-name="afii10106" unicode="&#x459;" horiz-adv-x="795" 
d="M125 560h327v-204h87c37 0 68 -5 90 -12c72 -24 118 -86 118 -166s-46 -142 -118 -166c-22 -7 -53 -12 -90 -12h-187v464h-132l-11 -203c-6 -113 -28 -252 -201 -261v95c81 4 96 90 101 171zM452 262v-168h86c35 0 51 4 66 12c26 13 43 39 43 72s-17 59 -43 72
c-15 8 -31 12 -66 12h-86z" />
    <glyph glyph-name="afii10107" unicode="&#x45a;" horiz-adv-x="788" 
d="M73 0v560h100v-204h172v204h100v-204h87c37 0 68 -5 90 -12c72 -24 118 -86 118 -166s-46 -142 -118 -166c-22 -7 -53 -12 -90 -12h-187v260h-172v-260h-100zM445 262v-168h86c35 0 51 4 66 12c26 13 43 39 43 72s-17 59 -43 72c-15 8 -31 12 -66 12h-86z" />
    <glyph glyph-name="afii10108" unicode="&#x45b;" horiz-adv-x="590" 
d="M520 0h-100v333c0 32 -4 55 -10 73c-15 44 -48 68 -99 68c-50 0 -93 -36 -114 -80c-8 -17 -13 -36 -13 -69v-325h-100v643h-94v70h94v72h100v-72h172v-70h-172v-87c0 -25 -1 -58 -1 -58h1c31 43 80 72 146 72c93 0 156 -53 180 -143c7 -24 10 -61 10 -91v-336z" />
    <glyph glyph-name="afii10109" unicode="&#x45c;" horiz-adv-x="549" 
d="M73 0v560h100v-224h62c62 0 83 23 95 76l10 42c17 69 46 111 122 111c16 0 36 -1 55 -5v-86c-14 3 -22 5 -36 5c-26 0 -41 -15 -47 -42l-7 -36c-13 -63 -32 -103 -77 -128l179 -273h-118l-159 246h-79v-246h-100zM284 627h-71l118 180h126z" />
    <glyph glyph-name="uni045D" unicode="&#x45d;" horiz-adv-x="567" 
d="M394 403h1s-1 -33 -1 -58v-345h100v560h-113c-64 -126 -143 -276 -208 -403h-1s1 33 1 58v345h-100v-560h114zM382 627h-71l-173 180h126z" />
    <glyph glyph-name="afii10110" unicode="&#x45e;" horiz-adv-x="508" 
d="M77 -120c54 0 79 33 97 81l30 80l-193 519h107l138 -394h2l135 394h106l-234 -637c-35 -95 -92 -139 -176 -139c-30 0 -57 4 -80 11v95c22 -5 42 -10 68 -10zM259 623c-96 0 -164 66 -170 167h70c7 -62 41 -105 100 -105s93 43 100 105h70c-6 -101 -74 -167 -170 -167z
" />
    <glyph glyph-name="afii10193" unicode="&#x45f;" horiz-adv-x="560" 
d="M487 0h-159v-200h-96v200h-159v560h100v-464h214v464h100v-560z" />
    <glyph glyph-name="uni0460" unicode="&#x460;" horiz-adv-x="852" 
d="M373 285v226h106v-226c0 -124 35 -193 97 -193c54 0 108 81 108 305c0 107 -25 253 -61 353h109c39 -100 60 -242 60 -352c0 -304 -103 -408 -205 -408c-84 0 -136 52 -161 135c-25 -83 -77 -135 -161 -135c-102 0 -205 104 -205 408c0 110 21 252 60 352h109
c-36 -100 -61 -246 -61 -353c0 -224 54 -305 108 -305c62 0 97 69 97 193z" />
    <glyph glyph-name="uni0461" unicode="&#x461;" horiz-adv-x="707" 
d="M303 224v165h100v-165c0 -90 25 -138 70 -138c38 0 78 54 78 209c0 76 -23 185 -53 265h103c33 -78 51 -184 51 -264c0 -228 -86 -306 -171 -306c-62 0 -105 41 -128 103c-23 -62 -65 -103 -128 -103c-84 0 -170 78 -170 306c0 80 17 186 51 264h103
c-32 -80 -53 -189 -53 -265c0 -155 39 -209 78 -209c44 0 69 48 69 138z" />
    <glyph glyph-name="afii10146" unicode="&#x462;" horiz-adv-x="729" 
d="M16 630h176v120h106v-120h203v-70h-203v-101h132c53 0 83 -5 109 -15c87 -32 142 -111 142 -213c0 -104 -55 -184 -142 -216c-26 -10 -58 -15 -109 -15h-238v560h-176v70zM428 356h-130v-253h130c46 0 68 6 87 17c37 21 60 62 60 111c0 47 -23 87 -60 108
c-19 11 -41 17 -87 17z" />
    <glyph glyph-name="afii10194" unicode="&#x463;" horiz-adv-x="609" 
d="M246 418v-62h107c37 0 68 -5 90 -12c72 -24 118 -86 118 -166s-46 -142 -118 -166c-22 -7 -53 -12 -90 -12h-207v418h-134v70h134v72h100v-72h162v-70h-162zM246 262v-168h106c35 0 51 4 66 12c26 13 43 39 43 72s-17 59 -43 72c-15 8 -31 12 -66 12h-106z" />
    <glyph glyph-name="uni0464" unicode="&#x464;" horiz-adv-x="826" 
d="M671 162c5 12 9 26 11 42h108c-3 -28 -8 -51 -16 -71c-35 -94 -128 -143 -222 -143h-3c-93 0 -183 51 -221 143c-12 30 -18 66 -18 114v92h-128v-339h-106v750h106v-308h128v61c0 48 6 84 18 114c38 92 128 143 221 143h3c94 0 185 -51 222 -143c7 -19 12 -40 15 -65
h-108c-2 13 -5 25 -10 36c-22 51 -72 70 -119 70h-3c-47 0 -96 -20 -119 -70c-10 -22 -14 -51 -14 -85v-61h231v-103h-231v-92c0 -34 4 -63 14 -85c23 -50 72 -69 119 -69h3c47 0 96 19 119 69z" />
    <glyph glyph-name="uni0465" unicode="&#x465;" horiz-adv-x="736" 
d="M483 86c51 0 94 23 107 80h102c-14 -106 -95 -176 -209 -176c-91 0 -165 50 -194 135c-9 27 -15 62 -15 104v4h-101v-233h-100v560h100v-234h101v5c0 42 6 77 15 104c29 85 103 135 194 135c120 0 194 -67 210 -186h-102c-8 57 -48 90 -108 90c-44 0 -80 -23 -97 -66
c-8 -19 -12 -45 -12 -79v-3h179v-93h-179v-2c0 -34 4 -60 12 -79c17 -43 53 -66 97 -66z" />
    <glyph glyph-name="uni0466" unicode="&#x466;" horiz-adv-x="650" 
d="M371 288v-288h-92v288h-75l-93 -288h-107l248 750h146l248 -750h-107l-93 288h-75zM329 650h-8l-87 -267h181z" />
    <glyph glyph-name="uni0467" unicode="&#x467;" horiz-adv-x="560" 
d="M321 207v-207h-82v207h-58l-73 -207h-101l205 560h136l205 -560h-101l-73 207h-58zM351 290l-69 193h-4l-69 -193h142z" />
    <glyph glyph-name="uni0468" unicode="&#x468;" horiz-adv-x="900" 
d="M621 288v-288h-92v288h-75l-93 -288h-107l95 288h-167v-288h-106v750h106v-367h198l122 367h146l248 -750h-107l-93 288h-75zM579 650h-8l-87 -267h181z" />
    <glyph glyph-name="uni0469" unicode="&#x469;" horiz-adv-x="780" 
d="M541 207v-207h-82v207h-58l-73 -207h-101l76 207h-130v-207h-100v560h100v-270h160l99 270h136l205 -560h-101l-73 207h-58zM571 290l-69 193h-4l-69 -193h142z" />
    <glyph glyph-name="uni046A" unicode="&#x46a;" horiz-adv-x="716" 
d="M408 0h-100v348h-16c-50 0 -99 -21 -122 -71c-10 -22 -14 -52 -14 -86v-191h-100v193c0 48 5 84 17 114c30 74 91 119 175 134l-188 309h596l-188 -309c84 -15 145 -60 175 -134c12 -30 17 -66 17 -114v-193h-100v191c0 34 -4 64 -14 86c-23 50 -72 71 -122 71h-16v-348z
M482 654h-248l123 -208h2z" />
    <glyph glyph-name="uni046B" unicode="&#x46b;" horiz-adv-x="618" 
d="M309 338l89 137h-178zM358 0h-98v252h-14c-37 0 -71 -14 -87 -46c-7 -14 -10 -36 -10 -58v-148h-93v151c0 36 5 65 15 87c23 48 65 80 136 94l-153 228h510l-153 -228c71 -14 113 -46 136 -94c10 -22 15 -51 15 -87v-151h-93v148c0 22 -3 44 -10 58c-16 32 -50 46 -87 46
h-14v-252z" />
    <glyph glyph-name="uni046C" unicode="&#x46c;" horiz-adv-x="968" 
d="M660 0h-100v348h-16c-50 0 -99 -21 -122 -71c-10 -22 -14 -52 -14 -86v-191h-100v193c0 63 15 117 53 158c-15 -2 -32 -3 -48 -3h-131v-348h-106v750h106v-307h317l-187 307h596l-188 -309c84 -15 145 -60 175 -134c12 -30 17 -66 17 -114v-193h-100v191
c0 34 -4 64 -14 86c-23 50 -72 71 -122 71h-16v-348zM734 654h-248l123 -208h2z" />
    <glyph glyph-name="uni046D" unicode="&#x46d;" horiz-adv-x="832" 
d="M572 0h-98v252h-14c-37 0 -71 -14 -87 -46c-7 -14 -10 -36 -10 -58v-148h-93v151c0 54 15 82 45 105c-15 -2 -38 -4 -57 -4h-85v-252h-100v560h100v-227h247l-152 227h510l-153 -228c71 -14 113 -46 136 -94c10 -22 15 -51 15 -87v-151h-93v148c0 22 -3 44 -10 58
c-16 32 -50 46 -87 46h-14v-252zM523 338l89 137h-178z" />
    <glyph glyph-name="uni046E" unicode="&#x46e;" horiz-adv-x="591" 
d="M284 804l69 92c32 43 63 54 99 54c11 0 27 -1 28 -1v-59c-1 0 -10 1 -20 1c-16 0 -36 -6 -58 -34l-77 -101c112 -16 195 -95 195 -200c0 -75 -33 -139 -114 -178v-1c81 -39 119 -107 119 -182c0 -118 -93 -189 -229 -201l-57 -5c-92 -8 -114 -38 -114 -78s37 -65 81 -65
c64 0 116 47 214 47c10 0 20 -1 31 -2v-95c-13 1 -24 2 -35 2c-95 0 -117 -41 -210 -41c-98 0 -179 52 -179 156c0 85 45 157 200 171l56 5c78 7 136 42 136 116c0 63 -48 126 -160 126h-87v93h87c112 0 155 60 155 122c0 74 -56 113 -131 113c-88 0 -136 -42 -137 -113
h-105c0 112 74 195 199 210l-154 190h88z" />
    <glyph glyph-name="uni046F" unicode="&#x46f;" horiz-adv-x="475" 
d="M435 151c0 -91 -77 -147 -190 -155l-51 -4c-67 -6 -83 -28 -83 -53s26 -44 57 -44c57 0 111 33 183 33c11 0 20 -1 25 -1v-89c-5 0 -18 2 -29 2c-66 0 -122 -30 -179 -30c-82 0 -150 45 -150 130c0 70 37 133 166 142l50 3c56 4 101 29 101 73c0 39 -32 81 -115 81h-69
v88h69c83 0 111 39 111 78c0 46 -37 71 -96 71c-71 0 -111 -27 -111 -76h-100c0 84 57 147 153 165l-121 147h88l84 -109l45 59c32 43 63 54 99 54c11 0 27 -1 28 -1v-59c-1 0 -10 1 -20 1c-16 0 -36 -6 -58 -34l-45 -56c91 -14 154 -70 154 -147c0 -58 -25 -104 -91 -137
c69 -30 95 -80 95 -132z" />
    <glyph glyph-name="uni0470" unicode="&#x470;" horiz-adv-x="754" 
d="M327 0v284h-35c-115 0 -185 60 -215 134c-12 30 -17 66 -17 114v218h100v-216c0 -34 4 -64 14 -86c23 -50 72 -71 122 -71h31v373h100v-373h31c50 0 99 21 122 71c10 22 14 52 14 86v216h100v-218c0 -48 -5 -84 -17 -114c-30 -74 -100 -134 -215 -134h-35v-284h-100z" />
    <glyph glyph-name="uni0471" unicode="&#x471;" horiz-adv-x="689" 
d="M508 560h100s24 -121 24 -241c0 -214 -52 -329 -227 -329h-12v-234h-94v234h-12c-105 0 -179 50 -208 135c-9 27 -15 62 -15 104v331h100v-329c0 -34 4 -60 12 -79c17 -43 53 -66 111 -66h12v699h94v-699h12c115 0 127 96 127 235c0 87 -24 239 -24 239z" />
    <glyph glyph-name="afii10147" unicode="&#x472;" horiz-adv-x="616" 
d="M65 247v256c0 48 6 84 18 114c38 92 128 143 221 143h8c93 0 183 -51 221 -143c12 -30 18 -66 18 -114v-256c0 -48 -6 -84 -18 -114c-38 -92 -128 -143 -221 -143h-8c-93 0 -183 51 -221 143c-12 30 -18 66 -18 114zM445 247v102c-14 -27 -37 -41 -72 -41
c-72 0 -93 76 -149 76c-22 0 -48 -17 -53 -63v-74c0 -34 4 -64 14 -86c23 -50 72 -69 119 -69h8c47 0 96 19 119 69c10 22 14 52 14 86zM242 458c72 0 94 -76 150 -76c22 0 49 17 53 63v58c0 34 -4 64 -14 86c-23 50 -72 69 -119 69h-8c-47 0 -96 -19 -119 -69
c-10 -22 -14 -52 -14 -86v-86c14 26 36 41 71 41z" />
    <glyph glyph-name="afii10195" unicode="&#x473;" 
d="M481 331v-102c0 -42 -6 -77 -15 -104c-29 -85 -103 -135 -198 -135s-169 50 -198 135c-9 27 -15 62 -15 104v102c0 42 6 77 15 104c29 85 103 135 198 135s169 -50 198 -135c9 -27 15 -62 15 -104zM213 345c60 0 83 -59 124 -59c19 0 41 11 44 48c-1 31 -5 56 -12 74
c-17 43 -53 66 -101 66s-84 -23 -101 -66c-8 -19 -12 -45 -12 -79v-17c13 20 31 33 58 33zM381 231v15c-13 -21 -32 -33 -59 -33c-60 0 -82 59 -124 59c-18 0 -39 -11 -43 -48c0 -31 4 -55 12 -72c17 -43 53 -66 101 -66s84 23 101 66c8 19 12 45 12 79z" />
    <glyph glyph-name="afii10148" unicode="&#x474;" horiz-adv-x="649" 
d="M523 569l-166 -569h-131l-214 750h111l171 -631h2l129 477c28 105 81 154 176 154c17 0 38 -1 48 -2v-96c-12 1 -24 2 -38 2c-49 0 -70 -25 -88 -85z" />
    <glyph glyph-name="afii10196" unicode="&#x475;" horiz-adv-x="545" 
d="M433 405l-135 -405h-102l-187 560h106l134 -439h2l94 309c30 98 81 130 161 130c16 0 35 -1 37 -1v-87c-2 0 -12 1 -26 1c-39 0 -67 -16 -84 -68z" />
    <glyph glyph-name="uni0476" unicode="&#x476;" horiz-adv-x="649" 
d="M478 807h-69l-161 180h117zM284 807h-69l-161 180h117zM523 569l-166 -569h-131l-214 750h111l171 -631h2l129 477c28 105 81 154 176 154c17 0 38 -1 48 -2v-96c-12 1 -24 2 -38 2c-49 0 -70 -25 -88 -85z" />
    <glyph glyph-name="uni0477" unicode="&#x477;" horiz-adv-x="545" 
d="M422 657h-69l-161 180h117zM228 657h-69l-161 180h117zM433 405l-135 -405h-102l-187 560h106l134 -439h2l94 309c30 98 81 130 161 130c16 0 35 -1 37 -1v-87c-2 0 -12 1 -26 1c-39 0 -67 -16 -84 -68z" />
    <glyph glyph-name="uni0478" unicode="&#x478;" horiz-adv-x="1124" 
d="M445 247v256c0 34 -4 64 -14 86c-23 50 -72 69 -119 69h-8c-47 0 -96 -19 -119 -69c-10 -22 -14 -52 -14 -86v-256c0 -34 4 -64 14 -86c23 -50 72 -69 119 -69h8c47 0 96 19 119 69c10 22 14 52 14 86zM65 247v256c0 48 6 84 18 114c38 92 128 143 221 143h8
c93 0 183 -51 221 -143c12 -30 18 -66 18 -114v-256c0 -48 -6 -84 -18 -114c-38 -92 -128 -143 -221 -143h-8c-93 0 -183 51 -221 143c-12 30 -18 66 -18 114zM693 -120c54 0 79 33 97 81l30 80l-193 519h107l138 -394h2l135 394h106l-234 -637c-35 -95 -92 -139 -176 -139
c-30 0 -57 4 -80 11v95c22 -5 42 -10 68 -10z" />
    <glyph glyph-name="uni0479" unicode="&#x479;" horiz-adv-x="1036" 
d="M481 331v-102c0 -42 -6 -77 -15 -104c-29 -85 -103 -135 -198 -135s-169 50 -198 135c-9 27 -15 62 -15 104v102c0 42 6 77 15 104c29 85 103 135 198 135s169 -50 198 -135c9 -27 15 -62 15 -104zM381 231v98c0 34 -4 60 -12 79c-17 43 -53 66 -101 66s-84 -23 -101 -66
c-8 -19 -12 -45 -12 -79v-98c0 -34 4 -60 12 -79c17 -43 53 -66 101 -66s84 23 101 66c8 19 12 45 12 79zM605 -120c54 0 79 33 97 81l30 80l-193 519h107l138 -394h2l135 394h106l-234 -637c-35 -95 -92 -139 -176 -139c-30 0 -57 4 -80 11v95c22 -5 42 -10 68 -10z" />
    <glyph glyph-name="uni047A" unicode="&#x47a;" horiz-adv-x="616" 
d="M65 247v256c0 48 6 84 18 114c31 75 97 123 171 138c3 28 25 50 54 50s51 -22 54 -50c74 -15 140 -63 171 -138c12 -30 18 -66 18 -114v-256c0 -48 -6 -84 -18 -114c-31 -76 -97 -123 -171 -138c-3 -28 -25 -50 -54 -50s-51 22 -54 50c-74 15 -140 62 -171 138
c-12 30 -18 66 -18 114zM445 242v266c0 34 -4 64 -14 86c-15 33 -42 52 -71 62c-6 -24 -26 -41 -52 -41s-46 17 -52 41c-30 -10 -56 -29 -71 -62c-10 -22 -14 -52 -14 -86v-266c0 -34 4 -64 14 -86c15 -33 41 -53 71 -62c6 23 26 41 52 41s46 -18 52 -41c29 9 56 29 71 62
c10 22 14 52 14 86z" />
    <glyph glyph-name="uni047B" unicode="&#x47b;" 
d="M481 331v-102c0 -42 -6 -77 -15 -104c-24 -68 -76 -114 -144 -129c-3 -28 -25 -51 -54 -51c-30 0 -52 23 -54 51c-69 15 -121 61 -144 129c-9 27 -15 62 -15 104v102c0 42 6 77 15 104c23 68 75 113 144 129c2 28 24 51 54 51c29 0 51 -23 54 -51
c68 -16 120 -61 144 -129c9 -27 15 -62 15 -104zM381 226v108c0 34 -4 60 -12 79c-10 25 -27 44 -49 55c-7 -23 -27 -40 -52 -40c-26 0 -46 17 -52 40c-22 -11 -39 -30 -49 -55c-8 -19 -12 -45 -12 -79v-108c0 -34 4 -60 12 -79c10 -26 27 -44 49 -55c6 23 26 40 52 40
c25 0 45 -17 52 -40c22 11 39 29 49 55c8 19 12 45 12 79z" />
    <glyph glyph-name="uni047C" unicode="&#x47c;" horiz-adv-x="852" 
d="M373 285v226h106v-226c0 -124 35 -193 97 -193c54 0 108 81 108 305c0 107 -25 253 -61 353h109c39 -100 60 -242 60 -352c0 -304 -103 -408 -205 -408c-84 0 -136 52 -161 135c-25 -83 -77 -135 -161 -135c-102 0 -205 104 -205 408c0 110 21 252 60 352h109
c-36 -100 -61 -246 -61 -353c0 -224 54 -305 108 -305c62 0 97 69 97 193zM263 800v95h250v45h80v-95h-250v-45h-80z" />
    <glyph glyph-name="uni047D" unicode="&#x47d;" horiz-adv-x="707" 
d="M303 224v165h100v-165c0 -90 25 -138 70 -138c38 0 78 54 78 209c0 76 -23 185 -53 265h103c33 -78 51 -184 51 -264c0 -228 -86 -306 -171 -306c-62 0 -105 41 -128 103c-23 -62 -65 -103 -128 -103c-84 0 -170 78 -170 306c0 80 17 186 51 264h103
c-32 -80 -53 -189 -53 -265c0 -155 39 -209 78 -209c44 0 69 48 69 138zM187 650v95h250v45h80v-95h-250v-45h-80z" />
    <glyph glyph-name="uni047E" unicode="&#x47e;" horiz-adv-x="852" 
d="M398 853h-85l-10 -46h-45v95h335v-95h-45l-10 46h-85l-10 -46h-35zM373 285v226h106v-226c0 -124 35 -193 97 -193c54 0 108 81 108 305c0 107 -25 253 -61 353h109c39 -100 60 -242 60 -352c0 -304 -103 -408 -205 -408c-84 0 -136 52 -161 135
c-25 -83 -77 -135 -161 -135c-102 0 -205 104 -205 408c0 110 21 252 60 352h109c-36 -100 -61 -246 -61 -353c0 -224 54 -305 108 -305c62 0 97 69 97 193z" />
    <glyph glyph-name="uni047F" unicode="&#x47f;" horiz-adv-x="707" 
d="M326 693h-85l-10 -46h-45v95h335v-95h-45l-10 46h-85l-10 -46h-35zM303 224v165h100v-165c0 -90 25 -138 70 -138c38 0 78 54 78 209c0 76 -23 185 -53 265h103c33 -78 51 -184 51 -264c0 -228 -86 -306 -171 -306c-62 0 -105 41 -128 103c-23 -62 -65 -103 -128 -103
c-84 0 -170 78 -170 306c0 80 17 186 51 264h103c-32 -80 -53 -189 -53 -265c0 -155 39 -209 78 -209c44 0 69 48 69 138z" />
    <glyph glyph-name="uni0480" unicode="&#x480;" horiz-adv-x="612" 
d="M452 63c-36 -49 -84 -73 -152 -73c-89 0 -179 48 -217 140c-12 30 -18 69 -18 117v256c0 48 6 84 18 114c38 92 128 143 221 143h8c94 0 185 -51 222 -143c11 -28 17 -62 18 -105h-107c-1 30 -5 56 -14 76c-23 50 -72 70 -119 70h-8c-47 0 -96 -20 -119 -70
c-10 -22 -14 -51 -14 -85v-256c0 -34 4 -63 14 -85c23 -50 72 -69 119 -69h8c91 0 131 62 133 151h107v-488h-100v307z" />
    <glyph glyph-name="uni0481" unicode="&#x481;" horiz-adv-x="530" 
d="M383 44c-30 -35 -71 -54 -123 -54c-85 0 -161 50 -190 135c-9 27 -15 62 -15 104v102c0 42 6 77 15 104c29 85 103 135 198 135c96 0 170 -48 199 -133c6 -18 10 -39 13 -63h-102c-2 14 -5 26 -9 36c-17 43 -53 64 -101 64s-84 -23 -101 -66c-8 -19 -12 -45 -12 -79v-98
c0 -34 4 -60 12 -79c17 -43 53 -66 101 -66s84 21 101 64c3 7 6 16 8 26h102v-376h-96v244z" />
    <glyph glyph-name="uni0482" unicode="&#x482;" horiz-adv-x="578" 
d="M208 283l99 213l-158 73l29 61l157 -73l97 207l63 -30l-96 -207l157 -74l-28 -60l-158 73l-99 -213l158 -73l-29 -61l-157 73l-97 -207l-63 30l96 207l-157 74l28 60z" />
    <glyph glyph-name="uni0483" unicode="&#x483;" horiz-adv-x="500" 
d="M85 650v95h250v45h80v-95h-250v-45h-80z" />
    <glyph glyph-name="uni0484" unicode="&#x484;" horiz-adv-x="500" 
d="M322 733c-57 0 -85 -50 -142 -66c-20 -6 -49 -10 -85 -10h-42v58h39c36 0 56 4 73 12c52 25 86 80 160 80c70 0 118 -50 124 -137h-64c-8 45 -33 63 -63 63z" />
    <glyph glyph-name="uni0485" unicode="&#x485;" horiz-adv-x="500" 
d="M140 742h280v-49h-280v-46h-55v141h55v-46z" />
    <glyph glyph-name="uni0486" unicode="&#x486;" horiz-adv-x="500" 
d="M80 742h280v46h55v-141h-55v46h-280v49z" />
    <glyph glyph-name="uni0487" unicode="&#x487;" horiz-adv-x="500" 
d="M178 733c-30 0 -55 -18 -63 -63h-64c6 87 54 137 124 137c74 0 108 -55 160 -80c17 -8 37 -12 73 -12h39v-58h-42c-36 0 -65 4 -85 10c-57 16 -85 66 -142 66z" />
    <glyph glyph-name="uni0488" unicode="&#x488;" horiz-adv-x="833" 
d="M408 656c57 0 94 -38 97 -95h-36c-5 34 -29 56 -61 56s-56 -22 -61 -56h-36c3 57 40 95 97 95zM408 107c57 0 94 -38 97 -95h-36c-5 34 -29 56 -61 56s-56 -22 -61 -56h-36c3 57 40 95 97 95zM133 382c57 0 94 -38 97 -95h-36c-5 34 -29 56 -61 56s-56 -22 -61 -56h-36
c3 57 40 95 97 95zM683 382c57 0 94 -38 97 -95h-36c-5 34 -29 56 -61 56s-56 -22 -61 -56h-36c3 57 40 95 97 95zM221 542c57 0 94 -38 97 -95h-36c-5 34 -29 56 -61 56s-56 -22 -61 -56h-36c3 57 40 95 97 95zM595 542c57 0 94 -38 97 -95h-36c-5 34 -29 56 -61 56
s-56 -22 -61 -56h-36c3 57 40 95 97 95zM221 217c57 0 94 -38 97 -95h-36c-5 34 -29 56 -61 56s-56 -22 -61 -56h-36c3 57 40 95 97 95zM595 217c57 0 94 -38 97 -95h-36c-5 34 -29 56 -61 56s-56 -22 -61 -56h-36c3 57 40 95 97 95z" />
    <glyph glyph-name="uni0489" unicode="&#x489;" horiz-adv-x="833" 
d="M368 68v78h80v-65c0 -50 -20 -102 -86 -111v30c36 11 45 37 45 60c0 6 -3 8 -7 8h-32zM448 618v-78h-80v65c0 50 20 102 86 111v-30c-36 -11 -45 -37 -45 -60c0 -6 3 -8 7 -8h32zM683 303h-78v80h65c50 0 102 -20 111 -86h-30c-11 36 -37 45 -60 45c-6 0 -8 -3 -8 -7v-32
zM133 383h78v-80h-65c-50 0 -102 20 -111 86h30c11 -36 37 -45 60 -45c6 0 8 3 8 7v32zM574 120l-55 55l57 57l46 -46c35 -35 58 -86 17 -139l-21 21c18 33 6 58 -11 74c-4 4 -7 4 -10 1zM242 566l55 -55l-57 -57l-46 46c-35 35 -58 86 -17 139l21 -21
c-18 -33 -6 -58 11 -74c4 -4 7 -4 10 -1zM631 509l-55 -55l-57 57l46 46c35 35 86 58 139 17l-21 -21c-33 18 -58 6 -74 -11c-4 -4 -4 -7 -1 -10zM185 177l55 55l57 -57l-46 -46c-35 -35 -86 -58 -139 -17l21 21c33 -18 58 -6 74 11c4 4 4 7 1 10z" />
    <glyph glyph-name="uni048A" unicode="&#x48a;" horiz-adv-x="705" 
d="M466 571l-263 -571h-127v750h106v-513c0 -25 -1 -58 -1 -58h1l264 571h126v-647h121l-73 -347h-100l52 244h-106v513c0 25 1 58 0 58zM324 803c-96 0 -164 66 -170 167h70c7 -62 41 -105 100 -105s93 43 100 105h70c-6 -101 -74 -167 -170 -167z" />
    <glyph glyph-name="uni048B" unicode="&#x48b;" horiz-adv-x="618" 
d="M494 0h-100v343c0 25 1 58 1 58h-1l-207 -401h-114v560h100v-343c0 -25 -1 -58 -1 -58h1c65 127 144 275 208 401h113v-464h116l-63 -296h-96zM283 623c-96 0 -164 66 -170 167h70c7 -62 41 -105 100 -105s93 43 100 105h70c-6 -101 -74 -167 -170 -167z" />
    <glyph glyph-name="uni048C" unicode="&#x48c;" horiz-adv-x="685" 
d="M22 630h126v120h106v-120h153v-70h-153v-101h132c53 0 83 -5 109 -15c87 -32 142 -111 142 -213c0 -104 -55 -184 -142 -216c-26 -10 -58 -15 -109 -15h-238v560h-126v70zM384 356h-130v-253h130c46 0 68 6 87 17c37 21 60 62 60 111c0 47 -23 87 -60 108
c-19 11 -41 17 -87 17z" />
    <glyph glyph-name="uni048D" unicode="&#x48d;" horiz-adv-x="579" 
d="M216 418v-62h107c37 0 68 -5 90 -12c72 -24 118 -86 118 -166s-46 -142 -118 -166c-22 -7 -53 -12 -90 -12h-207v418h-104v70h104v72h100v-72h112v-70h-112zM216 262v-168h106c35 0 51 4 66 12c26 13 43 39 43 72s-17 59 -43 72c-15 8 -31 12 -66 12h-106z" />
    <glyph glyph-name="uni048E" unicode="&#x48e;" horiz-adv-x="603" 
d="M304 291h-122v-291h-106v750h228c51 0 83 -5 109 -15c87 -32 142 -112 142 -216c0 -90 -42 -161 -111 -199l47 -81l-52 -30l-52 89c-21 -5 -46 -7 -83 -7zM288 471l52 29l51 -88c36 21 58 61 58 107c0 49 -23 90 -60 111c-19 11 -41 17 -87 17h-120v-253h120
c11 0 21 0 30 1z" />
    <glyph glyph-name="uni048F" unicode="&#x48f;" horiz-adv-x="564" 
d="M310 -10c-54 0 -105 23 -137 58h-1s1 -33 1 -58v-234h-100v804h75l13 -73h1c33 51 83 83 153 83c93 0 160 -53 184 -143c7 -24 10 -61 10 -91v-104c0 -34 -3 -67 -9 -91c-13 -50 -37 -88 -70 -113l46 -78l-52 -30l-47 80c-21 -6 -43 -10 -67 -10zM273 182l52 29l52 -91
c10 12 18 26 23 42c6 17 9 37 9 69v102c0 32 -4 55 -10 73c-15 44 -48 68 -99 68c-50 0 -93 -36 -114 -80c-8 -17 -13 -36 -13 -69v-87c0 -25 3 -46 8 -62c16 -50 55 -90 114 -90c11 0 21 1 31 3z" />
    <glyph glyph-name="afii10050" unicode="&#x490;" horiz-adv-x="537" 
d="M76 0v750h331v204h100v-307h-325v-647h-106z" />
    <glyph glyph-name="afii10098" unicode="&#x491;" horiz-adv-x="457" 
d="M173 464v-464h-100v560h262v170h96v-266h-258z" />
    <glyph glyph-name="uni0492" unicode="&#x492;" horiz-adv-x="584" 
d="M229 357v-357h-106v357h-108v76h108v317h431v-103h-325v-214h188v-76h-188z" />
    <glyph glyph-name="uni0493" unicode="&#x493;" horiz-adv-x="496" 
d="M212 243v-243h-100v243h-94v70h94v247h358v-96h-258v-151h162v-70h-162z" />
    <glyph glyph-name="uni0494" unicode="&#x494;" horiz-adv-x="622" 
d="M182 357v-357h-106v750h431v-103h-325v-189c44 8 82 12 141 12c139 0 215 -73 235 -186c3 -19 4 -50 4 -81v-179c0 -156 -78 -265 -230 -265c-62 0 -122 20 -168 67l72 76c27 -26 61 -39 100 -39c64 0 120 49 120 149l1 191c0 27 -1 53 -4 67c-11 61 -51 98 -144 98
c-51 0 -87 -4 -127 -11z" />
    <glyph glyph-name="uni0495" unicode="&#x495;" horiz-adv-x="513" 
d="M459 147v-181c0 -142 -79 -203 -197 -203c-17 0 -35 1 -45 2v96c12 -1 27 -2 38 -2c71 0 104 24 104 108v180c0 17 -1 34 -4 45c-9 39 -35 63 -106 63c-36 0 -63 -3 -91 -7v-248h-100v560h358v-96h-258v-121c31 5 60 7 104 7c114 0 179 -55 194 -143c2 -13 3 -37 3 -60z
" />
    <glyph glyph-name="uni0496" unicode="&#x496;" horiz-adv-x="999" 
d="M429 750h106v-308h66c86 0 116 33 132 113l11 54c19 94 53 145 139 145c17 0 35 -1 55 -4v-96c-11 2 -21 3 -31 3c-39 0 -56 -18 -64 -64l-9 -49c-16 -88 -44 -144 -100 -175l158 -266h95v-347h-100v244h-58l-197 339h-97v-339h-106v339h-97l-197 -339h-124l219 369
c-56 31 -84 87 -100 175l-9 49c-9 46 -26 64 -65 64c-9 0 -19 -1 -30 -3v96c20 3 38 4 54 4c87 0 121 -51 140 -145l11 -54c16 -80 46 -113 132 -113h66v308z" />
    <glyph glyph-name="uni0497" unicode="&#x497;" horiz-adv-x="835" 
d="M458 560v-224h44c62 0 83 23 95 76l10 42c17 69 46 111 122 111c16 0 36 -1 55 -5v-86c-14 3 -22 5 -36 5c-26 0 -41 -15 -47 -42l-7 -36c-13 -63 -32 -103 -77 -128l116 -177h87v-296h-96v200h-46l-159 246h-61v-246h-100v246h-61l-159 -246h-118l179 273
c-45 25 -64 65 -77 128l-7 36c-6 27 -21 42 -47 42c-14 0 -22 -2 -36 -5v86c19 4 39 5 55 5c76 0 105 -42 122 -111l10 -42c12 -53 33 -76 95 -76h44v224h100z" />
    <glyph glyph-name="uni0498" unicode="&#x498;" horiz-adv-x="591" 
d="M406 378v-1c81 -39 119 -107 119 -182c0 -101 -78 -181 -185 -201c27 -41 47 -86 46 -127c-2 -57 -45 -95 -111 -95c-34 0 -67 9 -87 19l16 54c15 -6 42 -14 66 -14c27 0 45 17 45 51c0 28 -15 63 -42 106c-144 4 -232 91 -232 213h105c1 -71 49 -113 137 -113
c78 0 136 43 136 117c0 63 -48 126 -160 126h-87v93h87c112 0 155 60 155 122c0 74 -56 113 -131 113c-88 0 -136 -42 -137 -113h-105c0 125 92 213 242 213c132 0 237 -85 237 -203c0 -75 -33 -139 -114 -178z" />
    <glyph glyph-name="uni0499" unicode="&#x499;" horiz-adv-x="489" 
d="M444 420c0 -58 -25 -104 -91 -137c69 -30 95 -80 95 -132c0 -72 -52 -137 -143 -155c27 -42 48 -87 47 -129c-2 -57 -45 -95 -111 -95c-34 0 -67 9 -87 19l16 54c15 -6 42 -14 66 -14c27 0 45 17 45 51c0 29 -16 64 -44 108c-124 4 -200 74 -200 171h100
c0 -48 40 -77 111 -77c61 0 100 28 100 74c0 39 -32 81 -115 81h-69v88h69c83 0 111 39 111 78c0 46 -37 71 -96 71c-71 0 -111 -27 -111 -76h-100c0 100 81 170 211 170c113 0 196 -61 196 -150z" />
    <glyph glyph-name="uni049A" unicode="&#x49a;" horiz-adv-x="671" 
d="M76 0v750h106v-308h86c86 0 116 33 132 113l11 54c19 94 53 145 139 145c17 0 35 -1 55 -4v-96c-11 2 -21 3 -31 3c-39 0 -56 -18 -64 -64l-9 -49c-16 -88 -44 -144 -100 -175l158 -266h100v-347h-100v244h-63l-197 339h-117v-339h-106z" />
    <glyph glyph-name="uni049B" unicode="&#x49b;" horiz-adv-x="573" 
d="M73 0v560h100v-224h62c62 0 83 23 95 76l10 42c17 69 46 111 122 111c16 0 36 -1 55 -5v-86c-14 3 -22 5 -36 5c-26 0 -41 -15 -47 -42l-7 -36c-13 -63 -32 -103 -77 -128l115 -177h93v-296h-96v200h-51l-159 246h-79v-246h-100z" />
    <glyph glyph-name="uni049C" unicode="&#x49c;" horiz-adv-x="651" 
d="M76 0v750h106v-308h78v174h60v-172c61 8 86 42 100 111l11 54c19 94 53 145 139 145c17 0 35 -1 55 -4v-96c-11 2 -21 3 -31 3c-39 0 -56 -18 -64 -64l-9 -49c-16 -88 -44 -144 -100 -175l219 -369h-124l-196 337v-172h-60v174h-78v-339h-106z" />
    <glyph glyph-name="uni049D" unicode="&#x49d;" horiz-adv-x="579" 
d="M73 0v560h100v-224h60v171h56v-170c44 6 60 29 71 75l10 42c17 69 46 111 122 111c16 0 36 -1 55 -5v-86c-14 3 -22 5 -36 5c-26 0 -41 -15 -47 -42l-7 -36c-13 -63 -32 -103 -77 -128l179 -273h-118l-152 235v-147h-56v158h-60v-246h-100z" />
    <glyph glyph-name="uni049E" unicode="&#x49e;" horiz-adv-x="681" 
d="M126 0v560h-116v70h116v120h106v-120h108v-70h-108v-118h86c86 0 116 33 132 113l11 54c19 94 53 145 139 145c17 0 35 -1 55 -4v-96c-11 2 -21 3 -31 3c-39 0 -56 -18 -64 -64l-9 -49c-16 -88 -44 -144 -100 -175l219 -369h-124l-197 339h-117v-339h-106z" />
    <glyph glyph-name="uni049F" unicode="&#x49f;" horiz-adv-x="577" 
d="M101 0v418h-89v70h89v72h100v-72h84v-70h-84v-82h62c62 0 83 23 95 76l10 42c17 69 46 111 122 111c16 0 36 -1 55 -5v-86c-14 3 -22 5 -36 5c-26 0 -41 -15 -47 -42l-7 -36c-13 -63 -32 -103 -77 -128l179 -273h-118l-159 246h-79v-246h-100z" />
    <glyph glyph-name="uni04A0" unicode="&#x4a0;" horiz-adv-x="772" 
d="M217 0v647h-207v103h313v-308h86c86 0 116 33 132 113l11 54c19 94 53 145 139 145c17 0 35 -1 55 -4v-96c-11 2 -21 3 -31 3c-39 0 -56 -18 -64 -64l-9 -49c-16 -88 -44 -144 -100 -175l219 -369h-124l-197 339h-117v-339h-106z" />
    <glyph glyph-name="uni04A1" unicode="&#x4a1;" horiz-adv-x="661" 
d="M185 0v465h-165v95h265v-224h62c62 0 83 23 95 76l10 42c17 69 46 111 122 111c16 0 36 -1 55 -5v-86c-14 3 -22 5 -36 5c-26 0 -41 -15 -47 -42l-7 -36c-13 -63 -32 -103 -77 -128l179 -273h-118l-159 246h-79v-246h-100z" />
    <glyph glyph-name="uni04A2" unicode="&#x4a2;" horiz-adv-x="702" 
d="M590 0h-123v339h-285v-339h-106v750h106v-308h285v308h106v-647h117v-347h-100v244z" />
    <glyph glyph-name="uni04A3" unicode="&#x4a3;" horiz-adv-x="601" 
d="M495 0h-100v243h-222v-243h-100v560h100v-221h222v221h100v-464h96v-296h-96v200z" />
    <glyph glyph-name="uni04A4" unicode="&#x4a4;" horiz-adv-x="802" 
d="M573 647v-647h-106v339h-285v-339h-106v750h106v-308h285v308h313v-103h-207z" />
    <glyph glyph-name="uni04A5" unicode="&#x4a5;" horiz-adv-x="680" 
d="M495 465v-465h-100v243h-222v-243h-100v560h100v-221h222v221h265v-95h-165z" />
    <glyph glyph-name="uni04A6" unicode="&#x4a6;" horiz-adv-x="970" 
d="M540 750v-290c40 7 76 10 131 10c139 0 215 -73 235 -186c3 -19 4 -50 4 -81v-179c0 -156 -78 -265 -230 -265c-62 0 -122 20 -168 67l72 76c27 -26 61 -39 100 -39c64 0 120 49 120 149l1 191c0 27 -1 53 -4 67c-11 61 -51 98 -144 98c-47 0 -81 -4 -117 -10v-358h-106
v647h-252v-647h-106v750h464z" />
    <glyph glyph-name="uni04A7" unicode="&#x4a7;" horiz-adv-x="813" 
d="M73 0v560h395v-216c27 4 54 6 94 6c114 0 179 -55 194 -143c2 -13 3 -37 3 -60v-181c0 -142 -79 -203 -197 -203c-17 0 -35 1 -45 2v96c12 -1 27 -2 38 -2c71 0 104 24 104 108v180c0 17 -1 34 -4 45c-9 39 -35 63 -106 63c-32 0 -57 -2 -81 -6v-249h-100v464h-195v-464
h-100z" />
    <glyph glyph-name="uni04A8" unicode="&#x4a8;" horiz-adv-x="691" 
d="M563 -42c38 0 81 10 111 24v-90c-34 -15 -73 -22 -113 -22c-111 0 -179 46 -209 120h-43c-98 0 -188 51 -226 143c-12 30 -18 66 -18 114v256c0 48 6 84 18 114c38 92 128 143 221 143h8c119 0 220 -76 236 -200h-110c-8 59 -65 98 -126 98h-8c-47 0 -96 -20 -119 -70
c-10 -22 -14 -51 -14 -85v-256c0 -34 4 -64 14 -86c23 -50 71 -75 124 -75h26v237c0 106 47 183 151 183c96 0 149 -67 149 -183v-94c0 -118 -53 -218 -172 -236c19 -21 50 -35 100 -35zM433 321v-235c76 3 106 61 106 145v90c0 49 -9 89 -53 89c-39 0 -53 -33 -53 -89z" />
    <glyph glyph-name="uni04A9" unicode="&#x4a9;" horiz-adv-x="577" 
d="M465 -15c28 0 67 9 96 22v-86c-32 -13 -66 -18 -98 -18c-90 0 -143 35 -168 90h-43c-87 0 -159 49 -186 126c-7 21 -11 54 -11 89v144c0 31 3 61 8 80c23 80 91 135 189 135h5c92 0 174 -55 194 -150h-106c-13 35 -49 55 -88 55h-5c-44 0 -76 -20 -90 -56
c-5 -13 -8 -37 -8 -64v-146c0 -35 2 -50 7 -63c13 -37 45 -64 91 -64h26v1v155c0 82 39 143 125 143c79 0 124 -49 124 -138v-65c0 -81 -39 -153 -131 -175c16 -11 44 -15 69 -15zM367 81c51 7 73 46 73 95v66c0 28 -7 54 -37 54c-26 0 -36 -22 -36 -54v-161z" />
    <glyph glyph-name="uni04AA" unicode="&#x4aa;" horiz-adv-x="596" 
d="M431 162c9 21 14 49 14 82h107c-1 -47 -7 -82 -18 -111c-31 -78 -100 -126 -177 -139c27 -41 47 -86 46 -127c-2 -57 -45 -95 -111 -95c-34 0 -67 9 -87 19l16 54c15 -6 42 -14 66 -14c27 0 45 17 45 51c0 29 -16 65 -44 109c-87 5 -169 55 -205 142
c-12 30 -18 66 -18 114v256c0 48 6 84 18 114c38 92 128 143 221 143h8c94 0 185 -51 222 -143c11 -28 17 -62 18 -105h-107c-1 30 -5 56 -14 76c-23 50 -72 70 -119 70h-8c-47 0 -96 -20 -119 -70c-10 -22 -14 -51 -14 -85v-256c0 -34 4 -63 14 -85c23 -50 72 -69 119 -69
h8c47 0 96 19 119 69z" />
    <glyph glyph-name="uni04AB" unicode="&#x4ab;" horiz-adv-x="523" 
d="M369 150c3 7 6 16 8 26h102c-3 -20 -7 -38 -12 -53c-24 -71 -79 -116 -152 -129c27 -41 47 -86 46 -127c-2 -57 -45 -95 -111 -95c-34 0 -67 9 -87 19l16 54c15 -6 42 -14 66 -14c27 0 45 17 45 51c0 29 -16 65 -44 109c-85 7 -150 55 -176 134c-9 27 -15 62 -15 104v102
c0 42 6 77 15 104c29 85 103 135 198 135c96 0 170 -48 199 -133c6 -18 10 -39 13 -63h-102c-2 14 -5 26 -9 36c-17 43 -53 64 -101 64s-84 -23 -101 -66c-8 -19 -12 -45 -12 -79v-98c0 -34 4 -60 12 -79c17 -43 53 -66 101 -66s84 21 101 64z" />
    <glyph glyph-name="uni04AC" unicode="&#x4ac;" horiz-adv-x="560" 
d="M350 0h-123v647h-205v103h516v-103h-205v-544h117v-347h-100v244z" />
    <glyph glyph-name="uni04AD" unicode="&#x4ad;" horiz-adv-x="478" 
d="M289 0h-100v465h-169v95h438v-95h-169v-369h96v-296h-96v200z" />
    <glyph glyph-name="uni04AE" unicode="&#x4ae;" horiz-adv-x="582" 
d="M292 439l167 311h120l-235 -426v-324h-106v324l-235 426h120l167 -311h2z" />
    <glyph glyph-name="uni04AF" unicode="&#x4af;" horiz-adv-x="500" 
d="M491 560l-191 -560v-244h-100v244l-191 560h106l134 -434h2l134 434h106z" />
    <glyph glyph-name="uni04B0" unicode="&#x4b0;" horiz-adv-x="582" 
d="M238 294v30l-235 426h120l167 -311h2l167 311h120l-235 -426v-30h171v-70h-171v-224h-106v224h-174v70h174z" />
    <glyph glyph-name="uni04B1" unicode="&#x4b1;" horiz-adv-x="500" 
d="M491 560l-191 -560h133v-70h-133v-174h-100v174h-133v70h133l-191 560h106l134 -434h2l134 434h106z" />
    <glyph glyph-name="uni04B2" unicode="&#x4b2;" horiz-adv-x="629" 
d="M517 0h-63l-162 290l-162 -290h-121l223 390l-200 360h122l138 -261l138 261h122l-200 -360l164 -287h101v-347h-100v244z" />
    <glyph glyph-name="uni04B3" unicode="&#x4b3;" horiz-adv-x="547" 
d="M392 0l-133 209l-133 -209h-114l193 294l-177 266h115l116 -182l115 182h117l-178 -266l130 -198h96v-296h-96v200h-51z" />
    <glyph glyph-name="uni04B4" unicode="&#x4b4;" horiz-adv-x="795" 
d="M22 750h416v-103h-155v-544h277v647h106v-647h117v-347h-100v244h-506v647h-155v103z" />
    <glyph glyph-name="uni04B5" unicode="&#x4b5;" horiz-adv-x="657" 
d="M20 560h338v-95h-119v-369h214v464h100v-464h96v-296h-96v200h-414v465h-119v95z" />
    <glyph glyph-name="uni04B6" unicode="&#x4b6;" horiz-adv-x="676" 
d="M441 0v291c-44 -7 -92 -11 -151 -11c-129 0 -205 73 -225 186c-3 19 -5 50 -5 81v203h106v-203c0 -27 1 -53 4 -67c11 -61 49 -98 139 -98c54 0 92 3 132 9v359h106v-647h117v-347h-100v244h-123z" />
    <glyph glyph-name="uni04B7" unicode="&#x4b7;" horiz-adv-x="563" 
d="M457 0h-100v208c-32 -4 -71 -7 -111 -7c-112 0 -180 59 -197 143c-3 13 -5 37 -5 59v157h100v-156c0 -17 1 -32 5 -46c10 -34 41 -62 106 -62c40 0 69 2 102 7v257h100v-464h96v-296h-96v200z" />
    <glyph glyph-name="uni04B8" unicode="&#x4b8;" horiz-adv-x="643" 
d="M285 547h60v-165c42 1 85 4 116 9v359h106v-750h-106v291c-31 -5 -73 -9 -116 -10v-156h-60v155c-126 2 -201 74 -220 186c-3 19 -5 50 -5 81v203h106v-203c0 -27 1 -53 4 -67c10 -56 42 -91 115 -97v164z" />
    <glyph glyph-name="uni04B9" unicode="&#x4b9;" horiz-adv-x="550" 
d="M234 439h56v-143c35 0 60 3 87 7v257h100v-560h-100v208c-25 -3 -53 -6 -87 -7v-116h-56v116c-108 7 -169 64 -185 143c-3 13 -5 37 -5 59v157h100v-156c0 -17 1 -32 5 -46c8 -29 32 -54 85 -60v141z" />
    <glyph glyph-name="uni04BA" unicode="&#x4ba;" horiz-adv-x="623" 
d="M182 750v-291c44 7 92 11 151 11c129 0 205 -73 225 -186c3 -19 5 -50 5 -81v-203h-106v203c0 27 -1 53 -4 67c-11 61 -49 98 -139 98c-54 0 -92 -3 -132 -9v-359h-106v750h106z" />
    <glyph glyph-name="uni04BB" unicode="&#x4bb;" horiz-adv-x="530" 
d="M173 560v-208c32 4 71 7 111 7c112 0 180 -59 197 -143c3 -13 5 -37 5 -59v-157h-100v156c0 17 -1 32 -5 46c-10 34 -41 62 -106 62c-40 0 -69 -2 -102 -7v-257h-100v560h100z" />
    <glyph glyph-name="uni04BC" unicode="&#x4bc;" horiz-adv-x="746" 
d="M680 506v-163h-380v-96c0 -34 4 -63 14 -85c23 -50 72 -70 119 -70h8c47 0 96 20 119 70c7 15 11 34 13 56h108c-2 -34 -9 -62 -18 -85c-37 -92 -128 -143 -222 -143h-8c-93 0 -183 51 -221 143c-12 30 -18 66 -18 114v96h-11c-127 0 -178 72 -178 156c0 17 0 28 2 43h96
c-2 -14 -2 -21 -2 -34c0 -36 15 -65 83 -65h10v60c0 48 6 84 18 114c38 92 128 143 221 143h8c94 0 185 -50 222 -143c11 -29 17 -64 17 -111zM574 443v63c0 33 -5 61 -14 82c-23 50 -72 69 -119 69h-8c-47 0 -96 -19 -119 -69c-10 -22 -14 -51 -14 -85v-60h274z" />
    <glyph glyph-name="uni04BD" unicode="&#x4bd;" horiz-adv-x="644" 
d="M377 570c95 0 169 -50 198 -135c9 -27 15 -62 15 -104v-74h-327v-34c0 -86 43 -142 113 -142c53 0 93 31 109 85h103c-23 -115 -105 -176 -212 -176c-95 0 -169 50 -198 135c-9 27 -15 62 -15 104v28h-5c-109 0 -156 65 -156 141c0 15 0 26 2 39h87c-2 -12 -2 -19 -2 -31
c0 -32 12 -59 70 -59h4c1 35 7 64 15 88c29 85 104 135 199 135zM275 413c-7 -17 -11 -38 -12 -66h228c-1 28 -5 49 -12 66c-17 43 -54 66 -102 66s-85 -23 -102 -66z" />
    <glyph glyph-name="uni04BE" unicode="&#x4be;" horiz-adv-x="746" 
d="M680 506v-163h-380v-96c0 -34 4 -63 14 -85c23 -50 72 -70 119 -70h8c47 0 96 20 119 70c7 15 11 34 13 56h108c-2 -34 -9 -62 -18 -85c-31 -78 -101 -126 -178 -139v-194h-96v194c-77 13 -145 61 -177 139c-12 30 -18 66 -18 114v96h-11c-127 0 -178 72 -178 156
c0 17 0 28 2 43h96c-2 -14 -2 -21 -2 -34c0 -36 15 -65 83 -65h10v60c0 48 6 84 18 114c38 92 128 143 221 143h8c94 0 185 -50 222 -143c11 -29 17 -64 17 -111zM574 443v63c0 33 -5 61 -14 82c-23 50 -72 69 -119 69h-8c-47 0 -96 -19 -119 -69c-10 -22 -14 -51 -14 -85
v-60h274z" />
    <glyph glyph-name="uni04BF" unicode="&#x4bf;" horiz-adv-x="644" 
d="M377 570c95 0 169 -50 198 -135c9 -27 15 -62 15 -104v-74h-327v-34c0 -86 43 -142 113 -142c53 0 93 31 109 85h103c-20 -97 -80 -155 -162 -171v-195h-96v194c-73 13 -128 60 -152 131c-9 27 -15 62 -15 104v28h-5c-109 0 -156 65 -156 141c0 15 0 26 2 39h87
c-2 -12 -2 -19 -2 -31c0 -32 12 -59 70 -59h4c1 35 7 64 15 88c29 85 104 135 199 135zM275 413c-7 -17 -11 -38 -12 -66h228c-1 28 -5 49 -12 66c-17 43 -54 66 -102 66s-85 -23 -102 -66z" />
    <glyph glyph-name="uni04C0" unicode="&#x4c0;" horiz-adv-x="258" 
d="M76 0v750h106v-750h-106z" />
    <glyph glyph-name="uni04C1" unicode="&#x4c1;" horiz-adv-x="964" 
d="M429 750h106v-308h66c86 0 116 33 132 113l11 54c19 94 53 145 139 145c17 0 35 -1 55 -4v-96c-11 2 -21 3 -31 3c-39 0 -56 -18 -64 -64l-9 -49c-16 -88 -44 -144 -100 -175l219 -369h-124l-197 339h-97v-339h-106v339h-97l-197 -339h-124l219 369
c-56 31 -84 87 -100 175l-9 49c-9 46 -26 64 -65 64c-9 0 -19 -1 -30 -3v96c20 3 38 4 54 4c87 0 121 -51 140 -145l11 -54c16 -80 46 -113 132 -113h66v308zM482 803c-96 0 -164 66 -170 167h70c7 -62 41 -105 100 -105s93 43 100 105h70c-6 -101 -74 -167 -170 -167z" />
    <glyph glyph-name="uni04C2" unicode="&#x4c2;" horiz-adv-x="816" 
d="M458 560v-224h44c62 0 83 23 95 76l10 42c17 69 46 111 122 111c16 0 36 -1 55 -5v-86c-14 3 -22 5 -36 5c-26 0 -41 -15 -47 -42l-7 -36c-13 -63 -32 -103 -77 -128l179 -273h-118l-159 246h-61v-246h-100v246h-61l-159 -246h-118l179 273c-45 25 -64 65 -77 128l-7 36
c-6 27 -21 42 -47 42c-14 0 -22 -2 -36 -5v86c19 4 39 5 55 5c76 0 105 -42 122 -111l10 -42c12 -53 33 -76 95 -76h44v224h100zM408 623c-96 0 -164 66 -170 167h70c7 -62 41 -105 100 -105s93 43 100 105h70c-6 -101 -74 -167 -170 -167z" />
    <glyph glyph-name="uni04C3" unicode="&#x4c3;" horiz-adv-x="640" 
d="M500 12c0 103 -64 227 -169 330l-149 -3v-339h-106v750h106v-308h86c86 0 116 33 132 113l11 54c19 94 53 145 139 145c17 0 35 -1 55 -4v-96c-11 2 -21 3 -31 3c-39 0 -56 -18 -64 -64l-9 -49c-13 -68 -32 -117 -66 -150c124 -136 175 -250 175 -370
c0 -156 -82 -265 -234 -265c-62 0 -122 20 -168 67l72 76c27 -26 61 -39 100 -39c64 0 120 49 120 149z" />
    <glyph glyph-name="uni04C4" unicode="&#x4c4;" horiz-adv-x="554" 
d="M413 19c0 68 -48 154 -128 227h-112v-246h-100v560h100v-224h62c62 0 83 23 95 76l10 42c17 69 46 111 122 111c16 0 36 -1 55 -5v-86c-14 3 -22 5 -36 5c-26 0 -41 -15 -47 -42l-7 -36c-11 -50 -23 -83 -50 -106c97 -98 136 -180 136 -267c0 -119 -68 -201 -193 -201
c-52 0 -107 20 -146 58l64 68c24 -21 53 -32 84 -32c48 0 91 32 91 98z" />
    <glyph glyph-name="uni04C5" unicode="&#x4c5;" horiz-adv-x="719" 
d="M586 0h-106v647h-223l-17 -297c-9 -152 -32 -338 -232 -350v103c103 6 121 131 127 251l20 396h431v-647h121l-73 -347h-100z" />
    <glyph glyph-name="uni04C6" unicode="&#x4c6;" horiz-adv-x="617" 
d="M493 0h-100v464h-173l-11 -203c-6 -113 -28 -252 -201 -261v95c81 4 96 90 101 171l16 294h368v-464h116l-63 -296h-96z" />
    <glyph glyph-name="uni04C7" unicode="&#x4c7;" horiz-adv-x="649" 
d="M467 339h-285v-339h-106v750h106v-308h285v308h106v-784c0 -142 -79 -203 -197 -203c-17 0 -35 1 -45 2v96c12 -1 27 -2 38 -2c63 0 98 24 98 108v372z" />
    <glyph glyph-name="uni04C8" unicode="&#x4c8;" horiz-adv-x="568" 
d="M395 -33v276h-222v-243h-100v560h100v-221h222v221h100v-594c0 -142 -79 -203 -197 -203c-17 0 -35 1 -45 2v96c12 -1 27 -2 38 -2c71 0 104 24 104 108z" />
    <glyph glyph-name="uni04C9" unicode="&#x4c9;" horiz-adv-x="706" 
d="M573 0h-106v339h-285v-339h-106v750h106v-308h285v308h106v-647h121l-73 -347h-100z" />
    <glyph glyph-name="uni04CA" unicode="&#x4ca;" horiz-adv-x="619" 
d="M495 0h-100v243h-222v-243h-100v560h100v-221h222v221h100v-464h116l-63 -296h-96z" />
    <glyph glyph-name="uni04CB" unicode="&#x4cb;" horiz-adv-x="623" 
d="M547 0h-107v-244h-100v347h101v188c-44 -7 -92 -11 -151 -11c-129 0 -205 73 -225 186c-3 19 -5 50 -5 81v203h106v-203c0 -27 1 -53 4 -67c11 -61 49 -98 139 -98c54 0 92 3 132 9v359h106v-750z" />
    <glyph glyph-name="uni04CC" unicode="&#x4cc;" horiz-adv-x="530" 
d="M357 0v-200h-96v296h96v112c-32 -4 -71 -7 -111 -7c-112 0 -180 59 -197 143c-3 13 -5 37 -5 59v157h100v-156c0 -17 1 -32 5 -46c10 -34 41 -62 106 -62c40 0 69 2 102 7v257h100v-560h-100z" />
    <glyph glyph-name="uni04CD" unicode="&#x4cd;" horiz-adv-x="837" 
d="M704 0h-102v508c0 25 1 58 1 58h-1l-171 -420h-82l-171 420h-1s1 -33 1 -58v-508h-102v750h127l187 -460l187 460h127v-647h121l-73 -347h-100z" />
    <glyph glyph-name="uni04CE" unicode="&#x4ce;" horiz-adv-x="711" 
d="M587 0h-96v328c0 25 1 58 1 58h-1l-124 -281h-74l-124 281h-1s1 -33 1 -58v-328h-96v560h113l144 -327l144 327h113v-464h116l-63 -296h-96z" />
    <glyph glyph-name="uni04CF" unicode="&#x4cf;" horiz-adv-x="246" 
d="M73 0v560h100v-560h-100z" />
    <glyph glyph-name="uni04D0" unicode="&#x4d0;" horiz-adv-x="596" 
d="M386 329l-87 316h-4l-85 -316h176zM414 228h-232l-61 -228h-109l210 750h152l210 -750h-109zM298 803c-96 0 -164 66 -170 167h70c7 -62 41 -105 100 -105s93 43 100 105h70c-6 -101 -74 -167 -170 -167z" />
    <glyph glyph-name="uni04D1" unicode="&#x4d1;" horiz-adv-x="540" 
d="M176 416h-104c19 93 88 154 200 154c136 0 198 -71 198 -200v-370h-71l-12 72h-1c-34 -50 -84 -82 -150 -82c-112 0 -186 69 -186 186c0 104 73 176 199 176h121v27c0 65 -32 100 -99 100c-55 0 -82 -25 -95 -63zM150 177c0 -58 32 -96 100 -96s120 71 120 123v61h-120
c-59 0 -100 -33 -100 -88zM270 653c-96 0 -164 66 -170 167h70c7 -62 41 -105 100 -105s93 43 100 105h70c-6 -101 -74 -167 -170 -167z" />
    <glyph glyph-name="uni04D2" unicode="&#x4d2;" horiz-adv-x="596" 
d="M386 329l-87 316h-4l-85 -316h176zM414 228h-232l-61 -228h-109l210 750h152l210 -750h-109zM251 824h-105v111h105v-111zM450 824h-105v111h105v-111z" />
    <glyph glyph-name="uni04D3" unicode="&#x4d3;" horiz-adv-x="540" 
d="M176 416h-104c19 93 88 154 200 154c136 0 198 -71 198 -200v-370h-71l-12 72h-1c-34 -50 -84 -82 -150 -82c-112 0 -186 69 -186 186c0 104 73 176 199 176h121v27c0 65 -32 100 -99 100c-55 0 -82 -25 -95 -63zM150 177c0 -58 32 -96 100 -96s120 71 120 123v61h-120
c-59 0 -100 -33 -100 -88zM223 644h-105v111h105v-111zM422 644h-105v111h105v-111z" />
    <glyph glyph-name="uni04D4" unicode="&#x4d4;" horiz-adv-x="879" 
d="M112 0h-120l331 750h516v-103h-298v-211h242v-103h-242v-230h298v-103h-404v230h-224zM390 647l-135 -314h180v314h-45z" />
    <glyph glyph-name="uni04D5" unicode="&#x4d5;" horiz-adv-x="852" 
d="M692 169h104c-23 -117 -105 -179 -213 -179c-82 0 -141 38 -174 105c-40 -73 -94 -105 -169 -105c-118 0 -190 69 -190 186c0 104 73 170 195 170h125v33c0 65 -31 100 -98 100c-55 0 -82 -25 -95 -63h-107c19 93 90 154 202 154c74 0 130 -26 158 -73
c34 47 92 73 154 73c135 0 215 -86 215 -258v-50h-329v-46c0 -82 44 -135 113 -135c53 0 93 32 109 88zM150 177c0 -58 32 -96 100 -96s120 71 120 123v58h-122c-53 0 -98 -30 -98 -85zM470 346h229c-4 91 -48 133 -115 133s-110 -42 -114 -133z" />
    <glyph glyph-name="uni04D6" unicode="&#x4d6;" horiz-adv-x="555" 
d="M76 0v750h439v-103h-333v-211h275v-103h-275v-230h333v-103h-439zM289 803c-96 0 -164 66 -170 167h70c7 -62 41 -105 100 -105s93 43 100 105h70c-6 -101 -74 -167 -170 -167z" />
    <glyph glyph-name="uni04D7" unicode="&#x4d7;" 
d="M269 570c95 0 169 -50 198 -135c9 -27 15 -62 15 -104v-74h-327v-34c0 -86 43 -142 113 -142c53 0 93 31 109 85h103c-23 -115 -105 -176 -212 -176c-95 0 -169 50 -198 135c-9 27 -15 62 -15 104v102c0 42 6 77 15 104c29 85 104 135 199 135zM167 413
c-7 -17 -11 -38 -12 -66h228c-1 28 -5 49 -12 66c-17 43 -54 66 -102 66s-85 -23 -102 -66zM268 623c-96 0 -164 66 -170 167h70c7 -62 41 -105 100 -105s93 43 100 105h70c-6 -101 -74 -167 -170 -167z" />
    <glyph glyph-name="uni04D8" unicode="&#x4d8;" horiz-adv-x="617" 
d="M66 244v163h380v96c0 34 -4 63 -14 85c-23 50 -72 70 -119 70h-8c-47 0 -96 -20 -119 -70c-7 -15 -11 -34 -13 -56h-108c2 34 9 62 18 85c37 92 128 143 222 143h8c93 0 183 -51 221 -143c12 -30 18 -66 18 -114v-256c0 -48 -6 -84 -18 -114c-38 -92 -128 -143 -221 -143
h-8c-94 0 -185 50 -222 143c-11 29 -17 64 -17 111zM172 307v-63c0 -33 5 -61 14 -82c23 -50 72 -69 119 -69h8c47 0 96 19 119 69c10 22 14 51 14 85v60h-274z" />
    <glyph glyph-name="afii10846" unicode="&#x4d9;" 
d="M268 -10c-95 0 -169 50 -198 135c-9 27 -15 62 -15 104v74h327v34c0 86 -43 142 -113 142c-53 0 -93 -31 -109 -85h-103c23 115 105 176 212 176c95 0 169 -50 198 -135c9 -27 15 -62 15 -104v-102c0 -42 -6 -77 -15 -104c-29 -85 -104 -135 -199 -135zM370 147
c7 17 11 38 12 66h-228c1 -28 5 -49 12 -66c17 -43 54 -66 102 -66s85 23 102 66z" />
    <glyph glyph-name="uni04DA" unicode="&#x4da;" horiz-adv-x="617" 
d="M66 407v-163c0 -47 6 -82 17 -111c37 -93 128 -143 222 -143h8c93 0 183 51 221 143c12 30 18 66 18 114v256c0 48 -6 84 -18 114c-38 92 -128 143 -221 143h-8c-94 0 -185 -51 -222 -143c-9 -23 -16 -51 -18 -85h108c2 22 6 41 13 56c23 50 72 70 119 70h8
c47 0 96 -20 119 -70c10 -22 14 -51 14 -85v-96h-380zM172 244v63h274v-60c0 -34 -4 -63 -14 -85c-23 -50 -72 -69 -119 -69h-8c-47 0 -96 19 -119 69c-9 21 -14 49 -14 82zM261 824h-105v111h105v-111zM460 824h-105v111h105v-111z" />
    <glyph glyph-name="uni04DB" unicode="&#x4db;" 
d="M268 -10c-95 0 -169 50 -198 135c-9 27 -15 62 -15 104v74h327v34c0 86 -43 142 -113 142c-53 0 -93 -31 -109 -85h-103c23 115 105 176 212 176c95 0 169 -50 198 -135c9 -27 15 -62 15 -104v-102c0 -42 -6 -77 -15 -104c-29 -85 -104 -135 -199 -135zM370 147
c7 17 11 38 12 66h-228c1 -28 5 -49 12 -66c17 -43 54 -66 102 -66s85 23 102 66zM221 644h-105v111h105v-111zM420 644h-105v111h105v-111z" />
    <glyph glyph-name="uni04DC" unicode="&#x4dc;" horiz-adv-x="964" 
d="M429 750h106v-308h66c86 0 116 33 132 113l11 54c19 94 53 145 139 145c17 0 35 -1 55 -4v-96c-11 2 -21 3 -31 3c-39 0 -56 -18 -64 -64l-9 -49c-16 -88 -44 -144 -100 -175l219 -369h-124l-197 339h-97v-339h-106v339h-97l-197 -339h-124l219 369
c-56 31 -84 87 -100 175l-9 49c-9 46 -26 64 -65 64c-9 0 -19 -1 -30 -3v96c20 3 38 4 54 4c87 0 121 -51 140 -145l11 -54c16 -80 46 -113 132 -113h66v308zM435 824h-105v111h105v-111zM634 824h-105v111h105v-111z" />
    <glyph glyph-name="uni04DD" unicode="&#x4dd;" horiz-adv-x="816" 
d="M458 560v-224h44c62 0 83 23 95 76l10 42c17 69 46 111 122 111c16 0 36 -1 55 -5v-86c-14 3 -22 5 -36 5c-26 0 -41 -15 -47 -42l-7 -36c-13 -63 -32 -103 -77 -128l179 -273h-118l-159 246h-61v-246h-100v246h-61l-159 -246h-118l179 273c-45 25 -64 65 -77 128l-7 36
c-6 27 -21 42 -47 42c-14 0 -22 -2 -36 -5v86c19 4 39 5 55 5c76 0 105 -42 122 -111l10 -42c12 -53 33 -76 95 -76h44v224h100zM361 644h-105v111h105v-111zM560 644h-105v111h105v-111z" />
    <glyph glyph-name="uni04DE" unicode="&#x4de;" horiz-adv-x="591" 
d="M406 378v1c81 39 114 103 114 178c0 118 -105 203 -237 203c-150 0 -242 -88 -242 -213h105c1 71 49 113 137 113c75 0 131 -39 131 -113c0 -62 -43 -122 -155 -122h-87v-93h87c112 0 160 -63 160 -126c0 -74 -58 -116 -136 -116c-88 0 -136 42 -137 113h-105
c0 -125 92 -213 242 -213c136 0 242 88 242 206c0 75 -38 143 -119 182zM228 824h-105v111h105v-111zM427 824h-105v111h105v-111z" />
    <glyph glyph-name="uni04DF" unicode="&#x4df;" horiz-adv-x="489" 
d="M444 420c0 89 -83 150 -196 150c-130 0 -211 -70 -211 -170h99c0 49 41 76 112 76c59 0 96 -25 96 -71c0 -39 -28 -78 -111 -78h-69v-88h69c83 0 115 -42 115 -81c0 -46 -39 -74 -100 -74c-71 0 -112 29 -112 77h-99c0 -99 81 -171 211 -171c126 0 200 75 200 161
c0 52 -26 102 -95 132c66 33 91 79 91 137zM197 644h-105v111h105v-111zM396 644h-105v111h105v-111z" />
    <glyph glyph-name="uni04E0" unicode="&#x4e0;" horiz-adv-x="578" 
d="M215 371l-20 87l189 189h-316v103h457v-93l-200 -200c126 -3 206 -85 206 -216v-11c0 -131 -92 -240 -247 -240c-137 0 -241 90 -241 229h106c0 -83 52 -126 135 -126c92 0 141 59 141 140v4c0 75 -34 134 -140 134h-70z" />
    <glyph glyph-name="uni04E1" unicode="&#x4e1;" horiz-adv-x="522" 
d="M256 -225c-140 0 -224 97 -230 226h101c5 -64 42 -130 129 -130c92 0 129 67 130 145c0 72 -37 149 -163 149h-44l-25 77l196 226h-305v92h430v-86l-201 -232c131 -11 212 -91 212 -228c0 -126 -77 -239 -230 -239z" />
    <glyph glyph-name="uni04E2" unicode="&#x4e2;" horiz-adv-x="648" 
d="M466 575h1s-1 -33 -1 -58v-517h106v750h-126l-264 -575h-1s1 33 1 58v517h-106v-750h127zM479 890v-65h-310v65h310z" />
    <glyph glyph-name="uni04E3" unicode="&#x4e3;" horiz-adv-x="567" 
d="M394 403h1s-1 -33 -1 -58v-345h100v560h-113c-64 -126 -143 -276 -208 -403h-1s1 33 1 58v345h-100v-560h114zM438 710v-65h-310v65h310z" />
    <glyph glyph-name="uni04E4" unicode="&#x4e4;" horiz-adv-x="648" 
d="M466 575h1s-1 -33 -1 -58v-517h106v750h-126l-264 -575h-1s1 33 1 58v517h-106v-750h127zM277 864h-105v111h105v-111zM476 864h-105v111h105v-111z" />
    <glyph glyph-name="uni04E5" unicode="&#x4e5;" horiz-adv-x="567" 
d="M394 403h1s-1 -33 -1 -58v-345h100v560h-113c-64 -126 -143 -276 -208 -403h-1s1 33 1 58v345h-100v-560h114zM236 674h-105v111h105v-111zM435 674h-105v111h105v-111z" />
    <glyph glyph-name="uni04E6" unicode="&#x4e6;" horiz-adv-x="616" 
d="M445 247v256c0 34 -4 64 -14 86c-23 50 -72 69 -119 69h-8c-47 0 -96 -19 -119 -69c-10 -22 -14 -52 -14 -86v-256c0 -34 4 -64 14 -86c23 -50 72 -69 119 -69h8c47 0 96 19 119 69c10 22 14 52 14 86zM65 247v256c0 48 6 84 18 114c38 92 128 143 221 143h8
c93 0 183 -51 221 -143c12 -30 18 -66 18 -114v-256c0 -48 -6 -84 -18 -114c-38 -92 -128 -143 -221 -143h-8c-93 0 -183 51 -221 143c-12 30 -18 66 -18 114zM261 824h-105v111h105v-111zM460 824h-105v111h105v-111z" />
    <glyph glyph-name="uni04E7" unicode="&#x4e7;" 
d="M481 331v-102c0 -42 -6 -77 -15 -104c-29 -85 -103 -135 -198 -135s-169 50 -198 135c-9 27 -15 62 -15 104v102c0 42 6 77 15 104c29 85 103 135 198 135s169 -50 198 -135c9 -27 15 -62 15 -104zM381 231v98c0 34 -4 60 -12 79c-17 43 -53 66 -101 66s-84 -23 -101 -66
c-8 -19 -12 -45 -12 -79v-98c0 -34 4 -60 12 -79c17 -43 53 -66 101 -66s84 23 101 66c8 19 12 45 12 79zM221 644h-105v111h105v-111zM420 644h-105v111h105v-111z" />
    <glyph glyph-name="uni04E8" unicode="&#x4e8;" horiz-adv-x="616" 
d="M65 247v256c0 48 6 84 18 114c38 92 128 143 221 143h8c93 0 183 -51 221 -143c12 -30 18 -66 18 -114v-256c0 -48 -6 -84 -18 -114c-38 -92 -128 -143 -221 -143h-8c-93 0 -183 51 -221 143c-12 30 -18 66 -18 114zM445 247v80h-274v-80c0 -34 4 -64 14 -86
c23 -50 72 -69 119 -69h8c47 0 96 19 119 69c10 22 14 52 14 86zM171 503v-76h274v76c0 34 -4 64 -14 86c-23 50 -72 69 -119 69h-8c-47 0 -96 -19 -119 -69c-10 -22 -14 -52 -14 -86z" />
    <glyph glyph-name="uni04E9" unicode="&#x4e9;" 
d="M481 331v-102c0 -42 -6 -77 -15 -104c-29 -85 -103 -135 -198 -135s-169 50 -198 135c-9 27 -15 62 -15 104v102c0 42 6 77 15 104c29 85 103 135 198 135s169 -50 198 -135c9 -27 15 -62 15 -104zM381 231v7h-226v-7c0 -34 4 -60 12 -79c17 -43 53 -66 101 -66
s84 23 101 66c8 19 12 45 12 79zM155 328h226c0 35 -4 61 -12 80c-17 43 -53 66 -101 66s-84 -23 -101 -66c-8 -19 -12 -45 -12 -80z" />
    <glyph glyph-name="uni04EA" unicode="&#x4ea;" horiz-adv-x="616" 
d="M65 247v256c0 48 6 84 18 114c38 92 128 143 221 143h8c93 0 183 -51 221 -143c12 -30 18 -66 18 -114v-256c0 -48 -6 -84 -18 -114c-38 -92 -128 -143 -221 -143h-8c-93 0 -183 51 -221 143c-12 30 -18 66 -18 114zM445 247v80h-274v-80c0 -34 4 -64 14 -86
c23 -50 72 -69 119 -69h8c47 0 96 19 119 69c10 22 14 52 14 86zM171 503v-76h274v76c0 34 -4 64 -14 86c-23 50 -72 69 -119 69h-8c-47 0 -96 -19 -119 -69c-10 -22 -14 -52 -14 -86zM261 824h-105v111h105v-111zM460 824h-105v111h105v-111z" />
    <glyph glyph-name="uni04EB" unicode="&#x4eb;" 
d="M481 331v-102c0 -42 -6 -77 -15 -104c-29 -85 -103 -135 -198 -135s-169 50 -198 135c-9 27 -15 62 -15 104v102c0 42 6 77 15 104c29 85 103 135 198 135s169 -50 198 -135c9 -27 15 -62 15 -104zM381 231v7h-226v-7c0 -34 4 -60 12 -79c17 -43 53 -66 101 -66
s84 23 101 66c8 19 12 45 12 79zM155 328h226c0 35 -4 61 -12 80c-17 43 -53 66 -101 66s-84 -23 -101 -66c-8 -19 -12 -45 -12 -80zM221 644h-105v111h105v-111zM420 644h-105v111h105v-111z" />
    <glyph glyph-name="uni04EC" unicode="&#x4ec;" horiz-adv-x="591" 
d="M155 162c-5 12 -9 26 -11 42h-108c3 -28 8 -51 16 -71c35 -94 128 -143 222 -143h13c93 0 183 51 221 143c12 30 18 66 18 114v256c0 48 -6 84 -18 114c-38 92 -128 143 -221 143h-13c-94 0 -185 -51 -222 -143c-7 -19 -12 -40 -15 -65h108c2 13 5 25 10 36
c22 51 72 70 119 70h13c47 0 96 -20 119 -70c10 -22 14 -51 14 -85v-67h-241v-103h241v-86c0 -34 -4 -63 -14 -85c-23 -50 -72 -69 -119 -69h-13c-47 0 -96 19 -119 69zM238 824h-105v111h105v-111zM437 824h-105v111h105v-111z" />
    <glyph glyph-name="uni04ED" unicode="&#x4ed;" horiz-adv-x="525" 
d="M257 86c-55 0 -98 23 -111 80h-102c14 -106 95 -176 213 -176c95 0 169 50 198 135c9 27 15 62 15 104v102c0 42 -6 77 -15 104c-29 85 -103 135 -198 135c-124 0 -198 -67 -214 -186h102c8 57 48 90 112 90c48 0 84 -23 101 -66c8 -19 12 -45 12 -79v-3h-187v-93h187v-2
c0 -34 -4 -60 -12 -79c-17 -43 -53 -66 -101 -66zM207 644h-105v111h105v-111zM406 644h-105v111h105v-111z" />
    <glyph glyph-name="uni04EE" unicode="&#x4ee;" horiz-adv-x="569" 
d="M129 88c64 0 87 28 110 90l-223 572h112l165 -443h2l153 443h111l-222 -603c-42 -113 -103 -157 -196 -157c-39 0 -66 4 -89 11v97c22 -5 42 -10 77 -10zM449 890v-65h-310v65h310z" />
    <glyph glyph-name="uni04EF" unicode="&#x4ef;" horiz-adv-x="508" 
d="M77 -120c54 0 79 33 97 81l30 80l-193 519h107l138 -394h2l135 394h106l-234 -637c-35 -95 -92 -139 -176 -139c-30 0 -57 4 -80 11v95c22 -5 42 -10 68 -10zM412 710v-65h-310v65h310z" />
    <glyph glyph-name="uni04F0" unicode="&#x4f0;" horiz-adv-x="569" 
d="M129 88c64 0 87 28 110 90l-223 572h112l165 -443h2l153 443h111l-222 -603c-42 -113 -103 -157 -196 -157c-39 0 -66 4 -89 11v97c22 -5 42 -10 77 -10zM247 824h-105v111h105v-111zM446 824h-105v111h105v-111z" />
    <glyph glyph-name="uni04F1" unicode="&#x4f1;" horiz-adv-x="508" 
d="M77 -120c54 0 79 33 97 81l30 80l-193 519h107l138 -394h2l135 394h106l-234 -637c-35 -95 -92 -139 -176 -139c-30 0 -57 4 -80 11v95c22 -5 42 -10 68 -10zM210 644h-105v111h105v-111zM409 644h-105v111h105v-111z" />
    <glyph glyph-name="uni04F2" unicode="&#x4f2;" horiz-adv-x="569" 
d="M129 88c64 0 87 28 110 90l-223 572h112l165 -443h2l153 443h111l-222 -603c-42 -113 -103 -157 -196 -157c-39 0 -66 4 -89 11v97c22 -5 42 -10 77 -10zM195 807h-69l113 180h117zM389 807h-69l113 180h117z" />
    <glyph glyph-name="uni04F3" unicode="&#x4f3;" horiz-adv-x="508" 
d="M77 -120c54 0 79 33 97 81l30 80l-193 519h107l138 -394h2l135 394h106l-234 -637c-35 -95 -92 -139 -176 -139c-30 0 -57 4 -80 11v95c22 -5 42 -10 68 -10zM171 627h-69l113 180h117zM365 627h-69l113 180h117z" />
    <glyph glyph-name="uni04F4" unicode="&#x4f4;" horiz-adv-x="623" 
d="M441 0v291c-44 -7 -92 -11 -151 -11c-129 0 -205 73 -225 186c-3 19 -5 50 -5 81v203h106v-203c0 -27 1 -53 4 -67c11 -61 49 -98 139 -98c54 0 92 3 132 9v359h106v-750h-106zM264 824h-105v111h105v-111zM463 824h-105v111h105v-111z" />
    <glyph glyph-name="uni04F5" unicode="&#x4f5;" horiz-adv-x="530" 
d="M357 0v208c-32 -4 -71 -7 -111 -7c-112 0 -180 59 -197 143c-3 13 -5 37 -5 59v157h100v-156c0 -17 1 -32 5 -46c10 -34 41 -62 106 -62c40 0 69 2 102 7v257h100v-560h-100zM205 644h-105v111h105v-111zM404 644h-105v111h105v-111z" />
    <glyph glyph-name="uni04F6" unicode="&#x4f6;" horiz-adv-x="537" 
d="M199 0h-123v750h431v-103h-325v-544h117v-347h-100v244z" />
    <glyph glyph-name="uni04F7" unicode="&#x4f7;" horiz-adv-x="457" 
d="M173 0h-100v560h358v-96h-258v-368h96v-296h-96v200z" />
    <glyph glyph-name="uni04F8" unicode="&#x4f8;" horiz-adv-x="808" 
d="M182 459h102c53 0 83 -5 109 -15c87 -32 142 -111 142 -213c0 -104 -55 -184 -142 -216c-26 -10 -58 -15 -109 -15h-208v750h106v-291zM282 356h-100v-253h100c46 0 68 6 87 17c37 21 60 62 60 111c0 47 -23 87 -60 108c-19 11 -41 17 -87 17zM626 0v750h106v-750h-106z
M357 824h-105v111h105v-111zM556 824h-105v111h105v-111z" />
    <glyph glyph-name="uni04F9" unicode="&#x4f9;" horiz-adv-x="710" 
d="M537 0v560h100v-560h-100zM173 560v-204h87c37 0 68 -5 90 -12c72 -24 118 -86 118 -166s-46 -142 -118 -166c-22 -7 -53 -12 -90 -12h-187v560h100zM173 262v-168h86c35 0 51 4 66 12c26 13 43 39 43 72s-17 59 -43 72c-15 8 -31 12 -66 12h-86zM308 644h-105v111h105
v-111zM507 644h-105v111h105v-111z" />
    <glyph glyph-name="uni04FA" unicode="&#x4fa;" horiz-adv-x="584" 
d="M248 -33v33h-125v357h-108v76h108v317h431v-103h-325v-214h188v-76h-188v-254h117v-137c0 -142 -79 -203 -197 -203c-17 0 -35 1 -45 2v94c12 -1 27 -2 38 -2c71 0 106 26 106 110z" />
    <glyph glyph-name="uni04FB" unicode="&#x4fb;" horiz-adv-x="496" 
d="M112 0v243h-94v70h94v247h358v-96h-258v-151h162v-70h-162v-147h96v-126c0 -142 -76 -194 -190 -194c-16 0 -34 0 -43 1v89c11 -1 30 -2 40 -2c69 0 101 27 101 108v28h-104z" />
    <glyph glyph-name="uni04FC" unicode="&#x4fc;" horiz-adv-x="615" 
d="M505 0h-51l-162 290l-162 -290h-121l223 390l-200 360h122l138 -261l138 261h122l-200 -360l164 -287h87v-137c0 -142 -79 -203 -197 -203c-17 0 -35 1 -45 2v94c12 -1 27 -2 38 -2c71 0 106 26 106 110v33z" />
    <glyph glyph-name="uni04FD" unicode="&#x4fd;" horiz-adv-x="541" 
d="M435 0h-43l-133 209l-133 -209h-114l193 294l-177 266h115l116 -182l115 182h117l-178 -266l130 -198h84v-126c0 -142 -76 -194 -190 -194c-16 0 -34 0 -43 1v89c11 -1 30 -2 40 -2c69 0 101 27 101 108v28z" />
    <glyph glyph-name="uni04FE" unicode="&#x4fe;" horiz-adv-x="594" 
d="M135 0h-121l205 355h-169v70h169l-182 325h122l138 -261l138 261h122l-183 -325h170v-70h-169l205 -355h-121l-162 290z" />
    <glyph glyph-name="uni04FF" unicode="&#x4ff;" horiz-adv-x="518" 
d="M28 560h115l116 -182l115 182h117l-159 -234h136v-66h-135l173 -260h-114l-133 209l-133 -209h-114l172 260h-134v66h135z" />
    <glyph glyph-name="endash" unicode="&#x2013;" horiz-adv-x="576" 
d="M531 346h-486v88h486v-88z" />
    <glyph glyph-name="emdash" unicode="&#x2014;" horiz-adv-x="696" 
d="M651 346h-606v88h606v-88z" />
    <glyph glyph-name="quoteleft" unicode="&#x2018;" horiz-adv-x="228" 
d="M178 622v-131h-133v109c0 83 33 170 143 185v-50c-60 -19 -75 -62 -75 -101c0 -9 5 -12 11 -12h54z" />
    <glyph glyph-name="quoteright" unicode="&#x2019;" horiz-adv-x="227" 
d="M52 654v131h133v-109c0 -83 -33 -170 -143 -185v50c60 19 75 62 75 101c0 9 -5 12 -11 12h-54z" />
    <glyph glyph-name="quotesinglbase" unicode="&#x201a;" horiz-adv-x="228" 
d="M50 0v131h133v-109c0 -83 -33 -170 -143 -185v50c60 19 75 62 75 101c0 9 -5 12 -11 12h-54z" />
    <glyph glyph-name="quotedblleft" unicode="&#x201c;" horiz-adv-x="428" 
d="M178 622v-131h-133v109c0 83 33 170 143 185v-50c-60 -19 -75 -62 -75 -101c0 -9 5 -12 11 -12h54zM378 622v-131h-133v109c0 83 33 170 143 185v-50c-60 -19 -75 -62 -75 -101c0 -9 5 -12 11 -12h54z" />
    <glyph glyph-name="quotedblright" unicode="&#x201d;" horiz-adv-x="427" 
d="M52 654v131h133v-109c0 -83 -33 -170 -143 -185v50c60 19 75 62 75 101c0 9 -5 12 -11 12h-54zM252 654v131h133v-109c0 -83 -33 -170 -143 -185v50c60 19 75 62 75 101c0 9 -5 12 -11 12h-54z" />
    <glyph glyph-name="quotedblbase" unicode="&#x201e;" horiz-adv-x="428" 
d="M50 0v131h133v-109c0 -83 -33 -170 -143 -185v50c60 19 75 62 75 101c0 9 -5 12 -11 12h-54zM250 0v131h133v-109c0 -83 -33 -170 -143 -185v50c60 19 75 62 75 101c0 9 -5 12 -11 12h-54z" />
    <glyph glyph-name="dagger" unicode="&#x2020;" horiz-adv-x="498" 
d="M284 460v-629h-70v629h-174v67h174v223h70v-223h174v-67h-174z" />
    <glyph glyph-name="daggerdbl" unicode="&#x2021;" horiz-adv-x="508" 
d="M219 121v339h-174v67h174v223h70v-223h174v-67h-174v-339h174v-67h-174v-223h-70v223h-174v67h174z" />
    <glyph glyph-name="bullet" unicode="&#x2022;" horiz-adv-x="309" 
d="M249 315h-189v197h189v-197z" />
    <glyph glyph-name="ellipsis" unicode="&#x2026;" horiz-adv-x="684" 
d="M177 0h-126v131h126v-131zM405 0h-126v131h126v-131zM633 0h-126v131h126v-131z" />
    <glyph glyph-name="perthousand" unicode="&#x2030;" horiz-adv-x="908" 
d="M375 159v-20c0 -55 25 -84 64 -84c40 0 65 29 65 84v20c0 55 -25 84 -65 84c-39 0 -64 -29 -64 -84zM306 139v20c0 91 57 148 133 148c77 0 134 -57 134 -148v-20c0 -91 -57 -149 -134 -149c-76 0 -133 58 -133 149zM675 159v-20c0 -55 25 -84 64 -84c40 0 65 29 65 84
v20c0 55 -25 84 -65 84c-39 0 -64 -29 -64 -84zM606 139v20c0 91 57 148 133 148c77 0 134 -57 134 -148v-20c0 -91 -57 -149 -134 -149c-76 0 -133 58 -133 149zM104 612v-20c0 -55 25 -84 64 -84c40 0 65 29 65 84v20c0 55 -25 84 -65 84c-39 0 -64 -29 -64 -84zM35 592
v20c0 91 57 148 133 148c77 0 134 -57 134 -148v-20c0 -91 -57 -149 -134 -149c-76 0 -133 58 -133 149zM157 0h-64l361 750h64z" />
    <glyph glyph-name="guilsinglleft" unicode="&#x2039;" horiz-adv-x="310" 
d="M28 326l232 249v-111l-129 -138l129 -138v-111z" />
    <glyph glyph-name="guilsinglright" unicode="&#x203a;" horiz-adv-x="310" 
d="M282 326l-232 -249v111l129 138l-129 138v111z" />
    <glyph glyph-name="fraction" unicode="&#x2044;" horiz-adv-x="333" 
d="M-100 -102l468 950l65 -29l-468 -949z" />
    <glyph glyph-name="Euro" unicode="&#x20ac;" horiz-adv-x="550" 
d="M445 202h103c-10 -129 -109 -212 -227 -212h-2c-119 0 -228 91 -228 241v24h-91l22 68h69v92h-91l22 68h69v36c0 150 109 241 228 241h2c115 0 218 -84 227 -214h-102c-14 77 -70 118 -125 118h-2c-64 0 -128 -43 -128 -148v-33h229l-24 -68h-205v-92h178l-24 -68h-154
v-21c0 -106 64 -148 128 -148h2c54 0 109 40 124 116z" />
    <glyph glyph-name="uni2120" unicode="&#x2120;" horiz-adv-x="594" 
d="M236 659h-51c0 25 -17 50 -50 50c-34 0 -46 -17 -46 -34c0 -23 19 -34 36 -40l33 -11c42 -14 81 -39 81 -91s-44 -86 -102 -86c-66 0 -105 43 -106 95h51c1 -31 26 -51 54 -51c31 0 52 17 52 43c0 23 -23 37 -43 43l-34 11c-35 11 -72 30 -72 85c0 51 43 80 98 80
c56 0 101 -32 99 -94zM391 450l-64 204v-204h-51v300h64l72 -234l73 234l64 -1v-299h-51v203l-64 -203h-43z" />
    <glyph glyph-name="trademark" unicode="&#x2122;" horiz-adv-x="586" 
d="M18 750h212v-47h-80v-253h-51v253h-81v47zM383 450l-64 204v-204h-51v300h64l72 -234l73 234h64v-300h-51v203l-64 -203h-43z" />
    <glyph glyph-name="partialdiff" unicode="&#x2202;" horiz-adv-x="580" 
d="M540 750v-750h-500v750h500zM261 374l-171 281v-562zM319 374l171 -281v562zM120 700l170 -279l170 279h-340zM290 326l-169 -276h337z" />
    <glyph glyph-name="product" unicode="&#x220f;" horiz-adv-x="580" 
d="M540 750v-750h-500v750h500zM261 374l-171 281v-562zM319 374l171 -281v562zM120 700l170 -279l170 279h-340zM290 326l-169 -276h337z" />
    <glyph glyph-name="summation" unicode="&#x2211;" horiz-adv-x="580" 
d="M540 750v-750h-500v750h500zM261 374l-171 281v-562zM319 374l171 -281v562zM120 700l170 -279l170 279h-340zM290 326l-169 -276h337z" />
    <glyph glyph-name="minus" unicode="&#x2212;" horiz-adv-x="550" 
d="M518 256h-486v88h486v-88z" />
    <glyph glyph-name="radical" unicode="&#x221a;" horiz-adv-x="580" 
d="M540 750v-750h-500v750h500zM261 374l-171 281v-562zM319 374l171 -281v562zM120 700l170 -279l170 279h-340zM290 326l-169 -276h337z" />
    <glyph glyph-name="infinity" unicode="&#x221e;" horiz-adv-x="580" 
d="M540 750v-750h-500v750h500zM261 374l-171 281v-562zM319 374l171 -281v562zM120 700l170 -279l170 279h-340zM290 326l-169 -276h337z" />
    <glyph glyph-name="integral" unicode="&#x222b;" horiz-adv-x="580" 
d="M540 750v-750h-500v750h500zM261 374l-171 281v-562zM319 374l171 -281v562zM120 700l170 -279l170 279h-340zM290 326l-169 -276h337z" />
    <glyph glyph-name="approxequal" unicode="&#x2248;" horiz-adv-x="580" 
d="M540 750v-750h-500v750h500zM261 374l-171 281v-562zM319 374l171 -281v562zM120 700l170 -279l170 279h-340zM290 326l-169 -276h337z" />
    <glyph glyph-name="notequal" unicode="&#x2260;" horiz-adv-x="550" 
d="M148 0h-76l83 151h-118v88h166l67 122h-233v88h281l84 152h76l-84 -152h119v-88h-167l-67 -122h234v-88h-282z" />
    <glyph glyph-name="lessequal" unicode="&#x2264;" horiz-adv-x="550" 
d="M501 0h-451v88h451v-88zM501 143l-446 208v98l446 208v-96l-362 -161l362 -161v-96z" />
    <glyph glyph-name="greaterequal" unicode="&#x2265;" horiz-adv-x="550" 
d="M500 0h-451v88h451v-88zM495 351l-446 -208v96l362 161l-362 161v96l446 -208v-98z" />
    <glyph glyph-name="lozenge" unicode="&#x25ca;" horiz-adv-x="580" 
d="M540 750v-750h-500v750h500zM261 374l-171 281v-562zM319 374l171 -281v562zM120 700l170 -279l170 279h-340zM290 326l-169 -276h337z" />
    <glyph glyph-name="commaaccentlow" horiz-adv-x="500" 
d="M196 -155v105h107v-78c0 -13 -1 -29 -3 -42c-8 -51 -42 -96 -112 -106v40c48 16 60 49 60 71c0 7 -4 10 -9 10h-43z" />
    <glyph glyph-name="commaacaron" horiz-adv-x="191" 
d="M46 680v105h107v-78c0 -13 -1 -29 -3 -42c-8 -51 -42 -96 -112 -106v40c48 16 60 49 60 71c0 7 -4 10 -9 10h-43z" />
    <glyph glyph-name="brevecyrillic" horiz-adv-x="500" 
d="M250 653c-96 0 -164 66 -170 167h70c7 -62 41 -105 100 -105s93 43 100 105h70c-6 -101 -74 -167 -170 -167z" />
    <glyph glyph-name="registered.001" horiz-adv-x="858" 
d="M60 375c0 213 146 385 369 385s369 -172 369 -385s-146 -385 -369 -385s-369 172 -369 385zM111 375c0 -185 123 -336 318 -336s318 151 318 336s-123 336 -318 336s-318 -151 -318 -336zM616 148l-3 -6h-80c-14 15 -18 40 -20 61l-6 76c-4 42 -29 56 -74 56h-67v-193
h-78v472h139c23 0 41 -2 56 -5c64 -16 107 -57 107 -125c0 -45 -22 -84 -66 -107c37 -16 56 -44 60 -90l6 -79c2 -24 8 -46 26 -60zM423 541h-57v-133h61c55 0 85 30 85 73c0 31 -18 49 -48 56c-10 3 -25 4 -41 4z" />
    <glyph glyph-name="regsound" horiz-adv-x="858" 
d="M60 375c0 213 146 385 369 385s369 -172 369 -385s-146 -385 -369 -385s-369 172 -369 385zM111 375c0 -185 123 -336 318 -336s318 151 318 336s-123 336 -318 336s-318 -151 -318 -336zM380 375h69c27 0 41 4 53 10c21 12 35 37 35 65c0 30 -14 56 -35 67
c-12 6 -26 10 -53 10h-69v-152zM451 302h-71v-174h-78v472h149c33 0 54 -3 71 -10c54 -21 93 -74 93 -140s-36 -117 -93 -139c-17 -6 -35 -9 -71 -9z" />
    <glyph glyph-name="CR" horiz-adv-x="220" 
 />
    <glyph glyph-name="apple" horiz-adv-x="947" 
 />
    <glyph glyph-name="_0000" horiz-adv-x="500" 
 />
    <glyph glyph-name=".null" horiz-adv-x="0" 
 />
    </font>
</defs>
</svg>
